<?xml version="1.0" standalone="no"?>
<!DOCTYPE svg PUBLIC "-//W3C//DTD SVG 1.1//EN" "http://www.w3.org/Graphics/SVG/1.1/DTD/svg11.dtd" >
<svg xmlns="http://www.w3.org/2000/svg" xmlns:xlink="http://www.w3.org/1999/xlink" version="1.1">
<metadata>
Created by FontForge 20170731 at Wed Dec 19 16:02:14 2012
 By Aleksey,,,
Copyright (c) 2012 Linotype GmbH, www.linotype.com. All rights reserved. This font software may not be reproduced, modified, disclosed or transferred without the express written approval of Linotype GmbH. Avenir is a trademark of Linotype GmbH registered in the U.S. Patent and Trademark Office and may be registered in certain other jurisdictions. This typeface is original artwork of Adrian Frutiger, Akira Kobayashi. The design may be protected in certain jurisdictions.
</metadata>
<defs>
<font id="AvenirNextRoundedPro-Bold" horiz-adv-x="300" >
  <font-face 
    font-family="Avenir Next Rounded Pro Medium"
    font-weight="750"
    font-stretch="normal"
    units-per-em="1000"
    panose-1="2 11 8 3 2 2 2 2 2 4"
    ascent="750"
    descent="-250"
    x-height="498"
    cap-height="718"
    bbox="-179 -260 1210 971"
    underline-thickness="50"
    underline-position="-150"
    unicode-range="U+000D-FB04"
  />
<missing-glyph horiz-adv-x="512" 
d="M222 154q0 20 10.5 26t17.5 6t17.5 -6t10.5 -26v-8q0 -20 -10.5 -26t-17.5 -6t-17.5 6t-10.5 26v8zM462 50v617h-412v-617h412zM0 686q0 32 31 32h450q31 0 31 -32v-654q0 -32 -31 -32h-450q-31 0 -31 32v654zM223 254q0 26 3 45t10 34.5t18.5 29t27.5 28.5
q17 16 26.5 28t14.5 22.5t6 20t1 18.5q0 35 -21.5 57t-52.5 22q-27 0 -48 -16.5t-31 -58.5q-4 -15 -12 -19t-14 -4q-11 0 -18 7.5t-7 17.5v4.5t2 9.5q13 57 47.5 83t83.5 26q54 0 89 -33t35 -92q0 -16 -2.5 -30.5t-9 -29.5t-19.5 -31.5t-34 -36.5q-15 -14 -24 -24
t-14.5 -20.5t-7 -23.5t-1.5 -34q0 -17 -9 -22t-15 -5t-15 5t-9 22z" />
    <glyph glyph-name="IJ" unicode="IJ" horiz-adv-x="837" 
d="M73 622q0 31 9.5 49.5t23 29t28 14t25.5 3.5q10 0 25 -3.5t28.5 -14t23 -29t9.5 -49.5v-536q0 -31 -9.5 -49.5t-23 -29t-28.5 -14t-25 -3.5q-11 0 -25.5 3.5t-28 14t-23 29t-9.5 49.5v536zM596 622q0 31 9.5 49.5t23 29t28 14t25.5 3.5q10 0 25 -3.5t28.5 -14t23 -29
t9.5 -49.5v-380q0 -42 -9.5 -88t-35 -84.5t-71 -63.5t-117.5 -25q-60 0 -101 18.5t-66 43.5q-15 15 -25.5 34t-10.5 42q0 32 22 53t56 21q19 0 33.5 -7.5t35.5 -29.5q11 -11 24.5 -15.5t23.5 -4.5q42 0 55.5 29t13.5 76v381z" />
    <glyph glyph-name="ij" unicode="ij" horiz-adv-x="589" 
d="M242 657q0 -19 -7.5 -35.5t-20 -28.5t-30 -19t-36.5 -7q-40 0 -67 26.5t-27 63.5q0 18 7 34.5t20 28.5t30 19.5t37 7.5q19 0 36.5 -7t30 -19t20 -28.5t7.5 -35.5zM66 416q0 30 9 48t22 27.5t27 13t24 3.5t24 -3.5t27 -13t22 -27.5t9 -48v-334q0 -30 -9 -48t-22 -27.5
t-27 -13t-24 -3.5t-24 3.5t-27 13t-22 27.5t-9 48v334zM535 657q0 -19 -7.5 -35.5t-20 -28.5t-30 -19t-36.5 -7q-40 0 -67 26.5t-27 63.5q0 18 7 34.5t20 28.5t30 19.5t37 7.5q19 0 36.5 -7t30 -19t20 -28.5t7.5 -35.5zM523 -13q0 -105 -44.5 -165.5t-136.5 -60.5
q-48 0 -73.5 18t-25.5 52q0 30 19 49.5t54 19.5q43 0 43 65v451q0 30 9 48t22 27.5t27 13t24 3.5t24 -3.5t27 -13t22 -27.5t9 -48v-429z" />
    <glyph glyph-name="napostrophe" unicode="&#x22;n" horiz-adv-x="706" 
d="M154 420q0 28 8.5 45.5t21 27t26 12.5t23.5 3t23 -3t25.5 -11.5t21.5 -24t10 -40.5h2q9 16 23.5 31.5t34 26.5t42.5 18t49 7q50 0 85 -18t56.5 -46.5t31 -65.5t9.5 -74v-226q0 -30 -9 -48t-22 -27.5t-27.5 -13t-24.5 -3.5t-24 3.5t-27 13t-22 27.5t-9 48v190
q0 21 -3.5 40t-11.5 33.5t-22.5 23t-36.5 8.5t-38.5 -8.5t-27.5 -23.5t-16.5 -34.5t-5.5 -40.5v-188q0 -30 -9 -48t-22 -27.5t-27.5 -13t-24.5 -3.5t-24 3.5t-27 13t-22 27.5t-9 48v338zM133 546q-17 -38 -33 -48t-30 -10q-21 0 -38.5 13t-17.5 39q0 14 13 50l24 64
q15 40 31.5 52t35.5 12q25 0 42 -16t17 -39q0 -8 -2.5 -19t-11.5 -32z" />
    <glyph glyph-name="f_f" unicode="ff" horiz-adv-x="698" 
d="M255 375v-293q0 -30 -9 -48t-22 -27.5t-27 -13t-24 -3.5t-24 3.5t-27 13t-22 27.5t-9 48v293h-32q-22 0 -35.5 7t-21 16.5t-10 20t-2.5 18.5q0 7 2.5 17.5t10 20t21 16.5t35.5 7h32v48q0 49 11 90.5t36 72.5t65 48.5t97 17.5q18 0 34.5 -3t29 -11t20.5 -21t8 -33
q0 -30 -19.5 -47.5t-52.5 -17.5q-40 0 -52.5 -25t-12.5 -61v-58h170v48q0 49 11 90.5t36 72.5t65 48.5t97 17.5q18 0 34.5 -3t29 -11t20.5 -21t8 -33q0 -30 -19.5 -47.5t-52.5 -17.5q-40 0 -52.5 -25t-12.5 -61v-58h52q22 0 35.5 -7t21 -16.5t10 -20t2.5 -17.5
q0 -8 -2.5 -18.5t-10 -20t-21 -16.5t-35.5 -7h-52v-293q0 -30 -9 -48t-22 -27.5t-27 -13t-24 -3.5t-24 3.5t-27 13t-22 27.5t-9 48v293h-170z" />
    <glyph glyph-name="fi" unicode="fi" horiz-adv-x="665" 
d="M59 375q-22 0 -35.5 7t-21 16.5t-10 20t-2.5 18.5q0 7 2.5 17.5t10 20t21 16.5t35.5 7h32v48q0 49 11 90.5t36 72.5t65 48.5t97 17.5q18 0 34.5 -3t29 -11t20.5 -21t8 -33q0 -30 -19.5 -47.5t-52.5 -17.5q-40 0 -52.5 -25t-12.5 -61v-58h52q22 0 35.5 -7t21 -16.5t10 -20
t2.5 -17.5q0 -8 -2.5 -18.5t-10 -20t-21 -16.5t-35.5 -7h-52v-293q0 -30 -9 -48t-22 -27.5t-27 -13t-24 -3.5t-24 3.5t-27 13t-22 27.5t-9 48v293h-32zM611 657q0 -19 -7.5 -35.5t-20 -28.5t-30 -19t-36.5 -7q-40 0 -67 26.5t-27 63.5q0 18 7 34.5t20 28.5t30 19.5t37 7.5
q19 0 36.5 -7t30 -19t20 -28.5t7.5 -35.5zM435 416q0 30 9 48t22 27.5t27 13t24 3.5t24 -3.5t27 -13t22 -27.5t9 -48v-334q0 -30 -9 -48t-22 -27.5t-27 -13t-24 -3.5t-24 3.5t-27 13t-22 27.5t-9 48v334z" />
    <glyph glyph-name="fl" unicode="fl" horiz-adv-x="666" 
d="M59 375q-22 0 -35.5 7t-21 16.5t-10 20t-2.5 18.5q0 7 2.5 17.5t10 20t21 16.5t35.5 7h32v48q0 49 11 90.5t36 72.5t65 48.5t97 17.5q18 0 34.5 -3t29 -11t20.5 -21t8 -33q0 -30 -19.5 -47.5t-52.5 -17.5q-40 0 -52.5 -25t-12.5 -61v-58h52q22 0 35.5 -7t21 -16.5t10 -20
t2.5 -17.5q0 -8 -2.5 -18.5t-10 -20t-21 -16.5t-35.5 -7h-52v-293q0 -30 -9 -48t-22 -27.5t-27 -13t-24 -3.5t-24 3.5t-27 13t-22 27.5t-9 48v293h-32zM434 673q0 30 9 48.5t22 28t27.5 13t24.5 3.5t24.5 -3.5t27.5 -13t22 -28t9 -48.5v-590q0 -30 -9 -48.5t-22 -28
t-27.5 -13t-24.5 -3.5t-24.5 3.5t-27.5 13t-22 28t-9 48.5v590z" />
    <glyph glyph-name="f_f_i" unicode="ffi" horiz-adv-x="999" 
d="M255 375v-293q0 -30 -9 -48t-22 -27.5t-27 -13t-24 -3.5t-24 3.5t-27 13t-22 27.5t-9 48v293h-32q-22 0 -35.5 7t-21 16.5t-10 20t-2.5 18.5q0 7 2.5 17.5t10 20t21 16.5t35.5 7h32v48q0 49 11 90.5t36 72.5t65 48.5t97 17.5q18 0 34.5 -3t29 -11t20.5 -21t8 -33
q0 -30 -19.5 -47.5t-52.5 -17.5q-40 0 -52.5 -25t-12.5 -61v-58h170v48q0 49 11 90.5t36 72.5t65 48.5t97 17.5q18 0 34.5 -3t29 -11t20.5 -21t8 -33q0 -30 -19.5 -47.5t-52.5 -17.5q-40 0 -52.5 -25t-12.5 -61v-58h52q22 0 35.5 -7t21 -16.5t10 -20t2.5 -17.5
q0 -8 -2.5 -18.5t-10 -20t-21 -16.5t-35.5 -7h-52v-293q0 -30 -9 -48t-22 -27.5t-27 -13t-24 -3.5t-24 3.5t-27 13t-22 27.5t-9 48v293h-170zM945 657q0 -19 -7.5 -35.5t-20 -28.5t-30 -19t-36.5 -7q-40 0 -67 26.5t-27 63.5q0 18 7 34.5t20 28.5t30 19.5t37 7.5
q19 0 36.5 -7t30 -19t20 -28.5t7.5 -35.5zM769 416q0 30 9 48t22 27.5t27 13t24 3.5t24 -3.5t27 -13t22 -27.5t9 -48v-334q0 -30 -9 -48t-22 -27.5t-27 -13t-24 -3.5t-24 3.5t-27 13t-22 27.5t-9 48v334z" />
    <glyph glyph-name="f_f_l" unicode="ffl" horiz-adv-x="1000" 
d="M255 375v-293q0 -30 -9 -48t-22 -27.5t-27 -13t-24 -3.5t-24 3.5t-27 13t-22 27.5t-9 48v293h-32q-22 0 -35.5 7t-21 16.5t-10 20t-2.5 18.5q0 7 2.5 17.5t10 20t21 16.5t35.5 7h32v48q0 49 11 90.5t36 72.5t65 48.5t97 17.5q18 0 34.5 -3t29 -11t20.5 -21t8 -33
q0 -30 -19.5 -47.5t-52.5 -17.5q-40 0 -52.5 -25t-12.5 -61v-58h170v48q0 49 11 90.5t36 72.5t65 48.5t97 17.5q18 0 34.5 -3t29 -11t20.5 -21t8 -33q0 -30 -19.5 -47.5t-52.5 -17.5q-40 0 -52.5 -25t-12.5 -61v-58h52q22 0 35.5 -7t21 -16.5t10 -20t2.5 -17.5
q0 -8 -2.5 -18.5t-10 -20t-21 -16.5t-35.5 -7h-52v-293q0 -30 -9 -48t-22 -27.5t-27 -13t-24 -3.5t-24 3.5t-27 13t-22 27.5t-9 48v293h-170zM768 673q0 30 9 48.5t22 28t27.5 13t24.5 3.5t24.5 -3.5t27.5 -13t22 -28t9 -48.5v-590q0 -30 -9 -48.5t-22 -28t-27.5 -13
t-24.5 -3.5t-24.5 3.5t-27.5 13t-22 28t-9 48.5v590z" />
    <glyph glyph-name=".notdef" horiz-adv-x="512" 
d="M222 154q0 20 10.5 26t17.5 6t17.5 -6t10.5 -26v-8q0 -20 -10.5 -26t-17.5 -6t-17.5 6t-10.5 26v8zM462 50v617h-412v-617h412zM0 686q0 32 31 32h450q31 0 31 -32v-654q0 -32 -31 -32h-450q-31 0 -31 32v654zM223 254q0 26 3 45t10 34.5t18.5 29t27.5 28.5
q17 16 26.5 28t14.5 22.5t6 20t1 18.5q0 35 -21.5 57t-52.5 22q-27 0 -48 -16.5t-31 -58.5q-4 -15 -12 -19t-14 -4q-11 0 -18 7.5t-7 17.5v4.5t2 9.5q13 57 47.5 83t83.5 26q54 0 89 -33t35 -92q0 -16 -2.5 -30.5t-9 -29.5t-19.5 -31.5t-34 -36.5q-15 -14 -24 -24
t-14.5 -20.5t-7 -23.5t-1.5 -34q0 -17 -9 -22t-15 -5t-15 5t-9 22z" />
    <glyph glyph-name=".null" horiz-adv-x="490" 
 />
    <glyph glyph-name=".null" horiz-adv-x="490" 
 />
    <glyph glyph-name="nonmarkingreturn" unicode="&#xd;" horiz-adv-x="0" 
 />
    <glyph glyph-name="space" unicode=" " horiz-adv-x="250" 
 />
    <glyph glyph-name="exclam" unicode="!" horiz-adv-x="357" 
d="M276 85q0 -20 -7.5 -37.5t-21 -30t-31.5 -20t-38 -7.5t-37.5 7t-30.5 20t-21 30t-8 37q0 19 7.5 36.5t20.5 30.5t31 20.5t38 7.5t38 -7.5t31.5 -20t21 -30t7.5 -36.5zM94 624q0 30 9.5 48.5t22.5 28.5t27.5 13.5t24.5 3.5t24.5 -3.5t27.5 -13.5t22.5 -28.5t9.5 -48.5
v-303q0 -30 -9.5 -48.5t-22.5 -28.5t-27.5 -13.5t-24.5 -3.5t-24.5 3.5t-27.5 13.5t-22.5 28.5t-9.5 48.5v303z" />
    <glyph glyph-name="quotedbl" unicode="&#x22;" horiz-adv-x="498" 
d="M86 645q0 23 7 37.5t17.5 22.5t21.5 10.5t19 2.5t19 -2.5t21.5 -10.5t17.5 -22.5t7 -37.5v-145q0 -23 -7 -37.5t-17.5 -22.5t-21.5 -10.5t-19 -2.5t-19 2.5t-21.5 10.5t-17.5 22.5t-7 37.5v145zM281 645q0 23 7 37.5t17.5 22.5t21.5 10.5t19 2.5t19 -2.5t21.5 -10.5
t17.5 -22.5t7 -37.5v-145q0 -23 -7 -37.5t-17.5 -22.5t-21.5 -10.5t-19 -2.5t-19 2.5t-21.5 10.5t-17.5 22.5t-7 37.5v145z" />
    <glyph glyph-name="numbersign" unicode="#" horiz-adv-x="603" 
d="M269 404l-13 -100h78l14 100h-79zM408 44q-5 -32 -22 -43t-34 -11q-25 0 -39 15.5t-14 37.5q0 4 0.5 11.5t1.5 12.5l19 133h-79l-23 -156q-5 -32 -22 -43t-34 -11q-25 0 -39 15.5t-14 37.5q0 4 0.5 11.5t1.5 12.5l20 133h-38q-18 0 -29.5 5.5t-17.5 14t-8 17.5t-2 15
t2 15t8 17.5t17.5 14t29.5 5.5h52l15 100h-38q-18 0 -29.5 5.5t-17.5 14t-8 17.5t-2 15t2 15t8 17.5t17.5 14t29.5 5.5h51l23 156q5 32 22 43t34 11q25 0 39 -15.5t14 -37.5q0 -4 -0.5 -11.5t-1.5 -12.5l-19 -133h78l23 156q5 32 22 43t34 11q25 0 39 -15.5t14 -37.5
q0 -4 -0.5 -11.5t-1.5 -12.5l-19 -133h37q18 0 29.5 -5.5t17.5 -14t8 -17.5t2 -15t-2 -15t-8 -17.5t-17.5 -14t-29.5 -5.5h-52l-14 -100h38q18 0 29.5 -5.5t17.5 -14t8 -17.5t2 -15t-2 -15t-8 -17.5t-17.5 -14t-29.5 -5.5h-51z" />
    <glyph glyph-name="dollar" unicode="$" horiz-adv-x="646" 
d="M287 589q-27 -3 -48.5 -20.5t-21.5 -50.5q0 -32 19 -49t51 -25v145zM356 122q34 2 53.5 22.5t19.5 55.5t-20.5 52.5t-52.5 27.5v-158zM283 -10q-46 2 -93 13t-86 34q-20 12 -32 28t-12 38q0 30 20.5 51t50.5 21q14 0 27 -5.5t27 -13.5q23 -14 48.5 -23t48.5 -10v175
q-43 12 -82.5 27t-69.5 39t-48 58.5t-18 84.5q0 49 20 87.5t52 65t72 41t79 16.5v37q0 27 14 34.5t23 7.5q4 0 10 -1.5t12 -6t10 -13t4 -21.5v-36q40 -1 84.5 -11t75.5 -27q20 -11 31 -27t11 -36q0 -29 -20 -49t-49 -20q-20 0 -49 16q-17 10 -40 16t-44 7v-160
q39 -12 79 -27t73 -40t54 -61t21 -90q0 -55 -19.5 -95.5t-52 -67.5t-74 -41t-85.5 -15v-41q0 -14 -4 -22t-10 -12.5t-12 -6t-10 -1.5q-9 0 -23 7.5t-14 34.5v41z" />
    <glyph glyph-name="percent" unicode="%" horiz-adv-x="911" 
d="M889 177q0 -39 -15 -73.5t-40.5 -60t-60.5 -40.5t-74 -15t-74 15t-60.5 40.5t-40.5 60t-15 73.5t15 73.5t40.5 60t60.5 40.5t74 15t74 -15t60.5 -40.5t40.5 -60t15 -73.5zM777 177q0 16 -6.5 30.5t-17 25t-24.5 16.5t-30 6q-32 0 -55 -23t-23 -55t23 -54.5t55 -22.5
q16 0 30 6t24.5 16.5t17 24.5t6.5 30zM409 531q0 -39 -15 -73.5t-40.5 -60t-60.5 -40.5t-74 -15t-74 15t-60.5 40.5t-40.5 60t-15 73.5q0 40 15 74.5t40.5 60t60.5 40t74 14.5t74 -14.5t60.5 -40t40.5 -60t15 -74.5zM297 531q0 32 -23 55t-55 23t-55 -23t-23 -55t23 -54.5
t55 -22.5t55 22.5t23 54.5zM319 3q-13 -22 -25 -28t-24 -6q-20 0 -35.5 13.5t-15.5 34.5q0 6 1.5 15t9.5 22l367 645q13 22 25 28t24 6q20 0 35.5 -13.5t15.5 -34.5q0 -6 -1.5 -15t-9.5 -22z" />
    <glyph glyph-name="ampersand" unicode="&#x26;" horiz-adv-x="781" 
d="M522 86q-50 -59 -104.5 -79.5t-118.5 -20.5q-48 0 -94 12.5t-81.5 39t-57 66t-21.5 93.5q0 63 34.5 110.5t109.5 84.5q-36 37 -52.5 75t-16.5 80q0 48 20 82t51.5 56t71 32t78.5 10q40 0 79 -10.5t69.5 -32.5t49 -56t18.5 -81q0 -54 -31 -97.5t-104 -84.5l90 -80l58 72
q16 20 31.5 27t29.5 7q32 0 51.5 -19.5t19.5 -50.5q0 -9 -3.5 -22t-17.5 -28l-66 -77l82 -72q20 -17 25.5 -32t5.5 -27q0 -31 -20.5 -52t-52.5 -21q-17 0 -31 7.5t-27 19.5zM305 115q13 0 26 1.5t27 8t30 18.5t35 33l-136 126q-23 -12 -38 -22.5t-24 -22t-12.5 -24.5
t-3.5 -29q0 -21 8.5 -37.5t22 -28t30.5 -17.5t35 -6zM275 542q0 -23 12 -45.5t40 -48.5q49 24 66 46.5t17 47.5q0 27 -18 46t-49 19q-29 0 -48.5 -18.5t-19.5 -46.5z" />
    <glyph glyph-name="quotesingle" unicode="'" horiz-adv-x="303" 
d="M86 645q0 23 7 37.5t17.5 22.5t21.5 10.5t19 2.5t19 -2.5t21.5 -10.5t17.5 -22.5t7 -37.5v-145q0 -23 -7 -37.5t-17.5 -22.5t-21.5 -10.5t-19 -2.5t-19 2.5t-21.5 10.5t-17.5 22.5t-7 37.5v145z" />
    <glyph glyph-name="parenleft" unicode="(" horiz-adv-x="342" 
d="M29 288q0 106 29.5 211.5t84.5 193.5q17 26 32 33t28 7q26 0 43.5 -16.5t17.5 -42.5q0 -8 -2 -18t-10 -23q-46 -78 -70 -165t-24 -180t24 -180t70 -165q8 -13 10 -23t2 -18q0 -26 -17.5 -42.5t-43.5 -16.5q-13 0 -28 7t-32 33q-55 88 -84.5 193.5t-29.5 211.5z" />
    <glyph glyph-name="parenright" unicode=")" horiz-adv-x="342" 
d="M313 288q0 -106 -29.5 -211.5t-84.5 -193.5q-17 -26 -32 -33t-28 -7q-26 0 -43.5 16.5t-17.5 42.5q0 8 2 18t10 23q46 78 70 165t24 180t-24 180t-70 165q-8 13 -10 23t-2 18q0 26 17.5 42.5t43.5 16.5q13 0 28 -7t32 -33q55 -88 84.5 -193.5t29.5 -211.5z" />
    <glyph glyph-name="asterisk" unicode="*" horiz-adv-x="489" 
d="M243 417l-48 -64q-21 -28 -47 -28q-23 0 -38.5 14.5t-15.5 37.5q0 8 2.5 17.5t11.5 21.5l49 63l-81 27q-42 13 -42 50q0 25 15 39.5t37 14.5q5 0 11.5 -1t14.5 -4l78 -27v79q0 19 6 31t14.5 19t18 9t16.5 2t16.5 -2t18 -9t14.5 -19t6 -31v-79l77 24q10 3 15.5 4t10.5 1
q22 0 37 -14.5t15 -39.5q0 -14 -8 -28t-34 -22l-80 -25l49 -65q9 -12 11.5 -21.5t2.5 -17.5q0 -23 -16 -37.5t-39 -14.5q-26 0 -47 28z" />
    <glyph glyph-name="plus" unicode="+" horiz-adv-x="666" 
d="M550 366q22 0 36 -7t22 -17t10.5 -21t2.5 -18q0 -8 -2.5 -18.5t-10.5 -20.5t-22 -17t-36 -7h-151v-146q0 -23 -7 -37.5t-17.5 -22.5t-21.5 -10.5t-19 -2.5t-19 2.5t-21.5 10.5t-17.5 22.5t-7 37.5v146h-152q-23 0 -36.5 7t-21.5 17t-10.5 20.5t-2.5 18.5q0 7 2.5 18
t10.5 21t21.5 17t36.5 7h151v146q0 23 7 37.5t17.5 22.5t21.5 10.5t19 2.5t19 -2.5t21.5 -10.5t17.5 -22.5t7 -37.5v-146h152z" />
    <glyph glyph-name="comma" unicode="," 
d="M182 -65q-7 -23 -16.5 -36.5t-19.5 -21t-20.5 -9.5t-20.5 -2q-30 0 -50.5 18.5t-20.5 50.5q0 5 1 15.5t6 26.5l34 123q6 24 16 37.5t21 21t22 9.5t20 2q30 0 52 -19.5t22 -50.5q0 -5 -1 -16t-6 -26z" />
    <glyph glyph-name="hyphen" unicode="-" horiz-adv-x="326" 
d="M99 197q-23 0 -37.5 7t-22.5 17.5t-10.5 21.5t-2.5 19t2.5 19t10.5 21.5t22.5 17.5t37.5 7h128q23 0 37.5 -7t22.5 -17.5t10.5 -21.5t2.5 -19t-2.5 -19t-10.5 -21.5t-22.5 -17.5t-37.5 -7h-128z" />
    <glyph glyph-name="period" unicode="." 
d="M251 88q0 -42 -29.5 -70t-70.5 -28q-21 0 -39.5 7.5t-32.5 20.5t-22 30.5t-8 38.5q0 20 8 38t22 31.5t32.5 21.5t39.5 8q41 0 70.5 -28t29.5 -70z" />
    <glyph glyph-name="slash" unicode="/" horiz-adv-x="415" 
d="M282 711q10 25 25 34.5t33 9.5q25 0 42 -16t17 -42q0 -8 -2 -15.5t-4 -13.5l-267 -670q-10 -25 -25 -34.5t-33 -9.5q-25 0 -42 16t-17 42q0 8 2 15.5t4 13.5z" />
    <glyph glyph-name="zero" unicode="0" horiz-adv-x="646" 
d="M600 356q0 -75 -15 -143t-48 -119.5t-85.5 -82t-127.5 -30.5t-128 30.5t-86.5 82t-48.5 119.5t-15 143t15 142.5t48.5 118t86.5 80.5t128 30t127.5 -30t85.5 -80.5t48 -118t15 -142.5zM428 356q0 33 -4 73t-15 74.5t-31.5 58t-53.5 23.5t-54 -23.5t-32.5 -58t-15.5 -74.5
t-4 -73q0 -34 4 -74.5t15.5 -75t32.5 -58t54 -23.5t53.5 23.5t31.5 58t15 75t4 74.5z" />
    <glyph glyph-name="one" unicode="1" horiz-adv-x="646" 
d="M270 688q24 17 43 23.5t34 6.5q13 0 31 -4t34.5 -16.5t27.5 -35.5t11 -62v-516q0 -30 -9.5 -48.5t-22.5 -28.5t-27.5 -13.5t-24.5 -3.5t-24.5 3.5t-27.5 13.5t-22.5 28.5t-9.5 48.5v436l-76 -59q-14 -11 -27.5 -15t-24.5 -4q-30 0 -50.5 20.5t-20.5 52.5q0 17 9 33.5
t32 33.5z" />
    <glyph glyph-name="two" unicode="2" horiz-adv-x="646" 
d="M165 0q-35 0 -56.5 8.5t-32.5 21t-14.5 26.5t-3.5 24t2 21t8 23t17 26.5t30 31.5l229 208q26 24 42 50.5t16 58.5q0 38 -24 61.5t-64 23.5q-30 0 -51.5 -14.5t-35.5 -38.5q-12 -22 -32.5 -38.5t-46.5 -16.5q-34 0 -55 22t-21 54q0 13 4.5 26.5t9.5 22.5q35 59 97 92.5
t140 33.5q49 0 95 -13t82 -40t57.5 -68t21.5 -96q0 -38 -10 -68.5t-27.5 -56.5t-40 -48.5t-46.5 -44.5l-164 -146h218q26 0 42 -8t24.5 -19.5t11.5 -24t3 -21.5t-3 -21.5t-11.5 -24t-24.5 -19.5t-42 -8h-344z" />
    <glyph glyph-name="three" unicode="3" horiz-adv-x="646" 
d="M285 301q-24 0 -38.5 7t-22.5 17.5t-10.5 22t-2.5 19.5t2.5 19t10.5 21.5t22.5 17.5t38.5 7q31 0 52.5 6.5t34 18t18 26t5.5 29.5q0 38 -27 58t-62 20q-26 0 -45.5 -10.5t-38.5 -33.5q-11 -14 -26.5 -23.5t-38.5 -9.5q-31 0 -52.5 20t-21.5 51q0 17 6.5 32t22.5 32
q35 38 89.5 58.5t115.5 20.5q47 0 91.5 -12t79.5 -37t56.5 -62.5t21.5 -88.5q0 -59 -33.5 -99.5t-85.5 -54.5v-3q30 -7 55 -22.5t43 -37t28 -48t10 -56.5q0 -58 -23.5 -100.5t-61.5 -70t-85.5 -41t-96.5 -13.5q-68 0 -123.5 19.5t-96.5 59.5q-33 33 -33 70q0 32 22.5 53.5
t53.5 21.5q20 0 35.5 -9.5t38.5 -32.5q22 -22 44.5 -31.5t50.5 -9.5q18 0 36.5 5t33 15.5t24 27.5t9.5 42q0 38 -31 63.5t-95 25.5z" />
    <glyph glyph-name="four" unicode="4" horiz-adv-x="646" 
d="M359 513h-3l-168 -239h171v239zM296 648q17 23 32.5 37t29.5 21.5t26.5 9.5t23.5 2q13 0 31 -4t34.5 -17.5t28.5 -38t12 -65.5v-319h35q26 0 41.5 -7.5t24 -18.5t11 -22.5t2.5 -19.5t-2.5 -19.5t-11 -22.5t-24 -18.5t-41.5 -7.5h-34v-60q0 -28 -8.5 -45.5t-21 -27
t-26 -12.5t-22.5 -3q-10 0 -23.5 3t-26 12.5t-21 27t-8.5 45.5v60h-239q-33 0 -53.5 10t-32 24.5t-15 29.5t-3.5 25q0 14 5 33t22 42z" />
    <glyph glyph-name="five" unicode="5" horiz-adv-x="646" 
d="M108 618q2 46 23.5 68t67.5 22h276q26 0 42 -8t24.5 -19t11.5 -23.5t3 -21.5t-3 -21.5t-11.5 -23.5t-24.5 -19t-42 -8h-214l-6 -112q16 4 35.5 5.5t35.5 1.5q53 0 100 -14t81.5 -42.5t54.5 -70.5t20 -98q0 -65 -23 -112.5t-61.5 -78.5t-87.5 -46.5t-101 -15.5
q-65 0 -120 22t-90 58q-12 13 -20 30t-8 34q0 32 22.5 53.5t55.5 21.5q15 0 30 -6.5t38 -31.5q17 -17 39.5 -28t50.5 -11q43 0 74.5 26t31.5 77q0 31 -13 52t-33.5 33.5t-46.5 17.5t-52 5q-23 0 -39.5 -2t-29.5 -4q-11 -2 -20 -3.5t-18 -1.5q-7 0 -18 2t-21 9.5t-17 22
t-6 39.5z" />
    <glyph glyph-name="six" unicode="6" horiz-adv-x="646" 
d="M433 234q0 48 -30 79.5t-80 31.5t-81 -31t-31 -81q0 -46 30 -79t81 -33q50 0 80.5 31t30.5 82zM283 671q20 28 39.5 37.5t37.5 9.5q34 0 57.5 -20.5t23.5 -55.5q0 -12 -4.5 -29t-21.5 -37l-93 -115h3q21 8 47 8q46 0 88 -16.5t73 -47t49.5 -73t18.5 -94.5q0 -60 -22 -108
t-60 -81t-89 -50.5t-108 -17.5q-58 0 -108.5 17.5t-88.5 50.5t-60 80t-22 105q0 63 22.5 118.5t56.5 100.5z" />
    <glyph glyph-name="seven" unicode="7" horiz-adv-x="646" 
d="M398 564h-264q-26 0 -42 8t-24.5 19t-11.5 23.5t-3 21.5t3 21.5t11.5 23.5t24.5 19t42 8h350q34 0 54.5 -10t31 -23.5t14 -27.5t3.5 -21q0 -13 -2.5 -27t-11.5 -33l-254 -518q-17 -35 -40.5 -46.5t-42.5 -11.5q-34 0 -59.5 22t-25.5 62q0 10 3 23t12 30z" />
    <glyph glyph-name="eight" unicode="8" horiz-adv-x="646" 
d="M589 202q0 -56 -22 -97.5t-58.5 -69t-85 -41t-100.5 -13.5q-53 0 -101 13.5t-84.5 40.5t-58.5 68.5t-22 97.5q0 32 10 59.5t27.5 49t40.5 37t49 23.5v2q-46 17 -77 55.5t-31 97.5q0 49 20 87t54 63.5t79 38.5t94 13t93.5 -12.5t78.5 -37.5t54.5 -62.5t20.5 -86.5
q0 -59 -30 -99t-78 -56v-3q27 -8 50 -23.5t40 -37t27 -49t10 -58.5zM408 516q0 35 -25 58t-60 23q-38 0 -61 -23t-23 -58q0 -34 22.5 -59t61.5 -25q37 0 61 25t24 59zM421 208q0 41 -27.5 68.5t-70.5 27.5q-44 0 -71.5 -27t-27.5 -69q0 -43 27.5 -68.5t71.5 -25.5t71 25.5
t27 68.5z" />
    <glyph glyph-name="nine" unicode="9" horiz-adv-x="646" 
d="M212 475q0 -48 30 -79.5t80 -31.5t81 31t31 81q0 23 -8 43.5t-22.5 36t-35 24.5t-45.5 9q-50 0 -80.5 -31.5t-30.5 -82.5zM362 37q-20 -28 -39.5 -37.5t-37.5 -9.5q-34 0 -57.5 20.5t-23.5 55.5q0 12 4.5 29t21.5 37l93 115h-3q-21 -8 -47 -8q-47 0 -88.5 16.5t-72.5 47
t-49.5 73t-18.5 94.5q0 60 22 108t60 81t89 50.5t108 17.5q58 0 108.5 -17.5t88.5 -50.5t60 -80t22 -105q0 -63 -22.5 -118.5t-56.5 -100.5z" />
    <glyph glyph-name="colon" unicode=":" horiz-adv-x="332" 
d="M264 410q0 -20 -8 -37.5t-21 -30.5t-31 -20.5t-37 -7.5q-20 0 -38 7t-31.5 20t-21.5 30t-8 37t8 37.5t21.5 30.5t31.5 20.5t38 7.5q19 0 37 -7.5t31 -20t21 -30t8 -36.5zM264 89q0 -20 -8 -37.5t-21 -30t-31 -20t-37 -7.5q-20 0 -38 7t-31.5 20t-21.5 30t-8 37t8 37.5
t21.5 30.5t31.5 20.5t38 7.5q19 0 37 -7.5t31 -20t21 -30t8 -37.5z" />
    <glyph glyph-name="semicolon" unicode=";" horiz-adv-x="332" 
d="M264 410q0 -40 -28.5 -67.5t-68.5 -27.5q-20 0 -37.5 7t-31 20t-21.5 30t-8 37t7.5 37.5t21 30.5t31.5 20.5t38 7.5q19 0 37 -7.5t31 -20t21 -30t8 -37.5zM195 -65q-7 -23 -16.5 -36.5t-19.5 -21t-20.5 -9.5t-20.5 -2q-30 0 -50.5 18.5t-20.5 50.5q0 5 1 15.5t6 26.5
l34 123q6 24 16 37.5t21 21t22 9.5t20 2q30 0 52 -19.5t22 -50.5q0 -5 -1 -16t-6 -26z" />
    <glyph glyph-name="less" unicode="&#x3c;" horiz-adv-x="666" 
d="M281 301l271 -112q28 -11 36.5 -28t8.5 -32q0 -29 -18 -46t-45 -17q-16 0 -35 8l-382 161q-30 13 -39 32t-9 36q0 16 9 35t39 32l382 161q19 8 35 8q27 0 45 -17t18 -46q0 -15 -8.5 -32t-36.5 -28z" />
    <glyph glyph-name="equal" unicode="=" horiz-adv-x="666" 
d="M539 273q22 0 35.5 -7t21 -16.5t10 -20t2.5 -17.5q0 -8 -2.5 -18.5t-10 -20t-21 -16.5t-35.5 -7h-412q-22 0 -35.5 7t-21 16.5t-10 20t-2.5 18.5q0 7 2.5 17.5t10 20t21 16.5t35.5 7h412zM539 458q22 0 35.5 -7t21 -16.5t10 -20t2.5 -17.5q0 -8 -2.5 -18.5t-10 -20
t-21 -16.5t-35.5 -7h-412q-22 0 -35.5 7t-21 16.5t-10 20t-2.5 18.5q0 7 2.5 17.5t10 20t21 16.5t35.5 7h412z" />
    <glyph glyph-name="greater" unicode="&#x3e;" horiz-adv-x="666" 
d="M114 416q-28 11 -36.5 28t-8.5 32q0 29 18 46t45 17q16 0 35 -8l382 -161q30 -13 39 -32t9 -35q0 -17 -9 -36t-39 -32l-382 -161q-19 -8 -35 -8q-27 0 -45 17t-18 46q0 15 8.5 32t36.5 28l271 112z" />
    <glyph glyph-name="question" unicode="?" horiz-adv-x="546" 
d="M381 85q0 -40 -28 -67.5t-69 -27.5q-20 0 -37.5 7t-31 20t-21.5 30t-8 37q0 19 7.5 36.5t21 30.5t31.5 20.5t38 7.5t37.5 -7.5t31 -20t21 -30t7.5 -36.5zM211 541q-16 -30 -34 -41.5t-41 -11.5q-34 0 -55.5 21.5t-21.5 54.5q0 8 2 22t13 31q33 54 90 82t127 28
q45 0 87.5 -11.5t75.5 -36t53 -62.5t20 -90q0 -33 -8 -58t-22.5 -46t-35 -39.5t-46.5 -38.5q-23 -19 -33 -31.5t-18 -35.5q-14 -42 -37 -53.5t-43 -11.5q-10 0 -23.5 3.5t-25.5 12t-20.5 23.5t-8.5 39q0 32 20.5 60t57.5 63l33 31q19 17 30 32.5t11 38.5q0 32 -19.5 51
t-53.5 19q-26 0 -44.5 -12t-29.5 -33z" />
    <glyph glyph-name="at" unicode="@" horiz-adv-x="800" 
d="M465 379q0 15 -2.5 29t-8.5 25t-17 17.5t-28 6.5q-19 0 -34 -11.5t-26 -30t-17 -41.5t-6 -45q0 -25 11.5 -47.5t43.5 -22.5q22 0 38 11.5t26 29.5t15 39t5 40zM495 500q7 27 22.5 35.5t29.5 8.5q23 0 38 -13t15 -37q0 -6 -0.5 -10.5t-1.5 -9.5l-19 -97q-5 -24 -9 -46
t-4 -37q0 -14 6 -25t23 -11q30 0 53.5 34.5t23.5 104.5q0 58 -19 102.5t-53.5 74.5t-82 45.5t-104.5 15.5q-61 0 -111.5 -21.5t-86.5 -59t-56 -89.5t-20 -112q0 -64 21 -115t59.5 -87t91 -55.5t115.5 -19.5q60 0 107 15.5t92 44.5q19 12 35 12q20 0 33 -13.5t13 -33.5
q0 -11 -6 -21.5t-21 -21.5q-57 -40 -123 -58t-141 -18q-85 0 -156 27.5t-122 76.5t-79.5 117.5t-28.5 149.5q0 80 30.5 148t82.5 118t122 78.5t150 28.5q70 0 135.5 -20.5t115 -61.5t79.5 -101.5t30 -141.5q0 -57 -15.5 -102t-43.5 -76t-65.5 -47t-80.5 -16
q-40 0 -65.5 17.5t-29.5 46.5h-4q-14 -23 -44 -43.5t-75 -20.5q-34 0 -60.5 12.5t-45 35t-28.5 53.5t-10 68q0 42 13.5 82.5t39 72t60.5 51t79 19.5q38 0 63 -16t32 -38h1z" />
    <glyph glyph-name="A" unicode="A" horiz-adv-x="729" 
d="M515 139h-305l-35 -85q-17 -40 -40.5 -52t-43.5 -12q-33 0 -58 21.5t-25 60.5q0 10 2 21t9 27l234 514q12 27 26.5 43.5t29.5 25.5t29.5 12t27.5 3t27.5 -2.5t29 -11.5t29 -25.5t26.5 -44.5l232 -512q6 -14 8 -26t2 -20q0 -42 -26 -64t-59 -22q-21 0 -45.5 12t-40.5 53z
M266 276h193l-96 235z" />
    <glyph glyph-name="B" unicode="B" horiz-adv-x="665" 
d="M431 503q0 36 -27.5 52.5t-81.5 16.5h-84v-146h92q48 0 74.5 19.5t26.5 57.5zM454 222q0 44 -33 61t-88 17h-95v-162h96q20 0 41.5 3.5t39 12.5t28.5 25.5t11 42.5zM355 708q41 0 84 -8.5t78 -29t57 -55.5t22 -89q0 -59 -32 -97.5t-84 -55.5v-2q30 -5 56.5 -18.5
t46 -34.5t31 -49t11.5 -63q0 -58 -23 -97.5t-61 -63.5t-86.5 -34.5t-99.5 -10.5h-184q-98 0 -98 98v512q0 98 98 98h184z" />
    <glyph glyph-name="C" unicode="C" horiz-adv-x="696" 
d="M522 548q-17 11 -40 17.5t-52 6.5q-45 0 -82.5 -16.5t-64.5 -45.5t-42 -68.5t-15 -86.5q0 -48 15 -88t41.5 -68.5t63.5 -44.5t81 -16q29 0 52 6t50 25q22 15 35 19t25 4q31 0 53.5 -21t22.5 -56q0 -16 -8 -34.5t-31 -36.5q-15 -12 -36.5 -23.5t-48 -20t-57 -14
t-63.5 -5.5q-82 0 -151.5 27t-120.5 76.5t-80 118.5t-29 152q0 85 29.5 154t81.5 117.5t122 74.5t151 26q28 0 56.5 -4t54 -11t47 -16t35.5 -19q27 -20 34 -38.5t7 -34.5q0 -33 -22.5 -55t-55.5 -22q-12 0 -25 4t-33 17z" />
    <glyph glyph-name="D" unicode="D" horiz-adv-x="774" 
d="M556 356q0 60 -19.5 99.5t-52 63t-74 33.5t-85.5 10h-85v-414h81q46 0 88.5 10.5t75 34.5t52 64t19.5 99zM171 0q-98 0 -98 98v512q0 98 98 98h158q75 0 148 -17.5t130 -58t92 -108.5t35 -168q0 -93 -34.5 -160.5t-91 -111t-127.5 -64t-144 -20.5h-166z" />
    <glyph glyph-name="E" unicode="E" horiz-adv-x="607" 
d="M463 430q26 0 41.5 -7.5t24 -18.5t11 -22.5t2.5 -19.5t-2.5 -20t-11 -23t-24 -18.5t-41.5 -7.5h-225v-147h258q26 0 42 -8t24.5 -19.5t11.5 -24t3 -21.5t-3 -21.5t-11.5 -24t-24.5 -19.5t-42 -8h-325q-98 0 -98 98v512q0 98 98 98h307q26 0 42 -8t24.5 -19.5t11.5 -23.5
t3 -21t-3 -21.5t-11.5 -24t-24.5 -19.5t-42 -8h-240v-133h225z" />
    <glyph glyph-name="F" unicode="F" horiz-adv-x="576" 
d="M242 275v-190q0 -30 -9 -48.5t-22 -29t-27.5 -14t-25.5 -3.5t-26 3.5t-28 14t-22 29t-9 48.5v525q0 98 98 98h297q26 0 42 -8t24.5 -19.5t11.5 -24t3 -21.5t-3 -21.5t-11.5 -24t-24.5 -19.5t-42 -8h-226v-146h205q25 0 41 -8t24 -19t11 -23t3 -20q0 -9 -3 -21t-11 -23
t-24 -19t-41 -8h-205z" />
    <glyph glyph-name="G" unicode="G" horiz-adv-x="769" 
d="M702 115q0 -42 -18 -67t-59 -37q-40 -12 -86.5 -20.5t-109.5 -8.5q-85 0 -156.5 27t-123 76t-80.5 117.5t-29 152.5q0 85 29.5 154t81.5 117.5t122 74.5t151 26q69 0 121 -14.5t83 -34.5q28 -18 36.5 -36.5t8.5 -35.5q0 -34 -21.5 -56.5t-53.5 -22.5q-24 0 -54 17
q-15 8 -44.5 20t-72.5 12q-44 0 -81.5 -16.5t-65 -46t-43 -70t-15.5 -88.5q0 -49 14 -90t41.5 -70.5t68 -46t92.5 -16.5q30 0 57 4.5t50 14.5v129h-68q-25 0 -40 7.5t-23.5 18.5t-11 23t-2.5 20t2.5 20t11 23t23.5 18.5t40 7.5h131q94 0 94 -94v-209z" />
    <glyph glyph-name="H" unicode="H" horiz-adv-x="764" 
d="M73 622q0 31 9.5 49.5t23 29t28 14t25.5 3.5q10 0 24.5 -3.5t28 -14t23 -29t9.5 -49.5v-182h276v182q0 31 9.5 49.5t23 29t28 14t25.5 3.5q10 0 24.5 -3.5t28 -14t23 -29t9.5 -49.5v-536q0 -31 -9.5 -49.5t-23 -29t-28 -14t-24.5 -3.5q-11 0 -25.5 3.5t-28 14t-23 29
t-9.5 49.5v210h-276v-210q0 -31 -9.5 -49.5t-23 -29t-28 -14t-24.5 -3.5q-11 0 -25.5 3.5t-28 14t-23 29t-9.5 49.5v536z" />
    <glyph glyph-name="I" unicode="I" horiz-adv-x="318" 
d="M73 622q0 31 9.5 49.5t23 29t28 14t25.5 3.5q10 0 25 -3.5t28.5 -14t23 -29t9.5 -49.5v-536q0 -31 -9.5 -49.5t-23 -29t-28.5 -14t-25 -3.5q-11 0 -25.5 3.5t-28 14t-23 29t-9.5 49.5v536z" />
    <glyph glyph-name="J" unicode="J" horiz-adv-x="529" 
d="M288 622q0 31 9.5 49.5t23 29t28 14t25.5 3.5q10 0 25 -3.5t28.5 -14t23 -29t9.5 -49.5v-380q0 -42 -9.5 -88t-35 -84.5t-71 -63.5t-117.5 -25q-60 0 -101 18.5t-66 43.5q-15 15 -25.5 34t-10.5 42q0 32 22 53t56 21q19 0 33.5 -7.5t35.5 -29.5q11 -11 24.5 -15.5
t23.5 -4.5q42 0 55.5 29t13.5 76v381z" />
    <glyph glyph-name="K" unicode="K" horiz-adv-x="711" 
d="M513 686q18 18 35 25t33 7q34 0 56.5 -21.5t22.5 -54.5q0 -14 -6.5 -32t-28.5 -38l-211 -190l241 -238q19 -19 26.5 -35.5t7.5 -33.5q0 -37 -24 -61t-62 -24q-16 0 -34 7.5t-37 27.5l-289 301h-2v-242q0 -30 -9.5 -48.5t-22.5 -28.5t-27.5 -13.5t-24.5 -3.5t-24.5 3.5
t-27.5 13.5t-22.5 28.5t-9.5 48.5v540q0 30 9.5 48.5t22.5 28.5t27.5 13.5t24.5 3.5t24.5 -3.5t27.5 -13.5t22.5 -28.5t9.5 -48.5v-204h3z" />
    <glyph glyph-name="L" unicode="L" horiz-adv-x="526" 
d="M171 0q-98 0 -98 98v524q0 31 9.5 49.5t23 29t28 14t25.5 3.5q10 0 25 -3.5t28.5 -14t23 -29t9.5 -49.5v-473h200q27 0 43.5 -8.5t25.5 -20t12 -24t3 -21.5t-3 -22t-12 -24.5t-25.5 -20t-43.5 -8.5h-274z" />
    <glyph glyph-name="M" unicode="M" horiz-adv-x="955" 
d="M664 619q15 34 30.5 53.5t30.5 29.5t29 13t26 3q13 0 30.5 -4t33.5 -16.5t27 -35t11 -59.5v-520q0 -30 -9 -48.5t-22 -28t-27.5 -13t-24.5 -3.5t-24.5 3.5t-27.5 13t-22 28t-9 48.5l3 326h-3l-149 -340q-11 -26 -23 -42t-24 -24t-24 -10.5t-24 -2.5t-24 2.5t-24 11
t-24 24t-23 41.5l-143 340h-3l2 -329q0 -29 -9 -46.5t-21.5 -27.5t-26 -13t-23.5 -3t-23.5 3t-26 13t-21.5 27.5t-9 46.5v523q0 37 11.5 59.5t28 35t34 16.5t30.5 4q12 0 26.5 -3t29.5 -13t30.5 -29.5t30.5 -53.5l183 -427h4z" />
    <glyph glyph-name="N" unicode="N" horiz-adv-x="790" 
d="M238 447h-3l3 -365q0 -30 -9 -48t-22 -27.5t-27.5 -13t-24.5 -3.5t-24 3.5t-27 13t-22 27.5t-9 48v519q0 37 11.5 60t28 36t33.5 17t29 4q28 0 54.5 -14t53.5 -53l269 -389h3l-3 364q0 30 9 48t21.5 27.5t27 13t24.5 3.5t24.5 -3.5t27.5 -13t22 -27.5t9 -48v-519
q0 -38 -11.5 -60.5t-28 -35.5t-33.5 -17t-29 -4q-28 0 -54.5 14t-53.5 53z" />
    <glyph glyph-name="O" unicode="O" horiz-adv-x="851" 
d="M811 357q0 -84 -29 -153.5t-80.5 -119t-122.5 -76.5t-154 -27t-153.5 27t-122 76.5t-80.5 119t-29 153.5q0 85 29 153.5t80.5 116.5t122 74t153.5 26t154 -26t122.5 -74t80.5 -116.5t29 -153.5zM628 357q0 46 -15 86t-41.5 68.5t-64 45t-82.5 16.5t-82 -16.5t-64 -45
t-41.5 -68.5t-14.5 -86q0 -48 15 -88.5t41.5 -69.5t63.5 -45.5t82 -16.5t82 16.5t64 45.5t42 69.5t15 88.5z" />
    <glyph glyph-name="P" unicode="P" horiz-adv-x="640" 
d="M439 489q0 25 -10 41t-27 25t-38.5 12t-44.5 3h-75v-167h72q24 0 46 4t39.5 14t27.5 26.5t10 41.5zM73 610q0 98 98 98h162q58 0 108.5 -11.5t88 -37t59 -67t21.5 -102.5q0 -62 -23 -104.5t-62 -68.5t-90 -38t-106 -12h-85v-181q0 -31 -9.5 -49.5t-23 -29t-28 -14
t-24.5 -3.5q-11 0 -25.5 3.5t-28 14t-23 29t-9.5 49.5v524z" />
    <glyph glyph-name="Q" unicode="Q" horiz-adv-x="857" 
d="M620 361q0 46 -14.5 85t-41 67t-63.5 43.5t-81 15.5q-43 0 -79.5 -15.5t-63.5 -43.5t-42 -67t-15 -85q0 -48 14.5 -87.5t41 -68t63 -44t80.5 -15.5q43 0 80 15.5t64 44t42 68t15 87.5zM414 0q-84 0 -154 24t-119.5 70.5t-77 114t-27.5 154.5q0 81 29 148t80.5 115
t122 74.5t152.5 26.5t152 -26.5t121 -74t79.5 -114t28.5 -146.5q0 -41 -9 -76.5t-24 -64.5t-34 -51.5t-38 -37.5v-2h84q24 0 38.5 -7.5t23 -18t11 -22t2.5 -19.5t-2.5 -19.5t-11 -22t-23 -18t-38.5 -7.5h-366z" />
    <glyph glyph-name="R" unicode="R" horiz-adv-x="663" 
d="M445 491q0 25 -10.5 40.5t-27 24t-37 11.5t-39.5 3h-91v-165h81q21 0 43 3.5t40 12.5t29.5 26t11.5 44zM302 281h-61v-197q0 -30 -9.5 -48.5t-22.5 -28.5t-27.5 -13.5t-24.5 -3.5t-24.5 3.5t-27.5 13.5t-22.5 28.5t-9.5 48.5v526q0 98 98 98h172q74 0 125.5 -17t84 -46
t47 -68t14.5 -83q0 -72 -38.5 -120.5t-105.5 -69.5l131 -175q12 -17 17 -31.5t5 -27.5q0 -35 -24 -57.5t-59 -22.5q-17 0 -36.5 9t-36.5 35z" />
    <glyph glyph-name="S" unicode="S" horiz-adv-x="591" 
d="M76 39q-23 18 -31 35t-8 32q0 32 22 56t57 24q26 0 58 -23q20 -14 53 -27t65 -13q16 0 31.5 4.5t27.5 13.5t19.5 23.5t7.5 35.5q0 20 -10 34t-28.5 25.5t-46 21t-62.5 20.5q-34 11 -66.5 26t-58 38.5t-41 57t-15.5 81.5q0 59 24 101t63 69t88 39.5t99 12.5q41 0 85 -10.5
t76 -30.5q27 -17 36.5 -34.5t9.5 -36.5q0 -30 -20 -52.5t-52 -22.5q-11 0 -21 3t-29 13q-30 16 -52 23t-41 7q-38 0 -66 -16.5t-28 -54.5q0 -18 7.5 -30t22 -21t34.5 -16.5t45 -15.5q36 -12 75 -26.5t71 -38.5t53 -59.5t21 -88.5q0 -61 -22.5 -105.5t-60.5 -73.5t-87 -43
t-101 -14q-27 0 -56 4t-56.5 11.5t-51.5 18t-40 23.5z" />
    <glyph glyph-name="T" unicode="T" horiz-adv-x="581" 
d="M76 562q-26 0 -42 8t-24.5 19.5t-11.5 24t-3 21.5t3 21.5t11.5 24t24.5 19.5t42 8h429q26 0 42 -8t24.5 -19.5t11.5 -24t3 -21.5t-3 -21.5t-11.5 -24t-24.5 -19.5t-42 -8h-129v-476q0 -31 -9.5 -49.5t-23 -29t-28 -14t-24.5 -3.5q-11 0 -25.5 3.5t-28 14t-23 29
t-9.5 49.5v476h-129z" />
    <glyph glyph-name="U" unicode="U" horiz-adv-x="738" 
d="M502 623q0 31 9.5 49.5t23 28.5t28 13.5t25.5 3.5q10 0 25 -3.5t28 -13.5t22.5 -28.5t9.5 -49.5v-356q0 -64 -21.5 -116.5t-61.5 -90t-96.5 -58.5t-125.5 -21q-70 0 -126 21t-95 58.5t-60 90t-21 116.5v356q0 31 9.5 49.5t22.5 28.5t27.5 13.5t25.5 3.5q10 0 25 -3.5
t28 -13.5t22.5 -28.5t9.5 -49.5v-342q0 -29 7.5 -55t23 -46.5t41 -32.5t61.5 -12t61.5 12t41.5 32.5t23 46.5t7 55v342z" />
    <glyph glyph-name="V" unicode="V" horiz-adv-x="682" 
d="M501 644q16 45 40 59.5t47 14.5q35 0 61 -22.5t26 -60.5q0 -8 -2.5 -21t-9.5 -30l-207 -501q-13 -31 -27.5 -49.5t-30 -28t-31 -12.5t-28.5 -3q-14 0 -29 3t-31 12.5t-31 28t-27 49.5l-203 499q-6 16 -8.5 28.5t-2.5 21.5q0 38 25 62t62 24q11 0 23.5 -3t24.5 -11
t22.5 -23.5t19.5 -39.5l157 -435h4z" />
    <glyph glyph-name="W" unicode="W" horiz-adv-x="1025" 
d="M852 84q-10 -32 -23.5 -50.5t-28.5 -28t-30 -12.5t-27 -3q-13 0 -28 3t-30 12.5t-28.5 28t-22.5 50.5l-120 395h-3l-120 -395q-9 -32 -22.5 -50.5t-28.5 -28t-30 -12.5t-28 -3t-28 3t-30 12.5t-28.5 28t-23.5 50.5l-156 508q-4 13 -5 22.5t-1 17.5q0 37 25 61.5t61 24.5
q12 0 24.5 -3t24.5 -12t22.5 -25t17.5 -42l106 -399h3l106 371q10 37 24.5 59t29.5 33.5t30.5 14.5t29.5 3q13 0 28.5 -3t31 -14.5t29.5 -33.5t25 -59l107 -371h3l109 403q7 25 17 40t22 23.5t24 11.5t23 3q32 0 57.5 -21t25.5 -61q0 -17 -6 -39z" />
    <glyph glyph-name="X" unicode="X" horiz-adv-x="703" 
d="M490 674q21 29 39.5 36.5t34.5 7.5q32 0 55.5 -22t23.5 -57q0 -12 -5 -26.5t-20 -34.5l-162 -204l193 -234q17 -20 22.5 -35.5t5.5 -29.5q0 -37 -24 -61t-62 -24q-17 0 -36 8t-43 40l-168 215l-157 -217q-21 -29 -40 -37.5t-36 -8.5q-35 0 -59.5 23.5t-24.5 58.5
q0 13 5 28.5t23 38.5l186 236l-162 196q-18 22 -23 37.5t-5 29.5q0 34 24 57t59 23q17 0 36 -9t39 -35l141 -185z" />
    <glyph glyph-name="Y" unicode="Y" horiz-adv-x="669" 
d="M503 669q23 31 42.5 40t36.5 9q32 0 56.5 -21.5t24.5 -56.5q0 -13 -5 -30t-22 -38l-219 -272v-215q0 -31 -9.5 -49.5t-22.5 -28.5t-28 -13.5t-25 -3.5q-11 0 -25.5 3.5t-28 13.5t-23 28.5t-9.5 49.5v215l-213 269q-19 24 -23 39.5t-4 26.5q0 35 24.5 59t60.5 24
q19 0 39 -10t45 -43l163 -219z" />
    <glyph glyph-name="Z" unicode="Z" horiz-adv-x="635" 
d="M134 0q-34 0 -54.5 10t-32 24.5t-15 30.5t-3.5 27q0 23 10 45.5t35 53.5l303 372h-262q-26 0 -42 8t-24.5 19.5t-11.5 24t-3 21.5t3 21t11.5 23.5t24.5 19.5t42 8h389q31 0 49.5 -9.5t29 -23t14 -28.5t3.5 -25q0 -21 -9 -41.5t-32 -49.5l-314 -383h278q27 0 43.5 -8
t25.5 -19.5t12 -24t3 -21.5t-3 -22t-12 -24.5t-25.5 -20t-43.5 -8.5h-389z" />
    <glyph glyph-name="bracketleft" unicode="[" horiz-adv-x="342" 
d="M53 656q0 76 75 76h94q18 0 29.5 -5.5t17.5 -13.5t8 -17t2 -15t-2 -15t-8 -17t-17.5 -13.5t-29.5 -5.5h-42v-684h42q18 0 29.5 -5.5t17.5 -13.5t8 -17t2 -15t-2 -15t-8 -17t-17.5 -13.5t-29.5 -5.5h-94q-75 0 -75 76v736z" />
    <glyph glyph-name="backslash" unicode="\" horiz-adv-x="415" 
d="M401 41q2 -6 4 -13.5t2 -15.5q0 -26 -17 -42t-42 -16q-18 0 -33 9.5t-25 34.5l-267 670q-2 6 -4 13.5t-2 15.5q0 26 17 42t42 16q18 0 33 -9.5t25 -34.5z" />
    <glyph glyph-name="bracketright" unicode="]" horiz-adv-x="342" 
d="M289 -80q0 -76 -75 -76h-94q-18 0 -29.5 5.5t-17.5 13.5t-8 17t-2 15t2 15t8 17t17.5 13.5t29.5 5.5h42v684h-42q-18 0 -29.5 5.5t-17.5 13.5t-8 17t-2 15t2 15t8 17t17.5 13.5t29.5 5.5h94q75 0 75 -76v-736z" />
    <glyph glyph-name="asciicircum" unicode="^" horiz-adv-x="690" 
d="M579 438q8 -13 11 -23.5t3 -19.5q0 -28 -18.5 -45t-44.5 -17q-14 0 -29 7t-32 32l-125 185l-123 -185q-17 -25 -32 -32t-29 -7q-26 0 -44.5 17t-18.5 45q0 9 3 20t11 23l149 226q21 32 42.5 43t42.5 11t42 -10.5t43 -43.5z" />
    <glyph glyph-name="underscore" unicode="_" horiz-adv-x="500" 
d="M50 -164q-16 0 -26 5t-15 12t-7 14.5t-2 13.5q0 5 2 12.5t7 14.5t15 12t26 5h400q16 0 26 -5t15 -12t7 -14.5t2 -12.5q0 -6 -2 -13.5t-7 -14.5t-15 -12t-26 -5h-400z" />
    <glyph glyph-name="grave" unicode="`" 
d="M37 629q-29 19 -36 35t-7 28q0 23 16 39t40 16q11 0 23 -4t35 -21l65 -47q29 -20 35 -34.5t6 -26.5q0 -21 -14.5 -36.5t-38.5 -15.5q-11 0 -23 4t-33 18z" />
    <glyph glyph-name="a" unicode="a" horiz-adv-x="566" 
d="M358 217h-21q-27 0 -54.5 -2.5t-49 -9.5t-35.5 -20.5t-14 -35.5q0 -14 6.5 -24t16.5 -16t23 -8.5t25 -2.5q50 0 76.5 27.5t26.5 74.5v17zM171 360q-20 -10 -38 -10q-24 0 -41 16.5t-17 42.5q0 14 8 30.5t31 30.5q39 24 82 34t83 10q63 0 106.5 -15.5t70.5 -48t39.5 -82
t12.5 -117.5v-175q0 -27 -8.5 -44t-20.5 -26.5t-25 -12.5t-22 -3q-8 0 -19.5 2.5t-22.5 9t-20 19t-12 32.5h-3q-19 -31 -57.5 -48t-83.5 -17q-30 0 -62 8t-58.5 26t-43.5 48t-17 74q0 54 29.5 87t76 51t103.5 24t111 6v8q0 33 -23.5 52.5t-61.5 19.5q-24 0 -48.5 -10
t-48.5 -22z" />
    <glyph glyph-name="b" unicode="b" horiz-adv-x="659" 
d="M461 251q0 24 -7.5 47t-22.5 40.5t-37 28.5t-51 11q-28 0 -50 -11t-37.5 -29t-24 -41t-8.5 -47t8.5 -47t24 -41t37.5 -29t50 -11q29 0 51 11t37 29t22.5 41.5t7.5 47.5zM66 674q0 30 9 48t22 27.5t27 13t24 3.5t24 -3.5t27 -13t22 -27.5t9 -48v-229h2q21 25 59 46t93 21
q54 0 97.5 -21t74 -57t47 -83.5t16.5 -99.5t-16 -100t-46.5 -84.5t-74.5 -58.5t-100 -22q-50 0 -94.5 20.5t-68.5 58.5h-2q-1 -23 -9.5 -38t-20 -23t-24 -11t-21.5 -3t-22 3t-25 12t-20.5 26t-8.5 45v598z" />
    <glyph glyph-name="c" unicode="c" horiz-adv-x="503" 
d="M318 -16q-59 0 -110 18t-88.5 52.5t-59 83.5t-21.5 111q0 61 21.5 110t59 83.5t88.5 53t109 18.5q30 0 59 -5.5t51 -16.5q29 -14 38.5 -32t9.5 -34q0 -29 -17 -50t-50 -21q-9 0 -19.5 2.5t-24.5 9.5q-20 10 -44 10q-26 0 -47 -10.5t-36 -28t-23.5 -40.5t-8.5 -49t8 -49
t23.5 -40.5t37 -27.5t48.5 -10q12 0 22.5 2t21.5 7q14 7 24.5 9.5t19.5 2.5q33 0 50 -21t17 -50q0 -16 -10.5 -34t-37.5 -32q-23 -11 -52 -16.5t-59 -5.5z" />
    <glyph glyph-name="d" unicode="d" horiz-adv-x="658" 
d="M592 76q0 -28 -8.5 -45t-20.5 -26t-25 -12t-22 -3t-21.5 3t-24 11t-20 23t-9.5 38h-2q-24 -38 -68.5 -58.5t-94.5 -20.5q-56 0 -100 22t-74.5 58.5t-46.5 84.5t-16 100t16.5 99.5t47 83.5t74 57t97.5 21q55 0 93 -21t59 -46h2v229q0 30 9 48t22 27.5t27 13t24 3.5
t24 -3.5t27 -13t22 -27.5t9 -48v-598zM435 250q0 24 -8.5 47t-24 41t-37.5 29t-50 11q-29 0 -51 -11t-37 -28.5t-22.5 -40.5t-7.5 -47t7.5 -47.5t22.5 -41.5t37 -29t51 -11q28 0 50 11t37.5 29t24 41t8.5 47z" />
    <glyph glyph-name="e" unicode="e" horiz-adv-x="596" 
d="M407 306q0 39 -24.5 67t-73.5 28q-24 0 -44 -7.5t-35 -20.5t-24 -30.5t-10 -36.5h211zM410 139q19 13 29.5 17t22.5 4q27 0 45 -17t18 -45q0 -11 -5.5 -26.5t-23.5 -29.5q-32 -26 -77.5 -42t-105.5 -16q-56 0 -106 17.5t-87.5 51t-59 82.5t-21.5 112q0 61 21 110.5t57 84
t85 53.5t106 19q94 0 158 -51t84 -142q2 -11 3.5 -20t1.5 -18q0 -42 -23 -60.5t-62 -18.5h-274q2 -21 12.5 -38t27 -29.5t37 -19.5t42.5 -7q29 0 50 6t45 23z" />
    <glyph glyph-name="f" unicode="f" horiz-adv-x="364" 
d="M59 375q-22 0 -35.5 7t-21 16.5t-10 20t-2.5 18.5q0 7 2.5 17.5t10 20t21 16.5t35.5 7h32v48q0 49 11 90.5t36 72.5t65 48.5t97 17.5q18 0 34.5 -3t29 -11t20.5 -21t8 -33q0 -30 -19.5 -47.5t-52.5 -17.5q-40 0 -52.5 -25t-12.5 -61v-58h52q22 0 35.5 -7t21 -16.5t10 -20
t2.5 -17.5q0 -8 -2.5 -18.5t-10 -20t-21 -16.5t-35.5 -7h-52v-293q0 -30 -9 -48t-22 -27.5t-27 -13t-24 -3.5t-24 3.5t-27 13t-22 27.5t-9 48v293h-32z" />
    <glyph glyph-name="g" unicode="g" horiz-adv-x="658" 
d="M436 252q0 25 -8.5 48t-24.5 40.5t-38 27.5t-50 10t-49.5 -10t-36.5 -27t-23 -40t-8 -49q0 -25 8 -48t23 -40.5t36.5 -28t49.5 -10.5t50.5 10.5t38 27.5t24 40t8.5 49zM103 -191q-23 15 -32 32t-9 33q0 29 18 50t50 21q11 0 23 -3.5t32 -15.5q30 -18 59 -25.5t55 -7.5
q64 0 98 37.5t34 100.5v30h-3q-23 -30 -62 -48t-89 -18q-57 0 -101 20.5t-74.5 55.5t-46.5 81.5t-16 98.5t16 99t46.5 83t74.5 57.5t100 21.5q47 0 90 -19t69 -59h2q2 23 10.5 37.5t20.5 22.5t24.5 11t21.5 3q10 0 23.5 -3t25.5 -12.5t20.5 -27t8.5 -45.5v-373
q0 -73 -21 -127t-59 -89.5t-92.5 -53t-120.5 -17.5q-23 0 -49 2.5t-52 8.5t-50.5 15t-44.5 23z" />
    <glyph glyph-name="h" unicode="h" horiz-adv-x="617" 
d="M66 674q0 30 9 48t22 27.5t27 13t24 3.5t24 -3.5t27 -13t22 -27.5t9 -48v-239h2q17 30 54 53.5t89 23.5q51 0 85.5 -18t56 -46.5t31 -65.5t9.5 -74v-226q0 -30 -9 -48t-22 -27.5t-27.5 -13t-24.5 -3.5t-24 3.5t-27 13t-22 27.5t-9 48v188q0 21 -3 40t-11.5 33.5t-22.5 23
t-36 8.5q-43 0 -66 -30.5t-23 -75.5v-187q0 -30 -9 -48t-22 -27.5t-27 -13t-24 -3.5t-24 3.5t-27 13t-22 27.5t-9 48v592z" />
    <glyph glyph-name="i" unicode="i" horiz-adv-x="296" 
d="M242 657q0 -19 -7.5 -35.5t-20 -28.5t-30 -19t-36.5 -7q-40 0 -67 26.5t-27 63.5q0 18 7 34.5t20 28.5t30 19.5t37 7.5q19 0 36.5 -7t30 -19t20 -28.5t7.5 -35.5zM66 416q0 30 9 48t22 27.5t27 13t24 3.5t24 -3.5t27 -13t22 -27.5t9 -48v-334q0 -30 -9 -48t-22 -27.5
t-27 -13t-24 -3.5t-24 3.5t-27 13t-22 27.5t-9 48v334z" />
    <glyph glyph-name="j" unicode="j" horiz-adv-x="299" 
d="M245 657q0 -19 -7.5 -35.5t-20 -28.5t-30 -19t-36.5 -7q-40 0 -67 26.5t-27 63.5q0 18 7 34.5t20 28.5t30 19.5t37 7.5q19 0 36.5 -7t30 -19t20 -28.5t7.5 -35.5zM233 -13q0 -105 -44.5 -165.5t-136.5 -60.5q-48 0 -73.5 18t-25.5 52q0 30 19 49.5t54 19.5q43 0 43 65
v451q0 30 9 48t22 27.5t27 13t24 3.5t24 -3.5t27 -13t22 -27.5t9 -48v-429z" />
    <glyph glyph-name="k" unicode="k" horiz-adv-x="595" 
d="M65 674q0 30 9 48t22 27.5t27 13t24 3.5t24.5 -3.5t27.5 -13t22 -27.5t9 -48v-378h3l168 177q18 19 35.5 27t35.5 8q34 0 54.5 -22t20.5 -53q0 -15 -7 -31.5t-27 -34.5l-102 -94l126 -141q17 -19 22 -35t5 -27q0 -34 -22.5 -57t-56.5 -23q-23 0 -41.5 10.5t-39.5 35.5
l-171 203h-3v-157q0 -30 -9 -48t-22 -27.5t-27.5 -13t-24.5 -3.5t-24 3.5t-27 13t-22 27.5t-9 48v592z" />
    <glyph glyph-name="l" unicode="l" horiz-adv-x="298" 
d="M66 673q0 30 9 48.5t22 28t27.5 13t24.5 3.5t24.5 -3.5t27.5 -13t22 -28t9 -48.5v-590q0 -30 -9 -48.5t-22 -28t-27.5 -13t-24.5 -3.5t-24.5 3.5t-27.5 13t-22 28t-9 48.5v590z" />
    <glyph glyph-name="m" unicode="m" horiz-adv-x="924" 
d="M225 429q9 16 22.5 31t32.5 26.5t42.5 18.5t51.5 7q54 0 91.5 -22t58.5 -63q25 39 64 62t95 23q51 0 85.5 -18.5t55.5 -48t30.5 -66t9.5 -71.5v-226q0 -30 -9 -48t-22 -27.5t-27 -13t-24 -3.5t-24 3.5t-27 13t-22 27.5t-9 48v190q0 21 -3 40.5t-11 33.5t-21.5 22.5
t-35.5 8.5q-21 0 -36.5 -9t-26 -24t-15.5 -34.5t-5 -40.5v-187q0 -30 -9 -48t-22 -27.5t-27 -13t-24 -3.5t-24 3.5t-27 13t-22 27.5t-9 48v202q0 43 -17 68t-54 25q-39 0 -60.5 -31t-21.5 -76v-188q0 -30 -9 -48t-22 -27.5t-27.5 -13t-24.5 -3.5t-24 3.5t-27 13t-22 27.5
t-9 48v338q0 28 8.5 45.5t21 27t26 12.5t23.5 3t23 -3t25.5 -11.5t21.5 -24t10 -40.5h2z" />
    <glyph glyph-name="n" unicode="n" horiz-adv-x="616" 
d="M64 420q0 28 8.5 45.5t21 27t26 12.5t23.5 3t23 -3t25.5 -11.5t21.5 -24t10 -40.5h2q9 16 23.5 31.5t34 26.5t42.5 18t49 7q50 0 85 -18t56.5 -46.5t31 -65.5t9.5 -74v-226q0 -30 -9 -48t-22 -27.5t-27.5 -13t-24.5 -3.5t-24 3.5t-27 13t-22 27.5t-9 48v190q0 21 -3.5 40
t-11.5 33.5t-22.5 23t-36.5 8.5t-38.5 -8.5t-27.5 -23.5t-16.5 -34.5t-5.5 -40.5v-188q0 -30 -9 -48t-22 -27.5t-27.5 -13t-24.5 -3.5t-24 3.5t-27 13t-22 27.5t-9 48v338z" />
    <glyph glyph-name="o" unicode="o" horiz-adv-x="632" 
d="M592 251q0 -61 -22 -110.5t-60 -84t-88 -53.5t-107 -19q-56 0 -106.5 19t-88 53.5t-59.5 84t-22 110.5t22 110t59.5 83t88 52t106.5 18q57 0 107 -18t88 -52t60 -83t22 -110zM434 251q0 24 -8 47t-23 40.5t-37 28.5t-51 11t-51 -11t-36.5 -28.5t-22 -40.5t-7.5 -47
t7.5 -47t22.5 -41.5t37 -29.5t51 -11t51 11t37 29.5t22.5 41.5t7.5 47z" />
    <glyph glyph-name="p" unicode="p" horiz-adv-x="657" 
d="M459 251q0 24 -7.5 47t-22 40.5t-36.5 28.5t-51 11q-28 0 -50 -11t-37.5 -29t-24 -41t-8.5 -47t8.5 -47t24 -41t37.5 -29t50 -11q29 0 51 11t36.5 29t22 41.5t7.5 47.5zM64 420q0 28 8.5 45.5t20.5 27t25.5 12.5t23.5 3q9 0 21.5 -2.5t24 -10.5t20.5 -22t12 -36h3
q23 30 63.5 52.5t95.5 22.5q54 0 98 -21t74.5 -57t47 -83.5t16.5 -99.5t-16 -100t-46.5 -84.5t-74.5 -58.5t-100 -22q-46 0 -87 18.5t-64 50.5h-2v-213q0 -30 -9 -48t-22 -27.5t-27 -13t-24 -3.5t-24 3.5t-27 13t-22 27.5t-9 48v578z" />
    <glyph glyph-name="q" unicode="q" horiz-adv-x="657" 
d="M435 250q0 24 -8.5 47t-24 41t-37.5 29t-50 11q-29 0 -51 -11t-37 -28.5t-22.5 -40.5t-7.5 -47t7.5 -47.5t22.5 -41.5t37 -29t51 -11q28 0 50 11t37.5 29t24 41t8.5 47zM592 -158q0 -30 -9 -48t-22 -27.5t-26.5 -13t-23.5 -3.5t-24 3.5t-27 13t-22 27.5t-9 48v213h-2
q-24 -32 -64.5 -50.5t-86.5 -18.5q-57 0 -101 22t-74 58.5t-46 84.5t-16 100t16.5 99.5t47 83.5t74 57t97.5 21q56 0 96.5 -22.5t63.5 -52.5h3q3 22 11.5 36t20 21.5t24 10.5t21.5 3q10 0 23.5 -3t25.5 -12.5t20.5 -27t8.5 -45.5v-578z" />
    <glyph glyph-name="r" unicode="r" horiz-adv-x="396" 
d="M64 420q0 28 8.5 45.5t21 27t26 12.5t23.5 3q9 0 22.5 -3t26 -12t21.5 -25t9 -42h2q7 16 17 31t22.5 27t28.5 19.5t36 7.5q35 0 54 -20.5t19 -51.5q0 -28 -18.5 -51.5t-65.5 -26.5q-43 -3 -66 -32.5t-23 -72.5v-174q0 -30 -9 -48t-22 -27.5t-27 -13t-24 -3.5t-24 3.5
t-27 13t-22 27.5t-9 48v338z" />
    <glyph glyph-name="s" unicode="s" horiz-adv-x="472" 
d="M68 23q-22 14 -30 30t-8 31q0 27 18 45.5t45 18.5q12 0 24 -4t26 -14q22 -15 42 -21.5t40 -6.5t39.5 9.5t19.5 33.5q0 23 -24 33.5t-75 22.5q-26 6 -52 16.5t-46.5 27.5t-33.5 42t-13 60q0 45 19 76.5t49 51.5t66.5 29.5t72.5 9.5q16 0 34.5 -2t36.5 -5.5t35 -9t29 -12.5
q25 -14 33.5 -29.5t8.5 -30.5q0 -26 -16.5 -44t-45.5 -18q-17 0 -42 14q-17 10 -32.5 14.5t-34.5 4.5q-23 0 -42.5 -9t-19.5 -31q0 -21 21.5 -29.5t69.5 -19.5q28 -6 56.5 -17.5t51.5 -29.5t37 -44t14 -62q0 -47 -19 -79.5t-49.5 -52.5t-68.5 -29t-76 -9q-43 0 -87 10
t-73 29z" />
    <glyph glyph-name="t" unicode="t" horiz-adv-x="372" 
d="M81 549q0 29 9 46.5t21.5 27.5t26.5 13t24 3q9 0 23 -3t26.5 -13t21.5 -27.5t9 -46.5v-51h58q22 0 35.5 -7t21 -16.5t10 -20t2.5 -17.5q0 -8 -2.5 -18.5t-10 -20t-21 -16.5t-35.5 -7h-58v-190q0 -35 11 -51.5t38 -16.5h13q31 0 46 -19t15 -40q0 -39 -30.5 -54.5
t-75.5 -15.5q-50 0 -84 12.5t-54.5 36t-29.5 56t-9 72.5v210h-21q-22 0 -35.5 7t-21 16.5t-10 20t-2.5 18.5q0 7 2.5 17.5t10 20t21 16.5t35.5 7h20v51z" />
    <glyph glyph-name="u" unicode="u" horiz-adv-x="614" 
d="M550 78q0 -29 -8.5 -46t-21 -26.5t-26 -12.5t-22.5 -3q-10 0 -23 3t-25.5 11.5t-21.5 24t-10 40.5h-2q-9 -17 -23.5 -32t-34 -26t-42.5 -18t-49 -7q-50 0 -85 18t-56.5 46.5t-31 65t-9.5 74.5v226q0 30 9 48t22 27.5t27 13t25 3.5q10 0 24 -3.5t27 -13t22 -27.5t9 -48
v-188q0 -21 3 -40t11.5 -34t22.5 -23.5t37 -8.5q43 0 65.5 32t22.5 75v187q0 30 9 48t22 27.5t27 13t24 3.5t24 -3.5t27 -13t22 -27.5t9 -48v-338z" />
    <glyph glyph-name="v" unicode="v" horiz-adv-x="567" 
d="M404 81q-12 -28 -27 -46t-31 -28t-32 -13.5t-31 -3.5t-31 3.5t-31.5 13.5t-30.5 28t-27 46l-130 300q-6 14 -8.5 26.5t-2.5 20.5q0 35 23.5 57.5t58.5 22.5q10 0 21 -2.5t22 -10t21 -21t18 -35.5l99 -264h3l97 265q8 22 18 35.5t21 20.5t21.5 9.5t19.5 2.5q35 0 57.5 -22
t22.5 -54q0 -6 -1.5 -19t-9.5 -30z" />
    <glyph glyph-name="w" unicode="w" horiz-adv-x="871" 
d="M259 183h3l72 235q9 30 21.5 48t27 27t29 12t26.5 3t26.5 -3t28 -12t26.5 -26.5t22 -47.5l75 -236h2l75 256q12 42 34.5 55.5t45.5 13.5q33 0 55.5 -22t22.5 -54q0 -6 -1.5 -16t-6.5 -24l-116 -319q-9 -26 -22 -42.5t-27.5 -25.5t-29 -12t-27.5 -3t-28 3t-30 12
t-27.5 25.5t-21.5 42.5l-79 237h-2l-77 -237q-8 -26 -21 -42.5t-27.5 -25.5t-30 -12t-28.5 -3t-28 3t-29 12t-27 25.5t-22 42.5l-115 319q-4 11 -5 21t-1 16q0 34 23 56.5t58 22.5q23 0 46.5 -14.5t35.5 -57.5z" />
    <glyph glyph-name="x" unicode="x" horiz-adv-x="594" 
d="M297 354l103 119q19 22 36 28.5t30 6.5q31 0 52 -20t21 -53q0 -12 -5.5 -26.5t-21.5 -31.5l-109 -117l123 -128q20 -21 25.5 -36.5t5.5 -28.5q0 -32 -21.5 -54.5t-55.5 -22.5q-14 0 -31.5 6.5t-40.5 34.5l-110 130l-113 -131q-23 -26 -40.5 -33t-31.5 -7q-31 0 -53 21.5
t-22 54.5q0 13 6 29t24 36l122 132l-105 106q-19 19 -24.5 34.5t-5.5 28.5q0 34 23 55t55 21q15 0 32 -8t37 -32z" />
    <glyph glyph-name="y" unicode="y" horiz-adv-x="567" 
d="M291 180h3l91 257q15 43 37 57t43 14q35 0 58 -21.5t23 -54.5q0 -8 -2 -19t-7 -25l-194 -465q-16 -39 -34.5 -69t-43.5 -51t-59 -32t-82 -11h-9q-26 0 -42 7.5t-25 18t-12 23t-3 21.5t3 21t11 23t23.5 18.5t40.5 7.5q8 0 17.5 1t20 7t20.5 18.5t19 35.5l18 46l-172 374
q-6 14 -8.5 26t-2.5 20q0 34 23 57t59 23q23 0 45.5 -14t36.5 -52z" />
    <glyph glyph-name="z" unicode="z" horiz-adv-x="512" 
d="M268 372h-165q-23 0 -36.5 7t-21 17t-10 20.5t-2.5 18.5q0 7 2.5 18t10 21t21 17t36.5 7h292q27 0 43 -8.5t25 -20t12 -24.5t3 -22q0 -17 -8 -36t-27 -38l-216 -222h191q22 0 36 -7t21.5 -17t10 -21t2.5 -19t-2.5 -18.5t-10 -20.5t-21.5 -17t-36 -7h-307q-28 0 -45 8.5
t-26.5 21t-12.5 26t-3 22.5q0 17 7.5 36t26.5 39z" />
    <glyph glyph-name="braceleft" unicode="{" horiz-adv-x="342" 
d="M73 163q0 25 -7.5 40t-26.5 24q-43 21 -43 61t43 61q19 9 26.5 24t7.5 40v161q0 34 8.5 63t26.5 50t46 33t68 12h14q21 0 34 -5.5t20 -14t9.5 -17.5t2.5 -16q0 -6 -2 -15t-8.5 -17.5t-18 -14t-29.5 -5.5q-14 0 -23 -5t-14 -13.5t-6.5 -19.5t-1.5 -22v-157
q0 -34 -10 -56.5t-24.5 -36.5t-30.5 -20.5t-28 -7.5v-2q12 -1 28 -6.5t30.5 -19.5t24.5 -38t10 -61v-153q0 -11 1.5 -22t6.5 -19.5t14 -13.5t23 -5q18 0 29.5 -5.5t18 -14t8.5 -17.5t2 -15q0 -7 -2.5 -16t-9.5 -17.5t-20 -14t-34 -5.5h-14q-40 0 -68 11.5t-46 32.5t-26.5 50
t-8.5 64v161z" />
    <glyph glyph-name="bar" unicode="|" horiz-adv-x="241" 
d="M55 687q0 23 7 37.5t17.5 22.5t22 10.5t19.5 2.5t19 -2.5t21.5 -10.5t17.5 -22.5t7 -37.5v-874q0 -23 -7 -37.5t-17.5 -22.5t-21.5 -10.5t-19 -2.5t-19.5 2.5t-22 10.5t-17.5 22.5t-7 37.5v874z" />
    <glyph glyph-name="braceright" unicode="}" horiz-adv-x="342" 
d="M269 2q0 -35 -8.5 -64t-26.5 -50t-46 -32.5t-68 -11.5h-14q-21 0 -34 5.5t-20 14t-9.5 17.5t-2.5 16q0 6 2 15t8.5 17.5t18 14t29.5 5.5q28 0 36.5 18.5t8.5 41.5v153q0 37 10 61t24.5 38t30.5 19.5t28 6.5v2q-12 1 -28 7.5t-30.5 20.5t-24.5 36.5t-10 56.5v157
q0 11 -1.5 22t-6.5 19.5t-14 13.5t-23 5q-18 0 -29.5 5.5t-18 14t-8.5 17.5t-2 15q0 7 2.5 16t9.5 17.5t20 14t34 5.5h14q40 0 68 -12t46 -33t26.5 -50t8.5 -63v-161q0 -25 7.5 -40t26.5 -24q43 -21 43 -61t-43 -61q-19 -9 -26.5 -24t-7.5 -40v-161z" />
    <glyph glyph-name="asciitilde" unicode="~" horiz-adv-x="666" 
d="M238 261q-17 0 -29.5 -7.5t-23.5 -23.5q-14 -20 -26.5 -26t-26.5 -6q-26 0 -41.5 16t-15.5 41q0 11 3.5 25t10.5 26q26 48 60.5 68t80.5 20q22 0 46 -8.5t59 -28.5q32 -18 56 -28t38 -10q17 0 29.5 7.5t23.5 23.5q14 20 26.5 26t26.5 6q26 0 41.5 -16t15.5 -41
q0 -11 -3.5 -25t-10.5 -26q-26 -48 -60.5 -68t-80.5 -20q-22 0 -46 8.5t-59 28.5q-32 18 -56 28t-38 10z" />
    <glyph glyph-name="uni00A0" unicode="&#xa0;" horiz-adv-x="250" 
 />
    <glyph glyph-name="exclamdown" unicode="&#xa1;" horiz-adv-x="357" 
d="M81.0166 423.005q0 19.999 7.5 37.498q7.49902 17.499 20.998 29.998q13.5 12.499 31.499 19.999q17.998 7.49902 37.9971 7.49902t37.498 -6.99902q17.499 -7 30.498 -19.999t20.999 -29.998q7.99902 -16.999 7.99902 -36.998q0 -18.999 -7.49902 -36.4971
q-7.5 -17.499 -20.499 -30.499q-12.999 -12.999 -30.998 -20.498q-17.999 -7.5 -37.998 -7.5t-37.9971 7.5q-17.999 7.49902 -31.499 19.998q-13.499 12.5 -20.998 29.999q-7.5 17.498 -7.5 36.4971zM263.006 -115.962q0 -29.998 -9.5 -48.4971
q-9.49902 -18.499 -22.498 -28.498q-12.999 -10 -27.498 -13.499q-14.5 -3.5 -24.499 -3.5t-24.498 3.5q-14.499 3.49902 -27.499 13.499q-12.999 9.99902 -22.498 28.498q-9.5 18.499 -9.5 48.4971v302.981q0 29.998 9.5 48.4971q9.49902 18.499 22.498 28.498
q13 10 27.499 13.499q14.499 3.5 24.498 3.5t24.499 -3.5q14.499 -3.49902 27.498 -13.499q12.999 -9.99902 22.498 -28.498q9.5 -18.499 9.5 -48.4971v-302.981z" />
    <glyph glyph-name="cent" unicode="&#xa2;" horiz-adv-x="646" 
d="M314 382q-45 -11 -68.5 -47.5t-23.5 -85.5q0 -48 24 -84.5t68 -48.5v266zM499 17q-24 -16 -54 -22.5t-55 -8.5v-33q0 -14 -4.5 -22t-10.5 -12.5t-12.5 -6t-10.5 -1.5q-5 0 -11.5 1.5t-12.5 6t-10 12.5t-4 22v33q-53 6 -96 28t-73.5 56.5t-47 80.5t-16.5 99
q0 54 16.5 98.5t47.5 78.5t73.5 55.5t95.5 29.5v32q0 13 4 21.5t10 13t12.5 6t11.5 1.5q4 0 10.5 -1.5t12.5 -6t10.5 -13t4.5 -21.5v-32q24 -2 47.5 -6.5t41.5 -12.5q22 -9 36.5 -25.5t14.5 -40.5q0 -26 -18 -45.5t-46 -19.5q-18 0 -42 12q-14 7 -34 10v-270q19 1 33 8
q26 13 42 13q29 0 46.5 -18.5t17.5 -46.5q0 -14 -6 -27.5t-24 -25.5z" />
    <glyph glyph-name="sterling" unicode="&#xa3;" horiz-adv-x="646" 
d="M539 708q29 -12 44.5 -30t15.5 -44q0 -29 -18.5 -50t-50.5 -21q-20 0 -42 11q-26 12 -51 12q-31 0 -51.5 -11t-32.5 -28.5t-16.5 -38.5t-4.5 -41v-51h102q20 0 32.5 -6.5t19.5 -15.5t9.5 -18.5t2.5 -16.5t-2.5 -17t-9.5 -19t-19.5 -15.5t-32.5 -6.5h-102v-160h191
q25 0 40.5 -8t23.5 -19t11 -23t3 -20q0 -9 -3 -21t-11 -23t-23.5 -19t-40.5 -8h-383q-25 0 -40.5 8t-23.5 19t-11 23t-3 21q0 8 3 20t11 23t23.5 19t40.5 8h27v160h-41q-20 0 -32.5 6.5t-19.5 15.5t-9.5 19t-2.5 17t2.5 16.5t9.5 18.5t19.5 15.5t32.5 6.5h41v61
q0 41 14.5 85t45.5 81t80.5 60.5t119.5 23.5q30 0 59.5 -4.5t52.5 -14.5z" />
    <glyph glyph-name="currency" unicode="&#xa4;" horiz-adv-x="950" 
d="M476 441q-28 0 -51.5 -10.5t-40 -28.5t-25.5 -42t-9 -51q0 -28 9 -52.5t25.5 -42.5t40 -28.5t51.5 -10.5t51.5 10.5t40.5 28.5t26 42.5t9 52.5q0 27 -9.5 51t-26 42t-40 28.5t-51.5 10.5zM272 18q-13 -13 -25 -18t-23 -5q-26 0 -43 17t-17 42q0 10 4.5 22.5t18.5 26.5
l55 54q-42 62 -42 152q0 43 10 79.5t29 67.5l-51 51q-14 14 -18.5 26.5t-4.5 22.5q0 25 17 42t43 17q11 0 23 -5t25 -18l53 -53q32 20 70 30.5t80 10.5t80 -10t70 -29l51 51q13 13 25 18t23 5q26 0 43 -17t17 -42q0 -10 -4.5 -22.5t-18.5 -26.5l-49 -48q20 -30 31 -67.5
t11 -82.5q0 -90 -45 -155l52 -51q14 -14 18.5 -26.5t4.5 -22.5q0 -25 -17 -42t-43 -17q-11 0 -23 5t-25 18l-55 55q-31 -19 -68 -29t-78 -10q-38 0 -74 9.5t-73 31.5z" />
    <glyph glyph-name="yen" unicode="&#xa5;" horiz-adv-x="646" 
d="M458 416h77q18 0 29.5 -5.5t17.5 -14t8 -17t2 -14.5t-2 -15t-8 -17.5t-17.5 -14t-29.5 -5.5h-132v-65h132q18 0 29.5 -5.5t17.5 -14t8 -17t2 -14.5t-2 -15t-8 -17.5t-17.5 -14t-29.5 -5.5h-132v-67q0 -28 -8.5 -45.5t-21 -27t-26 -12.5t-23.5 -3t-23.5 3t-26 12.5t-21 27
t-8.5 45.5v67h-131q-18 0 -29.5 5.5t-17.5 14t-8 17.5t-2 15t2 14.5t8 17t17.5 14t29.5 5.5h131v65h-131q-18 0 -29.5 5.5t-17.5 14t-8 17.5t-2 15t2 14.5t8 17t17.5 14t29.5 5.5h80l-134 178q-12 17 -15 29.5t-3 23.5q0 30 20.5 50.5t52.5 20.5q15 0 32.5 -8t34.5 -34
l147 -228l138 227q16 26 34.5 34.5t33.5 8.5q31 0 51.5 -21t20.5 -51q0 -11 -3.5 -23.5t-14.5 -26.5z" />
    <glyph glyph-name="brokenbar" unicode="&#xa6;" horiz-adv-x="241" 
d="M55 124q0 23 7 37.5t17.5 22.5t22 10.5t19.5 2.5t19 -2.5t21.5 -10.5t17.5 -22.5t7 -37.5v-236q0 -23 -7 -37.5t-17.5 -22.5t-21.5 -10.5t-19 -2.5t-19.5 2.5t-22 10.5t-17.5 22.5t-7 37.5v236zM55 612q0 23 7 37.5t17.5 22.5t22 10.5t19.5 2.5t19 -2.5t21.5 -10.5
t17.5 -22.5t7 -37.5v-236q0 -23 -7 -37.5t-17.5 -22.5t-21.5 -10.5t-19 -2.5t-19.5 2.5t-22 10.5t-17.5 22.5t-7 37.5v236z" />
    <glyph glyph-name="section" unicode="&#xa7;" horiz-adv-x="607" 
d="M414 263q0 30 -24 46.5t-54 29.5l-86 35q-17 -7 -29 -19.5t-12 -33.5q0 -15 6.5 -26t18 -19.5t26 -14.5t29.5 -12l94 -37q15 7 23 21t8 30zM192 23q25 -18 52.5 -27t51.5 -9q12 0 25 3t23.5 9.5t17.5 16t7 22.5q0 16 -7.5 28t-23.5 21.5t-41 19t-59 21.5q-37 13 -69 27
t-56 33.5t-37.5 46t-13.5 63.5q0 51 25.5 84.5t60.5 53.5q-53 39 -53 113q0 46 21.5 79.5t55 55.5t74.5 32t79 10q51 0 96 -13t75 -37q17 -14 22.5 -28.5t5.5 -26.5q0 -29 -20 -49t-49 -20q-11 0 -24 3.5t-30 15.5q-14 10 -33 17t-37 7q-25 0 -47.5 -12t-22.5 -37
q0 -27 29.5 -44t87.5 -38q37 -14 70.5 -30t59 -37.5t40 -50t14.5 -67.5q0 -40 -20.5 -73t-54.5 -52q27 -19 38.5 -48t11.5 -62q0 -52 -22.5 -88.5t-58 -59.5t-78.5 -33.5t-85 -10.5q-49 0 -97 14t-89 41q-25 17 -32.5 34.5t-7.5 31.5q0 29 20 50t52 21q11 0 23.5 -4.5
t29.5 -16.5z" />
    <glyph glyph-name="dieresis" unicode="&#xa8;" 
d="M342 658q0 -35 -24.5 -58.5t-58.5 -23.5q-35 0 -59 24t-24 58q0 16 6.5 30.5t17.5 26t26 18t33 6.5q34 0 58.5 -23.5t24.5 -57.5zM125 658q0 -35 -24.5 -58.5t-59.5 -23.5t-59 24t-24 58q0 16 6.5 30.5t17.5 26t26.5 18t32.5 6.5q35 0 59.5 -23.5t24.5 -57.5z" />
    <glyph glyph-name="copyright" unicode="&#xa9;" horiz-adv-x="800" 
d="M780 353q0 -78 -30 -146.5t-81.5 -119.5t-120.5 -80t-147 -29q-79 0 -148.5 29t-121 80t-81.5 119.5t-30 146.5q0 79 30 147.5t81.5 119.5t121 80.5t148.5 29.5q78 0 147 -29.5t120.5 -80.5t81.5 -119.5t30 -147.5zM720 353q0 66 -25 124.5t-68.5 102t-101.5 69
t-124 25.5t-124.5 -25.5t-102 -69t-69 -102t-25.5 -124.5t25 -124t68 -101.5t101.5 -68.5t124.5 -25t124.5 25t102 68.5t69 101.5t25.5 124zM537 150q-19 -11 -51.5 -19.5t-66.5 -8.5q-49 0 -92 15.5t-75.5 44.5t-51 72t-18.5 98q0 53 19 95.5t51 72t75.5 45.5t91.5 16
q35 0 66 -8.5t52 -22.5q18 -12 24 -24.5t6 -23.5q0 -22 -15 -37t-38 -15q-7 0 -15.5 2.5t-20.5 10.5q-24 16 -60 16q-28 0 -49 -10.5t-35.5 -28.5t-22 -40.5t-7.5 -46.5t7.5 -47t22.5 -41t37.5 -29t52.5 -11q20 0 33 4t21 8q22 12 38 12q24 0 37.5 -15.5t13.5 -36.5
q0 -11 -6 -23.5t-24 -23.5z" />
    <glyph glyph-name="ordfeminine" unicode="&#xaa;" horiz-adv-x="384" 
d="M234 553h-12q-14 0 -28 -1.5t-25.5 -5t-19 -10.5t-7.5 -18q0 -14 12 -20.5t25 -6.5q26 0 40.5 14t14.5 36v12zM97 701q18 11 43 16.5t50 5.5q41 0 68 -10.5t42.5 -28t22 -40.5t6.5 -49v-121q0 -17 -5 -27.5t-12.5 -16t-15.5 -7.5t-14 -2q-11 0 -26 7t-20 30h-1
q-11 -17 -34 -25.5t-50 -8.5q-19 0 -38 5t-34 15.5t-24.5 27.5t-9.5 40q0 33 17.5 52t44.5 29.5t60 13.5t64 3v4q0 18 -14 26.5t-36 8.5q-14 0 -25.5 -3.5t-26.5 -10.5q-12 -6 -23 -6q-14 0 -24 10t-10 25q0 9 5.5 19t19.5 18z" />
    <glyph glyph-name="guillemotleft" unicode="&#xab;" horiz-adv-x="543" 
d="M59 205q-14 19 -17 30t-3 19t3 19t17 30l97 140q13 19 26.5 25t25.5 6q23 0 40.5 -15t17.5 -42q0 -7 -2.5 -17t-11.5 -23l-84 -123l84 -123q9 -13 11.5 -23t2.5 -17q0 -27 -17.5 -42t-40.5 -15q-12 0 -25.5 6t-26.5 25zM285 205q-14 19 -17 30t-3 19t3 19t17 30l97 140
q13 19 26.5 25t25.5 6q23 0 40.5 -15t17.5 -42q0 -7 -2.5 -17t-11.5 -23l-84 -123l84 -123q9 -13 11.5 -23t2.5 -17q0 -27 -17.5 -42t-40.5 -15q-12 0 -25.5 6t-26.5 25z" />
    <glyph glyph-name="logicalnot" unicode="&#xac;" horiz-adv-x="666" 
d="M606 208q0 -23 -7 -37.5t-17.5 -22.5t-21.5 -10.5t-19 -2.5t-19 2.5t-21.5 10.5t-17.5 22.5t-7 37.5v120h-366q-22 0 -35.5 7t-21 16.5t-10 20t-2.5 18.5q0 7 2.5 17.5t10 20t21 16.5t35.5 7h419q77 0 77 -78v-165z" />
    <glyph glyph-name="uni00AD" unicode="&#xad;" horiz-adv-x="326" 
d="M99 197q-23 0 -37.5 7t-22.5 17.5t-10.5 21.5t-2.5 19t2.5 19t10.5 21.5t22.5 17.5t37.5 7h128q23 0 37.5 -7t22.5 -17.5t10.5 -21.5t2.5 -19t-2.5 -19t-10.5 -21.5t-22.5 -17.5t-37.5 -7h-128z" />
    <glyph glyph-name="registered" unicode="&#xae;" horiz-adv-x="600" 
d="M307 521q26 0 26 22q0 19 -26 19h-28v-41h28zM72 492q0 47 18 88.5t49 72t73 48.5t89 18t88.5 -18t72 -48.5t48.5 -72t18 -88.5t-18 -88t-48.5 -71.5t-72 -48t-88.5 -17.5t-89 17.5t-73 48t-49 71.5t-18 88zM108 492q0 -39 15 -74t41.5 -61.5t61.5 -41.5t75 -15t74.5 15
t60.5 41.5t41 61.5t15 74q0 40 -15 75t-41 61t-60.5 41t-74.5 15t-75 -15t-61.5 -41t-41.5 -61t-15 -75zM295 459h-16v-55q0 -15 -5 -25t-12 -15t-14.5 -7t-12.5 -2t-12.5 2t-14.5 7t-12 15t-5 25v176q0 51 51 51h63q21 0 43 -4t39 -14t28 -26.5t11 -41.5q0 -55 -48 -74
l32 -43q8 -11 10.5 -19.5t2.5 -14.5q0 -17 -11.5 -28t-29.5 -11q-9 0 -19 4.5t-20 20.5z" />
    <glyph glyph-name="macron" unicode="&#xaf;" 
d="M272 692q17 0 27.5 -5.5t16.5 -13t8 -15.5t2 -14t-2 -14.5t-8 -16t-16.5 -12.5t-27.5 -5h-244q-17 0 -27.5 5t-16.5 12.5t-8 16t-2 14.5t2 14t8 15.5t16.5 13t27.5 5.5h244z" />
    <glyph glyph-name="degree" unicode="&#xb0;" horiz-adv-x="416" 
d="M376 558q0 -35 -13 -66t-35.5 -53.5t-53.5 -35.5t-66 -13t-66 13t-53.5 35.5t-35.5 53.5t-13 66t13 65.5t35.5 53t53.5 35.5t66 13t66 -13t53.5 -35.5t35.5 -53t13 -65.5zM296 558q0 36 -25.5 62t-62.5 26t-62.5 -26t-25.5 -62q0 -37 25.5 -62.5t62.5 -25.5t62.5 25.5
t25.5 62.5z" />
    <glyph glyph-name="plusminus" unicode="&#xb1;" horiz-adv-x="666" 
d="M549 458q22 0 36 -7t22 -17t10.5 -21t2.5 -18q0 -8 -2.5 -18.5t-10.5 -20.5t-22 -17t-36 -7h-151v-70q0 -23 -7 -37.5t-17.5 -22.5t-21.5 -10.5t-19 -2.5t-19 2.5t-21.5 10.5t-17.5 22.5t-7 37.5v70h-152q-23 0 -36.5 7t-21.5 17t-10.5 20.5t-2.5 18.5q0 7 2.5 18
t10.5 21t21.5 17t36.5 7h151v69q0 23 7 37.5t17.5 22.5t21.5 10.5t19 2.5t19 -2.5t21.5 -10.5t17.5 -22.5t7 -37.5v-69h152zM116 31q-23 0 -36.5 7t-21.5 17t-10.5 20.5t-2.5 18.5t2.5 19t10.5 21t21.5 17t36.5 7h433q22 0 36 -7t22 -17t10.5 -21t2.5 -19t-2.5 -18.5
t-10.5 -20.5t-22 -17t-36 -7h-433z" />
    <glyph glyph-name="twosuperior" unicode="&#xb2;" horiz-adv-x="420" 
d="M225 693q13 12 21 25.5t8 30.5q0 18 -12 29.5t-33 11.5q-30 0 -47 -30q-9 -16 -21 -26t-31 -10q-24 0 -38.5 14.5t-14.5 37.5q0 9 3 18t7 16q23 39 61.5 59.5t85.5 20.5q30 0 59 -8t51.5 -24.5t36 -41.5t13.5 -60q0 -24 -6.5 -43t-17 -34.5t-24 -29.5t-28.5 -27l-89 -78
h119q18 0 29 -5.5t17 -13.5t8 -16t2 -14t-2 -14.5t-8 -16.5t-17 -13.5t-29 -5.5h-213q-23 0 -36.5 6t-21 14.5t-10 17.5t-2.5 16q0 14 6.5 29t29.5 36z" />
    <glyph glyph-name="threesuperior" unicode="&#xb3;" horiz-adv-x="420" 
d="M190 626q-15 0 -24 4.5t-14.5 11t-7 14t-1.5 12.5t1.5 12.5t7 14t14.5 11t24 4.5q26 0 45 10.5t19 36.5q0 17 -11.5 27.5t-31.5 10.5q-12 0 -23.5 -5.5t-22.5 -19.5q-8 -9 -18 -15.5t-25 -6.5q-21 0 -36 14t-15 35q0 23 19 42q25 26 57.5 38.5t68.5 12.5q30 0 57.5 -7
t48.5 -22t34 -38t13 -54q0 -34 -15.5 -58.5t-41.5 -37.5q32 -11 49.5 -38t17.5 -62q0 -36 -14.5 -62t-38 -42.5t-52.5 -24.5t-59 -8q-37 0 -72 11t-63 39q-22 22 -22 46q0 22 15.5 36.5t36.5 14.5q13 0 23.5 -6t24.5 -20q12 -13 25.5 -18.5t27.5 -5.5q20 0 36.5 11t16.5 35
q0 26 -21 36.5t-53 10.5z" />
    <glyph glyph-name="acute" unicode="&#xb4;" 
d="M195 584q-21 -14 -33 -18t-23 -4q-24 0 -38.5 15.5t-14.5 36.5q0 12 6 26.5t35 34.5l65 47q23 17 35 21t23 4q24 0 40 -16t16 -39q0 -12 -7 -28t-36 -35z" />
    <glyph glyph-name="mu" unicode="&#xb5;" horiz-adv-x="666" 
d="M425 57q-15 -26 -40.5 -45t-70.5 -19q-18 0 -35 5t-28 15v-159q0 -29 -9 -46.5t-22 -27.5t-26.5 -13t-23.5 -3t-24 3t-26.5 13t-21.5 27.5t-9 46.5v564q0 29 9 46.5t21.5 27.5t26.5 13t24 3t23.5 -3t26.5 -13t22 -27.5t9 -46.5v-168q0 -17 2.5 -38.5t11 -40.5t23.5 -32
t40 -13t42.5 9t28 24t15.5 35t5 43v181q0 29 9 46.5t21.5 27.5t26.5 13t24 3t23.5 -3t26.5 -13t22 -27.5t9 -46.5v-351q0 -28 -8.5 -45t-21 -26.5t-25.5 -12.5t-22 -3t-21.5 2.5t-24.5 11t-21 23.5t-11 40h-1z" />
    <glyph glyph-name="paragraph" unicode="&#xb6;" horiz-adv-x="618" 
d="M555 -73q0 -21 -6.5 -34t-15.5 -20t-19 -9.5t-17 -2.5t-17 2.5t-19 9.5t-15.5 20t-6.5 34v681h-85v-681q0 -21 -6.5 -34t-15.5 -20t-19 -9.5t-17 -2.5t-17 2.5t-19 9.5t-15.5 20t-6.5 34v408q-49 1 -88.5 14.5t-67.5 37.5t-43 57t-15 74q0 54 19 90.5t52 58.5t77.5 31.5
t95.5 9.5h217q70 0 70 -69v-712z" />
    <glyph glyph-name="periodcentered" unicode="&#xb7;" 
d="M251 291q0 -42 -29.5 -70t-70.5 -28q-21 0 -39.5 7.5t-32.5 20.5t-22 30.5t-8 38.5q0 20 8 38t22 31.5t32.5 21.5t39.5 8q41 0 70.5 -28t29.5 -70z" />
    <glyph glyph-name="cedilla" unicode="&#xb8;" 
d="M136 -240q-25 0 -47.5 4t-39.5 9q-30 9 -30 33q0 14 8.5 23.5t22.5 9.5q5 0 11.5 -1.5t11.5 -3.5q27 -8 55 -8q8 0 16.5 1.5t16 5t12.5 9.5t5 16q0 28 -40 28q-6 0 -11.5 -0.5t-10.5 -1.5t-9.5 -1.5t-9.5 -0.5q-16 0 -23.5 7.5t-7.5 18.5t12 27l64 85h82l-62 -80q5 1 9 1
h9q18 0 36.5 -3.5t33 -12.5t24 -25.5t9.5 -41.5q0 -29 -14 -48t-36 -30t-47.5 -15.5t-49.5 -4.5z" />
    <glyph glyph-name="onesuperior" unicode="&#xb9;" horiz-adv-x="420" 
d="M144 722q-10 -8 -19 -10.5t-16 -2.5q-21 0 -35 14t-14 36q0 11 5.5 22t22.5 23l89 67q15 11 28.5 15.5t23.5 4.5q9 0 21 -2.5t22.5 -11t18 -24t7.5 -41.5v-312q0 -21 -6.5 -34t-15.5 -19.5t-19 -9t-17 -2.5t-17 2.5t-19.5 9t-16 19.5t-6.5 34v251z" />
    <glyph glyph-name="ordmasculine" unicode="&#xba;" horiz-adv-x="384" 
d="M348 575q0 -34 -12 -62t-33 -47.5t-49.5 -30.5t-61.5 -11q-32 0 -60.5 11t-49.5 30.5t-33 47.5t-12 62t12 61.5t33 47t49.5 30t60.5 10.5q33 0 61.5 -10.5t49.5 -30t33 -47t12 -61.5zM253 575q0 25 -16 44t-45 19t-44 -19t-15 -44q0 -26 15 -45t44 -19t45 19t16 45z" />
    <glyph glyph-name="guillemotright" unicode="&#xbb;" horiz-adv-x="543" 
d="M387 65q-13 -19 -26.5 -25t-25.5 -6q-23 0 -40.5 15t-17.5 42q0 7 2.5 17t11.5 23l84 123l-84 123q-9 13 -11.5 23t-2.5 17q0 27 17.5 42t40.5 15q12 0 25.5 -6t26.5 -25l97 -140q14 -19 17 -30t3 -19t-3 -19t-17 -30zM161 65q-13 -19 -26.5 -25t-25.5 -6q-23 0 -40.5 15
t-17.5 42q0 7 2.5 17t11.5 23l84 123l-84 123q-9 13 -11.5 23t-2.5 17q0 27 17.5 42t40.5 15q12 0 25.5 -6t26.5 -25l97 -140q14 -19 17 -30t3 -19t-3 -19t-17 -30z" />
    <glyph glyph-name="onequarter" unicode="&#xbc;" horiz-adv-x="940" 
d="M143 549q-10 -8 -19 -10.5t-16 -2.5q-21 0 -35 14t-14 36q0 11 5.5 22t22.5 23l89 67q15 11 28.5 15.5t23.5 4.5q9 0 21 -2.5t22.5 -11t18 -24t7.5 -41.5v-312q0 -21 -6.5 -34t-15.5 -19.5t-19 -9t-17 -2.5t-17 2.5t-19.5 9t-16 19.5t-6.5 34v251zM718 311h-1l-88 -134
h89v134zM824 83v-33q0 -19 -6 -31t-14 -18.5t-17.5 -8.5t-15.5 -2t-15.5 2t-17.5 8.5t-14 18.5t-6 31v33h-144q-21 0 -34 6.5t-20 16t-9.5 19.5t-2.5 17q0 9 3 20t14 26l150 213q22 31 42 38t33 7q9 0 21.5 -2.5t24 -11.5t20 -26t8.5 -45v-184h15q17 0 27.5 -5t16 -12.5
t7.5 -15.5t2 -14t-2 -14t-7.5 -15.5t-16 -12.5t-27.5 -5h-15zM335 11q-11 -20 -23 -27t-23 -7q-19 0 -33.5 13t-14.5 33q0 5 1.5 11.5t6.5 17.5l344 649q11 20 23 26t23 6q19 0 33.5 -13t14.5 -33q0 -5 -1.5 -11.5t-6.5 -17.5z" />
    <glyph glyph-name="onehalf" unicode="&#xbd;" horiz-adv-x="940" 
d="M334 11q-11 -20 -23 -27t-23 -7q-19 0 -33.5 13t-14.5 33q0 5 1.5 11.5t6.5 17.5l344 649q11 20 23 26t23 6q19 0 33.5 -13t14.5 -33q0 -5 -1.5 -11.5t-6.5 -17.5zM143 549q-10 -8 -19 -10.5t-16 -2.5q-21 0 -35 14t-14 36q0 11 5.5 22t22.5 23l89 67q15 11 28.5 15.5
t23.5 4.5q9 0 21 -2.5t22.5 -11t18 -24t7.5 -41.5v-312q0 -21 -6.5 -34t-15.5 -19.5t-19 -9t-17 -2.5t-17 2.5t-19.5 9t-16 19.5t-6.5 34v251zM745 247q13 12 21 25.5t8 30.5q0 18 -12 29.5t-33 11.5q-30 0 -47 -30q-9 -16 -21 -26t-31 -10q-24 0 -38.5 14.5t-14.5 37.5
q0 9 3 18t7 16q23 39 61.5 59.5t85.5 20.5q30 0 59 -8t51.5 -24.5t36 -41.5t13.5 -60q0 -24 -6.5 -43t-17 -34.5t-24 -29.5t-28.5 -27l-89 -77h119q18 0 29 -5.5t17 -13.5t8 -16t2 -14t-2 -14.5t-8 -16.5t-17 -13.5t-29 -5.5h-213q-23 0 -36.5 6t-21 14.5t-10 17.5t-2.5 16
q0 14 6.5 29t29.5 36z" />
    <glyph glyph-name="threequarters" unicode="&#xbe;" horiz-adv-x="940" 
d="M718 311h-1l-88 -134h89v134zM824 83v-33q0 -19 -6 -31t-14 -18.5t-17.5 -8.5t-15.5 -2t-15.5 2t-17.5 8.5t-14 18.5t-6 31v33h-144q-21 0 -34 6.5t-20 16t-9.5 19.5t-2.5 17q0 9 3 20t14 26l150 213q22 31 42 38t33 7q9 0 21.5 -2.5t24 -11.5t20 -26t8.5 -45v-184h15
q17 0 27.5 -5t16 -12.5t7.5 -15.5t2 -14t-2 -14t-7.5 -15.5t-16 -12.5t-27.5 -5h-15zM190 457q-15 0 -24 4.5t-14.5 11t-7 14t-1.5 12.5t1.5 12.5t7 14t14.5 11t24 4.5q26 0 45 10t19 36q0 17 -11.5 27.5t-31.5 10.5q-12 0 -23.5 -5.5t-22.5 -19.5q-8 -9 -18 -15.5t-25 -6.5
q-21 0 -36 14t-15 35q0 23 19 42q25 26 57.5 38.5t68.5 12.5q30 0 57.5 -7t48.5 -22t34 -38t13 -54q0 -34 -15.5 -58t-41.5 -37q32 -11 49.5 -38t17.5 -62q0 -36 -14.5 -62t-38 -42.5t-52.5 -24.5t-59 -8q-37 0 -72 11t-63 39q-22 22 -22 46q0 22 15.5 36.5t36.5 14.5
q13 0 23.5 -6t24.5 -20q12 -13 25.5 -18.5t27.5 -5.5q20 0 36.5 11t16.5 35q0 26 -21 36.5t-53 10.5zM335 11q-11 -20 -23 -27t-23 -7q-19 0 -33.5 13t-14.5 33q0 5 1.5 11.5t6.5 17.5l344 649q11 20 23 26t23 6q19 0 33.5 -13t14.5 -33q0 -5 -1.5 -11.5t-6.5 -17.5z" />
    <glyph glyph-name="questiondown" unicode="&#xbf;" horiz-adv-x="546" 
d="M166.023 423.005q0 39.998 27.998 67.4961t68.9961 27.498q19.998 0 37.4971 -6.99902q17.499 -7 30.998 -19.999q13.5 -12.999 21.499 -29.998q8 -16.999 8 -36.998q0 -18.999 -7.5 -36.4971q-7.49902 -17.499 -20.999 -30.499q-13.499 -12.999 -31.498 -20.498
q-17.999 -7.5 -37.9971 -7.5q-19.999 0 -37.498 7.5q-17.499 7.49902 -30.998 19.998q-13.499 12.5 -20.999 29.999q-7.49902 17.498 -7.49902 36.4971zM336.013 -32.9668q15.999 29.998 33.998 41.4971t40.9971 11.499q33.998 0 55.4971 -21.498
q21.499 -21.499 21.499 -54.4971q0 -7.99902 -2 -21.998t-12.999 -30.998q-32.998 -53.9971 -89.9951 -81.9951q-56.9961 -27.999 -126.992 -27.999q-44.9971 0 -87.4941 11.5q-42.498 11.499 -75.4961 35.9971q-32.998 24.499 -52.9961 62.4971
q-19.999 37.9971 -19.999 89.9941q0 32.998 7.99902 57.9961q8 24.999 22.499 45.9971q14.499 20.999 34.998 39.498t46.4971 38.498q22.998 18.998 32.998 31.498q9.99902 12.499 17.999 35.4971q13.999 41.998 36.9971 53.4971q22.999 11.499 42.998 11.499
q9.99902 0 23.498 -3.49902q13.499 -3.5 25.499 -12q11.999 -8.49902 20.498 -23.498q8.5 -14.999 8.5 -38.998q0 -31.998 -20.499 -59.9961t-57.4961 -62.9961l-32.998 -30.998q-18.999 -16.999 -29.998 -32.498q-11 -15.499 -11 -38.498q0 -31.998 19.499 -50.9971
q19.499 -18.998 53.4971 -18.998q25.998 0 44.4971 11.999t29.498 32.998z" />
    <glyph glyph-name="Agrave" unicode="&#xc0;" horiz-adv-x="729" 
d="M515 139h-305l-35 -85q-17 -40 -40.5 -52t-43.5 -12q-33 0 -58 21.5t-25 60.5q0 10 2 21t9 27l234 514q12 27 26.5 43.5t29.5 25.5t29.5 12t27.5 3t27.5 -2.5t29 -11.5t29 -25.5t26.5 -44.5l232 -512q6 -14 8 -26t2 -20q0 -42 -26 -64t-59 -22q-21 0 -45.5 12t-40.5 53z
M266 276h193l-96 235zM239 821q-29 19 -36 35t-7 28q0 23 16 39t40 16q11 0 23 -4t35 -21l65 -47q29 -20 35 -34.5t6 -26.5q0 -21 -14.5 -36.5t-38.5 -15.5q-11 0 -23 4t-33 18z" />
    <glyph glyph-name="Aacute" unicode="&#xc1;" horiz-adv-x="729" 
d="M515 139h-305l-35 -85q-17 -40 -40.5 -52t-43.5 -12q-33 0 -58 21.5t-25 60.5q0 10 2 21t9 27l234 514q12 27 26.5 43.5t29.5 25.5t29.5 12t27.5 3t27.5 -2.5t29 -11.5t29 -25.5t26.5 -44.5l232 -512q6 -14 8 -26t2 -20q0 -42 -26 -64t-59 -22q-21 0 -45.5 12t-40.5 53z
M266 276h193l-96 235zM425 776q-21 -14 -33 -18t-23 -4q-24 0 -38.5 15.5t-14.5 36.5q0 12 6 26.5t35 34.5l65 47q23 17 35 21t23 4q24 0 40 -16t16 -39q0 -12 -7 -28t-36 -35z" />
    <glyph glyph-name="Acircumflex" unicode="&#xc2;" horiz-adv-x="729" 
d="M515 139h-305l-35 -85q-17 -40 -40.5 -52t-43.5 -12q-33 0 -58 21.5t-25 60.5q0 10 2 21t9 27l234 514q12 27 26.5 43.5t29.5 25.5t29.5 12t27.5 3t27.5 -2.5t29 -11.5t29 -25.5t26.5 -44.5l232 -512q6 -14 8 -26t2 -20q0 -42 -26 -64t-59 -22q-21 0 -45.5 12t-40.5 53z
M266 276h193l-96 235zM286 772q-23 -18 -42 -18q-21 0 -34 14t-13 33q0 9 4.5 20.5t20.5 24.5l81 66q17 14 30.5 20.5t30.5 6.5t30.5 -6.5t30.5 -20.5l82 -66q16 -13 20 -24.5t4 -20.5q0 -19 -13.5 -33t-34.5 -14q-20 0 -42 18l-75 63z" />
    <glyph glyph-name="Atilde" unicode="&#xc3;" horiz-adv-x="729" 
d="M515 139h-305l-35 -85q-17 -40 -40.5 -52t-43.5 -12q-33 0 -58 21.5t-25 60.5q0 10 2 21t9 27l234 514q12 27 26.5 43.5t29.5 25.5t29.5 12t27.5 3t27.5 -2.5t29 -11.5t29 -25.5t26.5 -44.5l232 -512q6 -14 8 -26t2 -20q0 -42 -26 -64t-59 -22q-21 0 -45.5 12t-40.5 53z
M266 276h193l-96 235zM462 878q12 17 22.5 23t21.5 6q18 0 29.5 -10.5t11.5 -29.5q0 -5 -1 -10.5t-4 -13.5q-14 -33 -40 -54.5t-70 -21.5q-21 0 -39 5t-37 16q-23 13 -33.5 16.5t-21.5 3.5q-19 0 -33 -18q-12 -17 -22.5 -23t-21.5 -6q-18 0 -29.5 10.5t-11.5 29.5q0 11 5 24
q14 33 40 54.5t70 21.5q21 0 39 -5t37 -16q23 -13 33.5 -16.5t21.5 -3.5q19 0 33 18z" />
    <glyph glyph-name="Adieresis" unicode="&#xc4;" horiz-adv-x="729" 
d="M515 139h-305l-35 -85q-17 -40 -40.5 -52t-43.5 -12q-33 0 -58 21.5t-25 60.5q0 10 2 21t9 27l234 514q12 27 26.5 43.5t29.5 25.5t29.5 12t27.5 3t27.5 -2.5t29 -11.5t29 -25.5t26.5 -44.5l232 -512q6 -14 8 -26t2 -20q0 -42 -26 -64t-59 -22q-21 0 -45.5 12t-40.5 53z
M266 276h193l-96 235zM557 850q0 -35 -24.5 -58.5t-58.5 -23.5q-35 0 -59 24t-24 58q0 16 6.5 30.5t17.5 26t26 18t33 6.5q34 0 58.5 -23.5t24.5 -57.5zM340 850q0 -35 -24.5 -58.5t-59.5 -23.5t-59 24t-24 58q0 16 6.5 30.5t17.5 26t26.5 18t32.5 6.5q35 0 59.5 -23.5
t24.5 -57.5z" />
    <glyph glyph-name="Aring" unicode="&#xc5;" horiz-adv-x="729" 
d="M515 139h-305l-35 -85q-17 -40 -40.5 -52t-43.5 -12q-33 0 -58 21.5t-25 60.5q0 10 2 21t9 27l234 514q12 27 26.5 43.5t29.5 25.5t29.5 12t27.5 3t27.5 -2.5t29 -11.5t29 -25.5t26.5 -44.5l232 -512q6 -14 8 -26t2 -20q0 -42 -26 -64t-59 -22q-21 0 -45.5 12t-40.5 53z
M266 276h193l-96 235zM475 856q0 -23 -8.5 -43t-23.5 -34t-35 -22t-42 -8q-23 0 -42.5 8t-34.5 22t-23.5 33.5t-8.5 42.5q0 47 31.5 77.5t77.5 30.5q22 0 42 -8t35 -22.5t23.5 -34t8.5 -42.5zM425 856q0 25 -17 41.5t-42 16.5q-26 0 -42.5 -17t-16.5 -42q0 -24 17 -40.5
t42 -16.5t42 16.5t17 41.5z" />
    <glyph glyph-name="AE" unicode="&#xc6;" horiz-adv-x="1033" 
d="M254 153l-68 -111q-20 -32 -40.5 -42t-38.5 -10q-35 0 -59 22.5t-24 58.5q0 11 3 25t13 30l339 529q16 25 38.5 39t55.5 14h431q26 0 42 -8t24.5 -19.5t11.5 -23.5t3 -21t-3 -21.5t-11.5 -24t-24.5 -19.5t-42 -8h-227v-133h212q26 0 41.5 -7.5t24 -18.5t11 -22.5
t2.5 -19.5t-2.5 -20t-11 -23t-24 -18.5t-41.5 -7.5h-212v-147h245q26 0 42 -8t24.5 -19.5t11.5 -24t3 -21.5t-3 -21.5t-11.5 -24t-24.5 -19.5t-42 -8h-312q-51 0 -73.5 23.5t-22.5 74.5v55h-260zM338 291h176v272h-10z" />
    <glyph glyph-name="Ccedilla" unicode="&#xc7;" horiz-adv-x="696" 
d="M384 -240q-25 0 -47.5 4t-39.5 9q-30 9 -30 33q0 14 8.5 23.5t22.5 9.5q5 0 11.5 -1.5t11.5 -3.5q27 -8 55 -8q8 0 16.5 1.5t16 5t12.5 9.5t5 16q0 28 -40 28q-6 0 -11.5 -0.5t-10.5 -1.5t-9.5 -1.5t-9.5 -0.5q-16 0 -23.5 7.5t-7.5 18.5t12 27l37 50q-71 9 -130 39.5
t-102 78.5t-67 112t-24 140q0 85 29.5 154t81.5 117.5t122 74.5t151 26q28 0 56.5 -4t54 -11t47 -16t35.5 -19q27 -20 34 -38.5t7 -34.5q0 -33 -22.5 -55t-55.5 -22q-12 0 -25 4t-33 17q-17 11 -40 17.5t-52 6.5q-45 0 -82.5 -16.5t-64.5 -45.5t-42 -68.5t-15 -86.5
q0 -48 15 -88t41.5 -68.5t63.5 -44.5t81 -16q29 0 52 6t50 25q22 15 35 19t25 4q31 0 53.5 -21t22.5 -56q0 -16 -8 -34.5t-31 -36.5q-27 -23 -75.5 -41t-108.5 -21l-32 -42q5 1 9 1h9q18 0 36.5 -3.5t33 -12.5t24 -25.5t9.5 -41.5q0 -29 -14 -48t-36 -30t-47.5 -15.5
t-49.5 -4.5z" />
    <glyph glyph-name="Egrave" unicode="&#xc8;" horiz-adv-x="607" 
d="M463 430q26 0 41.5 -7.5t24 -18.5t11 -22.5t2.5 -19.5t-2.5 -20t-11 -23t-24 -18.5t-41.5 -7.5h-225v-147h258q26 0 42 -8t24.5 -19.5t11.5 -24t3 -21.5t-3 -21.5t-11.5 -24t-24.5 -19.5t-42 -8h-325q-98 0 -98 98v512q0 98 98 98h307q26 0 42 -8t24.5 -19.5t11.5 -23.5
t3 -21t-3 -21.5t-11.5 -24t-24.5 -19.5t-42 -8h-240v-133h225zM216 821q-29 19 -36 35t-7 28q0 23 16 39t40 16q11 0 23 -4t35 -21l65 -47q29 -20 35 -34.5t6 -26.5q0 -21 -14.5 -36.5t-38.5 -15.5q-11 0 -23 4t-33 18z" />
    <glyph glyph-name="Eacute" unicode="&#xc9;" horiz-adv-x="607" 
d="M463 430q26 0 41.5 -7.5t24 -18.5t11 -22.5t2.5 -19.5t-2.5 -20t-11 -23t-24 -18.5t-41.5 -7.5h-225v-147h258q26 0 42 -8t24.5 -19.5t11.5 -24t3 -21.5t-3 -21.5t-11.5 -24t-24.5 -19.5t-42 -8h-325q-98 0 -98 98v512q0 98 98 98h307q26 0 42 -8t24.5 -19.5t11.5 -23.5
t3 -21t-3 -21.5t-11.5 -24t-24.5 -19.5t-42 -8h-240v-133h225zM363 776q-21 -14 -33 -18t-23 -4q-24 0 -38.5 15.5t-14.5 36.5q0 12 6 26.5t35 34.5l65 47q23 17 35 21t23 4q24 0 40 -16t16 -39q0 -12 -7 -28t-36 -35z" />
    <glyph glyph-name="Ecircumflex" unicode="&#xca;" horiz-adv-x="607" 
d="M463 430q26 0 41.5 -7.5t24 -18.5t11 -22.5t2.5 -19.5t-2.5 -20t-11 -23t-24 -18.5t-41.5 -7.5h-225v-147h258q26 0 42 -8t24.5 -19.5t11.5 -24t3 -21.5t-3 -21.5t-11.5 -24t-24.5 -19.5t-42 -8h-325q-98 0 -98 98v512q0 98 98 98h307q26 0 42 -8t24.5 -19.5t11.5 -23.5
t3 -21t-3 -21.5t-11.5 -24t-24.5 -19.5t-42 -8h-240v-133h225zM244 772q-23 -18 -42 -18q-21 0 -34 14t-13 33q0 9 4.5 20.5t20.5 24.5l81 66q17 14 30.5 20.5t30.5 6.5t30.5 -6.5t30.5 -20.5l82 -66q16 -13 20 -24.5t4 -20.5q0 -19 -13.5 -33t-34.5 -14q-20 0 -42 18
l-75 63z" />
    <glyph glyph-name="Edieresis" unicode="&#xcb;" horiz-adv-x="607" 
d="M463 430q26 0 41.5 -7.5t24 -18.5t11 -22.5t2.5 -19.5t-2.5 -20t-11 -23t-24 -18.5t-41.5 -7.5h-225v-147h258q26 0 42 -8t24.5 -19.5t11.5 -24t3 -21.5t-3 -21.5t-11.5 -24t-24.5 -19.5t-42 -8h-325q-98 0 -98 98v512q0 98 98 98h307q26 0 42 -8t24.5 -19.5t11.5 -23.5
t3 -21t-3 -21.5t-11.5 -24t-24.5 -19.5t-42 -8h-240v-133h225zM513 850q0 -35 -24.5 -58.5t-58.5 -23.5q-35 0 -59 24t-24 58q0 16 6.5 30.5t17.5 26t26 18t33 6.5q34 0 58.5 -23.5t24.5 -57.5zM296 850q0 -35 -24.5 -58.5t-59.5 -23.5t-59 24t-24 58q0 16 6.5 30.5t17.5 26
t26.5 18t32.5 6.5q35 0 59.5 -23.5t24.5 -57.5z" />
    <glyph glyph-name="Igrave" unicode="&#xcc;" horiz-adv-x="318" 
d="M73 622q0 31 9.5 49.5t23 29t28 14t25.5 3.5q10 0 25 -3.5t28.5 -14t23 -29t9.5 -49.5v-536q0 -31 -9.5 -49.5t-23 -29t-28.5 -14t-25 -3.5q-11 0 -25.5 3.5t-28 14t-23 29t-9.5 49.5v536zM39 821q-29 19 -36 35t-7 28q0 23 16 39t40 16q11 0 23 -4t35 -21l65 -47
q29 -20 35 -34.5t6 -26.5q0 -21 -14.5 -36.5t-38.5 -15.5q-11 0 -23 4t-33 18z" />
    <glyph glyph-name="Iacute" unicode="&#xcd;" horiz-adv-x="318" 
d="M73 622q0 31 9.5 49.5t23 29t28 14t25.5 3.5q10 0 25 -3.5t28.5 -14t23 -29t9.5 -49.5v-536q0 -31 -9.5 -49.5t-23 -29t-28.5 -14t-25 -3.5q-11 0 -25.5 3.5t-28 14t-23 29t-9.5 49.5v536zM212 776q-21 -14 -33 -18t-23 -4q-24 0 -38.5 15.5t-14.5 36.5q0 12 6 26.5
t35 34.5l65 47q23 17 35 21t23 4q24 0 40 -16t16 -39q0 -12 -7 -28t-36 -35z" />
    <glyph glyph-name="Icircumflex" unicode="&#xce;" horiz-adv-x="318" 
d="M73 622q0 31 9.5 49.5t23 29t28 14t25.5 3.5q10 0 25 -3.5t28.5 -14t23 -29t9.5 -49.5v-536q0 -31 -9.5 -49.5t-23 -29t-28.5 -14t-25 -3.5q-11 0 -25.5 3.5t-28 14t-23 29t-9.5 49.5v536zM81 772q-23 -18 -42 -18q-21 0 -34 14t-13 33q0 9 4.5 20.5t20.5 24.5l81 66
q17 14 30.5 20.5t30.5 6.5t30.5 -6.5t30.5 -20.5l82 -66q16 -13 20 -24.5t4 -20.5q0 -19 -13.5 -33t-34.5 -14q-20 0 -42 18l-75 63z" />
    <glyph glyph-name="Idieresis" unicode="&#xcf;" horiz-adv-x="318" 
d="M73 622q0 31 9.5 49.5t23 29t28 14t25.5 3.5q10 0 25 -3.5t28.5 -14t23 -29t9.5 -49.5v-536q0 -31 -9.5 -49.5t-23 -29t-28.5 -14t-25 -3.5q-11 0 -25.5 3.5t-28 14t-23 29t-9.5 49.5v536zM351 850q0 -35 -24.5 -58.5t-58.5 -23.5q-35 0 -59 24t-24 58q0 16 6.5 30.5
t17.5 26t26 18t33 6.5q34 0 58.5 -23.5t24.5 -57.5zM134 850q0 -35 -24.5 -58.5t-59.5 -23.5t-59 24t-24 58q0 16 6.5 30.5t17.5 26t26.5 18t32.5 6.5q35 0 59.5 -23.5t24.5 -57.5z" />
    <glyph glyph-name="Eth" unicode="&#xd0;" horiz-adv-x="774" 
d="M171 0q-98 0 -98 98v211h-10q-20 0 -31.5 6t-18 14.5t-8.5 17.5t-2 16q0 6 2 15.5t8.5 17.5t18 14t31.5 6h10v194q0 98 98 98h158q75 0 148 -17.5t130 -58t92 -108.5t35 -168q0 -93 -34.5 -160.5t-91 -111t-127.5 -64t-144 -20.5h-166zM556 356q0 60 -19.5 99.5t-52 63
t-74 33.5t-85.5 10h-85v-146h132q19 0 31 -6t18.5 -14t8.5 -17.5t2 -15.5q0 -7 -2 -16t-8.5 -17.5t-18.5 -14.5t-31 -6h-132v-161h81q46 0 88.5 10.5t75 34.5t52 64t19.5 99z" />
    <glyph glyph-name="Ntilde" unicode="&#xd1;" horiz-adv-x="790" 
d="M238 447h-3l3 -365q0 -30 -9 -48t-22 -27.5t-27.5 -13t-24.5 -3.5t-24 3.5t-27 13t-22 27.5t-9 48v519q0 37 11.5 60t28 36t33.5 17t29 4q28 0 54.5 -14t53.5 -53l269 -389h3l-3 364q0 30 9 48t21.5 27.5t27 13t24.5 3.5t24.5 -3.5t27.5 -13t22 -27.5t9 -48v-519
q0 -38 -11.5 -60.5t-28 -35.5t-33.5 -17t-29 -4q-28 0 -54.5 14t-53.5 53zM496 878q12 17 22.5 23t21.5 6q18 0 29.5 -10.5t11.5 -29.5q0 -5 -1 -10.5t-4 -13.5q-14 -33 -40 -54.5t-70 -21.5q-21 0 -39 5t-37 16q-23 13 -33.5 16.5t-21.5 3.5q-19 0 -33 -18
q-12 -17 -22.5 -23t-21.5 -6q-18 0 -29.5 10.5t-11.5 29.5q0 11 5 24q14 33 40 54.5t70 21.5q21 0 39 -5t37 -16q23 -13 33.5 -16.5t21.5 -3.5q19 0 33 18z" />
    <glyph glyph-name="Ograve" unicode="&#xd2;" horiz-adv-x="851" 
d="M811 357q0 -84 -29 -153.5t-80.5 -119t-122.5 -76.5t-154 -27t-153.5 27t-122 76.5t-80.5 119t-29 153.5q0 85 29 153.5t80.5 116.5t122 74t153.5 26t154 -26t122.5 -74t80.5 -116.5t29 -153.5zM628 357q0 46 -15 86t-41.5 68.5t-64 45t-82.5 16.5t-82 -16.5t-64 -45
t-41.5 -68.5t-14.5 -86q0 -48 15 -88.5t41.5 -69.5t63.5 -45.5t82 -16.5t82 16.5t64 45.5t42 69.5t15 88.5zM330 821q-29 19 -36 35t-7 28q0 23 16 39t40 16q11 0 23 -4t35 -21l65 -47q29 -20 35 -34.5t6 -26.5q0 -21 -14.5 -36.5t-38.5 -15.5q-11 0 -23 4t-33 18z" />
    <glyph glyph-name="Oacute" unicode="&#xd3;" horiz-adv-x="851" 
d="M811 357q0 -84 -29 -153.5t-80.5 -119t-122.5 -76.5t-154 -27t-153.5 27t-122 76.5t-80.5 119t-29 153.5q0 85 29 153.5t80.5 116.5t122 74t153.5 26t154 -26t122.5 -74t80.5 -116.5t29 -153.5zM628 357q0 46 -15 86t-41.5 68.5t-64 45t-82.5 16.5t-82 -16.5t-64 -45
t-41.5 -68.5t-14.5 -86q0 -48 15 -88.5t41.5 -69.5t63.5 -45.5t82 -16.5t82 16.5t64 45.5t42 69.5t15 88.5zM464 776q-21 -14 -33 -18t-23 -4q-24 0 -38.5 15.5t-14.5 36.5q0 12 6 26.5t35 34.5l65 47q23 17 35 21t23 4q24 0 40 -16t16 -39q0 -12 -7 -28t-36 -35z" />
    <glyph glyph-name="Ocircumflex" unicode="&#xd4;" horiz-adv-x="851" 
d="M811 357q0 -84 -29 -153.5t-80.5 -119t-122.5 -76.5t-154 -27t-153.5 27t-122 76.5t-80.5 119t-29 153.5q0 85 29 153.5t80.5 116.5t122 74t153.5 26t154 -26t122.5 -74t80.5 -116.5t29 -153.5zM628 357q0 46 -15 86t-41.5 68.5t-64 45t-82.5 16.5t-82 -16.5t-64 -45
t-41.5 -68.5t-14.5 -86q0 -48 15 -88.5t41.5 -69.5t63.5 -45.5t82 -16.5t82 16.5t64 45.5t42 69.5t15 88.5zM348 772q-23 -18 -42 -18q-21 0 -34 14t-13 33q0 9 4.5 20.5t20.5 24.5l81 66q17 14 30.5 20.5t30.5 6.5t30.5 -6.5t30.5 -20.5l82 -66q16 -13 20 -24.5t4 -20.5
q0 -19 -13.5 -33t-34.5 -14q-20 0 -42 18l-75 63z" />
    <glyph glyph-name="Otilde" unicode="&#xd5;" horiz-adv-x="851" 
d="M811 357q0 -84 -29 -153.5t-80.5 -119t-122.5 -76.5t-154 -27t-153.5 27t-122 76.5t-80.5 119t-29 153.5q0 85 29 153.5t80.5 116.5t122 74t153.5 26t154 -26t122.5 -74t80.5 -116.5t29 -153.5zM628 357q0 46 -15 86t-41.5 68.5t-64 45t-82.5 16.5t-82 -16.5t-64 -45
t-41.5 -68.5t-14.5 -86q0 -48 15 -88.5t41.5 -69.5t63.5 -45.5t82 -16.5t82 16.5t64 45.5t42 69.5t15 88.5zM524 878q12 17 22.5 23t21.5 6q18 0 29.5 -10.5t11.5 -29.5q0 -5 -1 -10.5t-4 -13.5q-14 -33 -40 -54.5t-70 -21.5q-21 0 -39 5t-37 16q-23 13 -33.5 16.5
t-21.5 3.5q-19 0 -33 -18q-12 -17 -22.5 -23t-21.5 -6q-18 0 -29.5 10.5t-11.5 29.5q0 11 5 24q14 33 40 54.5t70 21.5q21 0 39 -5t37 -16q23 -13 33.5 -16.5t21.5 -3.5q19 0 33 18z" />
    <glyph glyph-name="Odieresis" unicode="&#xd6;" horiz-adv-x="851" 
d="M811 357q0 -84 -29 -153.5t-80.5 -119t-122.5 -76.5t-154 -27t-153.5 27t-122 76.5t-80.5 119t-29 153.5q0 85 29 153.5t80.5 116.5t122 74t153.5 26t154 -26t122.5 -74t80.5 -116.5t29 -153.5zM628 357q0 46 -15 86t-41.5 68.5t-64 45t-82.5 16.5t-82 -16.5t-64 -45
t-41.5 -68.5t-14.5 -86q0 -48 15 -88.5t41.5 -69.5t63.5 -45.5t82 -16.5t82 16.5t64 45.5t42 69.5t15 88.5zM618 850q0 -35 -24.5 -58.5t-58.5 -23.5q-35 0 -59 24t-24 58q0 16 6.5 30.5t17.5 26t26 18t33 6.5q34 0 58.5 -23.5t24.5 -57.5zM401 850q0 -35 -24.5 -58.5
t-59.5 -23.5t-59 24t-24 58q0 16 6.5 30.5t17.5 26t26.5 18t32.5 6.5q35 0 59.5 -23.5t24.5 -57.5z" />
    <glyph glyph-name="multiply" unicode="&#xd7;" horiz-adv-x="666" 
d="M332 210l-132 -130q-14 -14 -27 -19t-24 -5q-25 0 -44.5 18.5t-19.5 44.5q0 11 5 24.5t19 27.5l131 130l-132 129q-14 14 -19 28t-5 25q0 26 19.5 44.5t44.5 18.5q11 0 24 -4.5t28 -19.5l133 -129l131 129q14 14 27 19t24 5q24 0 43.5 -18t19.5 -44q0 -11 -5.5 -24.5
t-19.5 -27.5l-129 -127l135 -133q14 -14 18.5 -25.5t4.5 -25.5q0 -27 -19 -46t-45 -19q-11 0 -24.5 4.5t-27.5 18.5z" />
    <glyph glyph-name="Oslash" unicode="&#xd8;" horiz-adv-x="851" 
d="M635 356q0 38 -9 71t-29 59l-292 -318q46 -37 119 -37q48 0 87 17.5t66.5 47.5t42.5 71t15 89zM214 355q0 -73 31 -120l290 315q-20 14 -48.5 21.5t-61.5 7.5q-50 0 -89 -17.5t-66 -48t-41.5 -71.5t-14.5 -87zM136 -12q-11 -12 -20.5 -16t-17.5 -4q-19 0 -31.5 12
t-12.5 31q0 7 3 16t13 20l58 63q-43 46 -65.5 109t-22.5 137q0 85 29 153.5t80.5 116.5t122 74t153.5 26q126 0 219 -58l58 65q11 12 20.5 16t17.5 4q19 0 31.5 -12t12.5 -31q0 -7 -3 -16t-13 -20l-56 -61q48 -49 73.5 -113t25.5 -144q0 -84 -29.5 -152.5t-81 -117.5
t-122.5 -76.5t-154 -27.5h-5q-66 0 -123 17.5t-101 51.5z" />
    <glyph glyph-name="Ugrave" unicode="&#xd9;" horiz-adv-x="738" 
d="M502 623q0 31 9.5 49.5t23 28.5t28 13.5t25.5 3.5q10 0 25 -3.5t28 -13.5t22.5 -28.5t9.5 -49.5v-356q0 -64 -21.5 -116.5t-61.5 -90t-96.5 -58.5t-125.5 -21q-70 0 -126 21t-95 58.5t-60 90t-21 116.5v356q0 31 9.5 49.5t22.5 28.5t27.5 13.5t25.5 3.5q10 0 25 -3.5
t28 -13.5t22.5 -28.5t9.5 -49.5v-342q0 -29 7.5 -55t23 -46.5t41 -32.5t61.5 -12t61.5 12t41.5 32.5t23 46.5t7 55v342zM274 821q-29 19 -36 35t-7 28q0 23 16 39t40 16q11 0 23 -4t35 -21l65 -47q29 -20 35 -34.5t6 -26.5q0 -21 -14.5 -36.5t-38.5 -15.5q-11 0 -23 4
t-33 18z" />
    <glyph glyph-name="Uacute" unicode="&#xda;" horiz-adv-x="738" 
d="M502 623q0 31 9.5 49.5t23 28.5t28 13.5t25.5 3.5q10 0 25 -3.5t28 -13.5t22.5 -28.5t9.5 -49.5v-356q0 -64 -21.5 -116.5t-61.5 -90t-96.5 -58.5t-125.5 -21q-70 0 -126 21t-95 58.5t-60 90t-21 116.5v356q0 31 9.5 49.5t22.5 28.5t27.5 13.5t25.5 3.5q10 0 25 -3.5
t28 -13.5t22.5 -28.5t9.5 -49.5v-342q0 -29 7.5 -55t23 -46.5t41 -32.5t61.5 -12t61.5 12t41.5 32.5t23 46.5t7 55v342zM401 776q-21 -14 -33 -18t-23 -4q-24 0 -38.5 15.5t-14.5 36.5q0 12 6 26.5t35 34.5l65 47q23 17 35 21t23 4q24 0 40 -16t16 -39q0 -12 -7 -28t-36 -35
z" />
    <glyph glyph-name="Ucircumflex" unicode="&#xdb;" horiz-adv-x="738" 
d="M502 623q0 31 9.5 49.5t23 28.5t28 13.5t25.5 3.5q10 0 25 -3.5t28 -13.5t22.5 -28.5t9.5 -49.5v-356q0 -64 -21.5 -116.5t-61.5 -90t-96.5 -58.5t-125.5 -21q-70 0 -126 21t-95 58.5t-60 90t-21 116.5v356q0 31 9.5 49.5t22.5 28.5t27.5 13.5t25.5 3.5q10 0 25 -3.5
t28 -13.5t22.5 -28.5t9.5 -49.5v-342q0 -29 7.5 -55t23 -46.5t41 -32.5t61.5 -12t61.5 12t41.5 32.5t23 46.5t7 55v342zM293 772q-23 -18 -42 -18q-21 0 -34 14t-13 33q0 9 4.5 20.5t20.5 24.5l81 66q17 14 30.5 20.5t30.5 6.5t30.5 -6.5t30.5 -20.5l82 -66q16 -13 20 -24.5
t4 -20.5q0 -19 -13.5 -33t-34.5 -14q-20 0 -42 18l-75 63z" />
    <glyph glyph-name="Udieresis" unicode="&#xdc;" horiz-adv-x="738" 
d="M502 623q0 31 9.5 49.5t23 28.5t28 13.5t25.5 3.5q10 0 25 -3.5t28 -13.5t22.5 -28.5t9.5 -49.5v-356q0 -64 -21.5 -116.5t-61.5 -90t-96.5 -58.5t-125.5 -21q-70 0 -126 21t-95 58.5t-60 90t-21 116.5v356q0 31 9.5 49.5t22.5 28.5t27.5 13.5t25.5 3.5q10 0 25 -3.5
t28 -13.5t22.5 -28.5t9.5 -49.5v-342q0 -29 7.5 -55t23 -46.5t41 -32.5t61.5 -12t61.5 12t41.5 32.5t23 46.5t7 55v342zM562 850q0 -35 -24.5 -58.5t-58.5 -23.5q-35 0 -59 24t-24 58q0 16 6.5 30.5t17.5 26t26 18t33 6.5q34 0 58.5 -23.5t24.5 -57.5zM345 850
q0 -35 -24.5 -58.5t-59.5 -23.5t-59 24t-24 58q0 16 6.5 30.5t17.5 26t26.5 18t32.5 6.5q35 0 59.5 -23.5t24.5 -57.5z" />
    <glyph glyph-name="Yacute" unicode="&#xdd;" horiz-adv-x="669" 
d="M503 669q23 31 42.5 40t36.5 9q32 0 56.5 -21.5t24.5 -56.5q0 -13 -5 -30t-22 -38l-219 -272v-215q0 -31 -9.5 -49.5t-22.5 -28.5t-28 -13.5t-25 -3.5q-11 0 -25.5 3.5t-28 13.5t-23 28.5t-9.5 49.5v215l-213 269q-19 24 -23 39.5t-4 26.5q0 35 24.5 59t60.5 24
q19 0 39 -10t45 -43l163 -219zM389 776q-21 -14 -33 -18t-23 -4q-24 0 -38.5 15.5t-14.5 36.5q0 12 6 26.5t35 34.5l65 47q23 17 35 21t23 4q24 0 40 -16t16 -39q0 -12 -7 -28t-36 -35z" />
    <glyph glyph-name="Thorn" unicode="&#xde;" horiz-adv-x="640" 
d="M439 368q0 26 -10 42t-27 25t-38.5 12t-44.5 3h-75v-168h72q24 0 46 4t39.5 14t27.5 26.5t10 41.5zM73 622q0 31 9.5 49.5t23 29t28 14t25.5 3.5q10 0 24.5 -3.5t28 -14t23 -29t9.5 -49.5v-35h89q58 0 108.5 -11.5t88 -37t59 -67t21.5 -102.5q0 -62 -23 -104.5t-62 -68.5
t-90 -38t-106 -12h-85v-60q0 -31 -9.5 -49.5t-23 -29t-28 -14t-24.5 -3.5q-11 0 -25.5 3.5t-28 14t-23 29t-9.5 49.5v536z" />
    <glyph glyph-name="germandbls" unicode="&#xdf;" horiz-adv-x="667" 
d="M376 -13q-21 0 -40.5 3.5t-34 11.5t-23 22t-8.5 35q0 8 3 20t11 23t23.5 18.5t39.5 7.5q53 0 84.5 23t31.5 79q0 51 -27.5 76.5t-71.5 34.5q-22 4 -35 12.5t-20 18t-9.5 19.5t-2.5 18t1.5 17.5t8.5 19t19.5 18t35.5 14.5q23 7 38 24.5t15 51.5q0 32 -21 56.5t-63 24.5
q-30 0 -50 -12t-31.5 -31.5t-16.5 -43.5t-5 -48v-418q0 -30 -9 -48t-22 -27.5t-27 -13t-24 -3.5t-24 3.5t-27 13t-22 27.5t-9 48v419q0 57 16 106t50 84.5t85.5 56t122.5 20.5q50 0 94 -14t77 -39.5t52 -63t19 -83.5q0 -56 -30 -96t-74 -54v-1q69 -14 111 -65.5t42 -129.5
q0 -55 -18.5 -98.5t-51.5 -74t-79.5 -46.5t-103.5 -16z" />
    <glyph glyph-name="agrave" unicode="&#xe0;" horiz-adv-x="566" 
d="M358 217h-21q-27 0 -54.5 -2.5t-49 -9.5t-35.5 -20.5t-14 -35.5q0 -14 6.5 -24t16.5 -16t23 -8.5t25 -2.5q50 0 76.5 27.5t26.5 74.5v17zM171 360q-20 -10 -38 -10q-24 0 -41 16.5t-17 42.5q0 14 8 30.5t31 30.5q39 24 82 34t83 10q63 0 106.5 -15.5t70.5 -48t39.5 -82
t12.5 -117.5v-175q0 -27 -8.5 -44t-20.5 -26.5t-25 -12.5t-22 -3q-8 0 -19.5 2.5t-22.5 9t-20 19t-12 32.5h-3q-19 -31 -57.5 -48t-83.5 -17q-30 0 -62 8t-58.5 26t-43.5 48t-17 74q0 54 29.5 87t76 51t103.5 24t111 6v8q0 33 -23.5 52.5t-61.5 19.5q-24 0 -48.5 -10
t-48.5 -22zM186 629q-29 19 -36 35t-7 28q0 23 16 39t40 16q11 0 23 -4t35 -21l65 -47q29 -20 35 -34.5t6 -26.5q0 -21 -14.5 -36.5t-38.5 -15.5q-11 0 -23 4t-33 18z" />
    <glyph glyph-name="aacute" unicode="&#xe1;" horiz-adv-x="566" 
d="M358 217h-21q-27 0 -54.5 -2.5t-49 -9.5t-35.5 -20.5t-14 -35.5q0 -14 6.5 -24t16.5 -16t23 -8.5t25 -2.5q50 0 76.5 27.5t26.5 74.5v17zM171 360q-20 -10 -38 -10q-24 0 -41 16.5t-17 42.5q0 14 8 30.5t31 30.5q39 24 82 34t83 10q63 0 106.5 -15.5t70.5 -48t39.5 -82
t12.5 -117.5v-175q0 -27 -8.5 -44t-20.5 -26.5t-25 -12.5t-22 -3q-8 0 -19.5 2.5t-22.5 9t-20 19t-12 32.5h-3q-19 -31 -57.5 -48t-83.5 -17q-30 0 -62 8t-58.5 26t-43.5 48t-17 74q0 54 29.5 87t76 51t103.5 24t111 6v8q0 33 -23.5 52.5t-61.5 19.5q-24 0 -48.5 -10
t-48.5 -22zM316 584q-21 -14 -33 -18t-23 -4q-24 0 -38.5 15.5t-14.5 36.5q0 12 6 26.5t35 34.5l65 47q23 17 35 21t23 4q24 0 40 -16t16 -39q0 -12 -7 -28t-36 -35z" />
    <glyph glyph-name="acircumflex" unicode="&#xe2;" horiz-adv-x="566" 
d="M358 217h-21q-27 0 -54.5 -2.5t-49 -9.5t-35.5 -20.5t-14 -35.5q0 -14 6.5 -24t16.5 -16t23 -8.5t25 -2.5q50 0 76.5 27.5t26.5 74.5v17zM171 360q-20 -10 -38 -10q-24 0 -41 16.5t-17 42.5q0 14 8 30.5t31 30.5q39 24 82 34t83 10q63 0 106.5 -15.5t70.5 -48t39.5 -82
t12.5 -117.5v-175q0 -27 -8.5 -44t-20.5 -26.5t-25 -12.5t-22 -3q-8 0 -19.5 2.5t-22.5 9t-20 19t-12 32.5h-3q-19 -31 -57.5 -48t-83.5 -17q-30 0 -62 8t-58.5 26t-43.5 48t-17 74q0 54 29.5 87t76 51t103.5 24t111 6v8q0 33 -23.5 52.5t-61.5 19.5q-24 0 -48.5 -10
t-48.5 -22zM205 580q-23 -18 -42 -18q-21 0 -34 14t-13 33q0 9 4.5 20.5t20.5 24.5l81 66q17 14 30.5 20.5t30.5 6.5t30.5 -6.5t30.5 -20.5l82 -66q16 -13 20 -24.5t4 -20.5q0 -19 -13.5 -33t-34.5 -14q-20 0 -42 18l-75 63z" />
    <glyph glyph-name="atilde" unicode="&#xe3;" horiz-adv-x="566" 
d="M358 217h-21q-27 0 -54.5 -2.5t-49 -9.5t-35.5 -20.5t-14 -35.5q0 -14 6.5 -24t16.5 -16t23 -8.5t25 -2.5q50 0 76.5 27.5t26.5 74.5v17zM171 360q-20 -10 -38 -10q-24 0 -41 16.5t-17 42.5q0 14 8 30.5t31 30.5q39 24 82 34t83 10q63 0 106.5 -15.5t70.5 -48t39.5 -82
t12.5 -117.5v-175q0 -27 -8.5 -44t-20.5 -26.5t-25 -12.5t-22 -3q-8 0 -19.5 2.5t-22.5 9t-20 19t-12 32.5h-3q-19 -31 -57.5 -48t-83.5 -17q-30 0 -62 8t-58.5 26t-43.5 48t-17 74q0 54 29.5 87t76 51t103.5 24t111 6v8q0 33 -23.5 52.5t-61.5 19.5q-24 0 -48.5 -10
t-48.5 -22zM385 686q12 17 22.5 23t21.5 6q18 0 29.5 -10.5t11.5 -29.5q0 -5 -1 -10.5t-4 -13.5q-14 -33 -40 -54.5t-70 -21.5q-21 0 -39 5t-37 16q-23 13 -33.5 16.5t-21.5 3.5q-19 0 -33 -18q-12 -17 -22.5 -23t-21.5 -6q-18 0 -29.5 10.5t-11.5 29.5q0 11 5 24
q14 33 40 54.5t70 21.5q21 0 39 -5t37 -16q23 -13 33.5 -16.5t21.5 -3.5q19 0 33 18z" />
    <glyph glyph-name="adieresis" unicode="&#xe4;" horiz-adv-x="566" 
d="M358 217h-21q-27 0 -54.5 -2.5t-49 -9.5t-35.5 -20.5t-14 -35.5q0 -14 6.5 -24t16.5 -16t23 -8.5t25 -2.5q50 0 76.5 27.5t26.5 74.5v17zM171 360q-20 -10 -38 -10q-24 0 -41 16.5t-17 42.5q0 14 8 30.5t31 30.5q39 24 82 34t83 10q63 0 106.5 -15.5t70.5 -48t39.5 -82
t12.5 -117.5v-175q0 -27 -8.5 -44t-20.5 -26.5t-25 -12.5t-22 -3q-8 0 -19.5 2.5t-22.5 9t-20 19t-12 32.5h-3q-19 -31 -57.5 -48t-83.5 -17q-30 0 -62 8t-58.5 26t-43.5 48t-17 74q0 54 29.5 87t76 51t103.5 24t111 6v8q0 33 -23.5 52.5t-61.5 19.5q-24 0 -48.5 -10
t-48.5 -22zM477 658q0 -35 -24.5 -58.5t-58.5 -23.5q-35 0 -59 24t-24 58q0 16 6.5 30.5t17.5 26t26 18t33 6.5q34 0 58.5 -23.5t24.5 -57.5zM260 658q0 -35 -24.5 -58.5t-59.5 -23.5t-59 24t-24 58q0 16 6.5 30.5t17.5 26t26.5 18t32.5 6.5q35 0 59.5 -23.5t24.5 -57.5z
" />
    <glyph glyph-name="aring" unicode="&#xe5;" horiz-adv-x="566" 
d="M358 217h-21q-27 0 -54.5 -2.5t-49 -9.5t-35.5 -20.5t-14 -35.5q0 -14 6.5 -24t16.5 -16t23 -8.5t25 -2.5q50 0 76.5 27.5t26.5 74.5v17zM171 360q-20 -10 -38 -10q-24 0 -41 16.5t-17 42.5q0 14 8 30.5t31 30.5q39 24 82 34t83 10q63 0 106.5 -15.5t70.5 -48t39.5 -82
t12.5 -117.5v-175q0 -27 -8.5 -44t-20.5 -26.5t-25 -12.5t-22 -3q-8 0 -19.5 2.5t-22.5 9t-20 19t-12 32.5h-3q-19 -31 -57.5 -48t-83.5 -17q-30 0 -62 8t-58.5 26t-43.5 48t-17 74q0 54 29.5 87t76 51t103.5 24t111 6v8q0 33 -23.5 52.5t-61.5 19.5q-24 0 -48.5 -10
t-48.5 -22zM396 664q0 -23 -8.5 -43t-23.5 -34t-35 -22t-42 -8q-23 0 -42.5 8t-34.5 22t-23.5 33.5t-8.5 42.5q0 47 31.5 77.5t77.5 30.5q22 0 42 -8t35 -22.5t23.5 -34t8.5 -42.5zM346 664q0 25 -17 41.5t-42 16.5q-26 0 -42.5 -17t-16.5 -42q0 -24 17 -40.5t42 -16.5
t42 16.5t17 41.5z" />
    <glyph glyph-name="ae" unicode="&#xe6;" horiz-adv-x="899" 
d="M358 207h-21q-71 0 -112 -11t-41 -47q0 -14 6.5 -24t16.5 -16t23 -8.5t25 -2.5q50 0 76.5 25t26.5 68v16zM709 306q0 39 -24.5 67t-73.5 28q-24 0 -44 -7.5t-35 -20.5t-24 -30.5t-10 -36.5h211zM617 110q29 0 50 6t45 23q19 13 29.5 17t22.5 4q27 0 45 -17t18 -45
q0 -11 -5.5 -26.5t-23.5 -29.5q-32 -26 -78 -42t-106 -16q-59 0 -108.5 23.5t-78.5 66.5q-23 -38 -70.5 -62t-131.5 -24q-32 0 -66 8.5t-62 27t-46 48t-18 72.5q0 52 27 83.5t72 49t102.5 23t118.5 5.5v7q0 42 -24 61t-61 19q-24 0 -48.5 -10t-48.5 -22q-20 -10 -38 -10
q-24 0 -41 16.5t-17 42.5q0 14 8 30.5t31 30.5q39 24 81 34t84 10q62 0 101.5 -22t59.5 -51q27 32 70.5 52.5t100.5 20.5q94 0 158 -51t84 -142q2 -11 3.5 -20t1.5 -18q0 -42 -23 -60.5t-62 -18.5h-274q5 -42 39 -68t79 -26z" />
    <glyph glyph-name="ccedilla" unicode="&#xe7;" horiz-adv-x="503" 
d="M283 -240q-25 0 -47.5 4t-39.5 9q-30 9 -30 33q0 14 8.5 23.5t22.5 9.5q5 0 11.5 -1.5t11.5 -3.5q27 -8 55 -8q8 0 16.5 1.5t16 5t12.5 9.5t5 16q0 28 -40 28q-6 0 -11.5 -0.5t-10.5 -1.5t-9.5 -1.5t-9.5 -0.5q-16 0 -23.5 7.5t-7.5 18.5t12 27l40 53q-49 7 -90.5 28.5
t-71.5 55t-47 78t-17 99.5q0 61 21.5 110t59 83.5t88.5 53t109 18.5q30 0 59 -5.5t51 -16.5q29 -14 38.5 -32t9.5 -34q0 -29 -17 -50t-50 -21q-9 0 -19.5 2.5t-24.5 9.5q-20 10 -44 10q-26 0 -47 -10.5t-36 -28t-23.5 -40.5t-8.5 -49t8 -49t23.5 -40.5t37 -27.5t48.5 -10
q12 0 22.5 2t21.5 7q14 7 24.5 9.5t19.5 2.5q33 0 50 -21t17 -50q0 -16 -10.5 -34t-37.5 -32q-18 -8 -40 -13.5t-45 -7.5l-35 -45q5 1 9 1h9q18 0 36.5 -3.5t33 -12.5t24 -25.5t9.5 -41.5q0 -29 -14 -48t-36 -30t-47.5 -15.5t-49.5 -4.5z" />
    <glyph glyph-name="egrave" unicode="&#xe8;" horiz-adv-x="596" 
d="M407 306q0 39 -24.5 67t-73.5 28q-24 0 -44 -7.5t-35 -20.5t-24 -30.5t-10 -36.5h211zM410 139q19 13 29.5 17t22.5 4q27 0 45 -17t18 -45q0 -11 -5.5 -26.5t-23.5 -29.5q-32 -26 -77.5 -42t-105.5 -16q-56 0 -106 17.5t-87.5 51t-59 82.5t-21.5 112q0 61 21 110.5t57 84
t85 53.5t106 19q94 0 158 -51t84 -142q2 -11 3.5 -20t1.5 -18q0 -42 -23 -60.5t-62 -18.5h-274q2 -21 12.5 -38t27 -29.5t37 -19.5t42.5 -7q29 0 50 6t45 23zM206 629q-29 19 -36 35t-7 28q0 23 16 39t40 16q11 0 23 -4t35 -21l65 -47q29 -20 35 -34.5t6 -26.5
q0 -21 -14.5 -36.5t-38.5 -15.5q-11 0 -23 4t-33 18z" />
    <glyph glyph-name="eacute" unicode="&#xe9;" horiz-adv-x="596" 
d="M407 306q0 39 -24.5 67t-73.5 28q-24 0 -44 -7.5t-35 -20.5t-24 -30.5t-10 -36.5h211zM410 139q19 13 29.5 17t22.5 4q27 0 45 -17t18 -45q0 -11 -5.5 -26.5t-23.5 -29.5q-32 -26 -77.5 -42t-105.5 -16q-56 0 -106 17.5t-87.5 51t-59 82.5t-21.5 112q0 61 21 110.5t57 84
t85 53.5t106 19q94 0 158 -51t84 -142q2 -11 3.5 -20t1.5 -18q0 -42 -23 -60.5t-62 -18.5h-274q2 -21 12.5 -38t27 -29.5t37 -19.5t42.5 -7q29 0 50 6t45 23zM335 584q-21 -14 -33 -18t-23 -4q-24 0 -38.5 15.5t-14.5 36.5q0 12 6 26.5t35 34.5l65 47q23 17 35 21t23 4
q24 0 40 -16t16 -39q0 -12 -7 -28t-36 -35z" />
    <glyph glyph-name="ecircumflex" unicode="&#xea;" horiz-adv-x="596" 
d="M407 306q0 39 -24.5 67t-73.5 28q-24 0 -44 -7.5t-35 -20.5t-24 -30.5t-10 -36.5h211zM410 139q19 13 29.5 17t22.5 4q27 0 45 -17t18 -45q0 -11 -5.5 -26.5t-23.5 -29.5q-32 -26 -77.5 -42t-105.5 -16q-56 0 -106 17.5t-87.5 51t-59 82.5t-21.5 112q0 61 21 110.5t57 84
t85 53.5t106 19q94 0 158 -51t84 -142q2 -11 3.5 -20t1.5 -18q0 -42 -23 -60.5t-62 -18.5h-274q2 -21 12.5 -38t27 -29.5t37 -19.5t42.5 -7q29 0 50 6t45 23zM237 580q-23 -18 -42 -18q-21 0 -34 14t-13 33q0 9 4.5 20.5t20.5 24.5l81 66q17 14 30.5 20.5t30.5 6.5
t30.5 -6.5t30.5 -20.5l82 -66q16 -13 20 -24.5t4 -20.5q0 -19 -13.5 -33t-34.5 -14q-20 0 -42 18l-75 63z" />
    <glyph glyph-name="edieresis" unicode="&#xeb;" horiz-adv-x="596" 
d="M407 306q0 39 -24.5 67t-73.5 28q-24 0 -44 -7.5t-35 -20.5t-24 -30.5t-10 -36.5h211zM410 139q19 13 29.5 17t22.5 4q27 0 45 -17t18 -45q0 -11 -5.5 -26.5t-23.5 -29.5q-32 -26 -77.5 -42t-105.5 -16q-56 0 -106 17.5t-87.5 51t-59 82.5t-21.5 112q0 61 21 110.5t57 84
t85 53.5t106 19q94 0 158 -51t84 -142q2 -11 3.5 -20t1.5 -18q0 -42 -23 -60.5t-62 -18.5h-274q2 -21 12.5 -38t27 -29.5t37 -19.5t42.5 -7q29 0 50 6t45 23zM505 658q0 -35 -24.5 -58.5t-58.5 -23.5q-35 0 -59 24t-24 58q0 16 6.5 30.5t17.5 26t26 18t33 6.5
q34 0 58.5 -23.5t24.5 -57.5zM288 658q0 -35 -24.5 -58.5t-59.5 -23.5t-59 24t-24 58q0 16 6.5 30.5t17.5 26t26.5 18t32.5 6.5q35 0 59.5 -23.5t24.5 -57.5z" />
    <glyph glyph-name="igrave" unicode="&#xec;" horiz-adv-x="296" 
d="M66 416q0 30 9 48t22 27.5t27 13t24 3.5t24 -3.5t27 -13t22 -27.5t9 -48v-334q0 -30 -9 -48t-22 -27.5t-27 -13t-24 -3.5t-24 3.5t-27 13t-22 27.5t-9 48v334zM25 629q-29 19 -36 35t-7 28q0 23 16 39t40 16q11 0 23 -4t35 -21l65 -47q29 -20 35 -34.5t6 -26.5
q0 -21 -14.5 -36.5t-38.5 -15.5q-11 0 -23 4t-33 18z" />
    <glyph glyph-name="iacute" unicode="&#xed;" horiz-adv-x="296" 
d="M66 416q0 30 9 48t22 27.5t27 13t24 3.5t24 -3.5t27 -13t22 -27.5t9 -48v-334q0 -30 -9 -48t-22 -27.5t-27 -13t-24 -3.5t-24 3.5t-27 13t-22 27.5t-9 48v334zM203 584q-21 -14 -33 -18t-23 -4q-24 0 -38.5 15.5t-14.5 36.5q0 12 6 26.5t35 34.5l65 47q23 17 35 21t23 4
q24 0 40 -16t16 -39q0 -12 -7 -28t-36 -35z" />
    <glyph glyph-name="icircumflex" unicode="&#xee;" horiz-adv-x="296" 
d="M66 416q0 30 9 48t22 27.5t27 13t24 3.5t24 -3.5t27 -13t22 -27.5t9 -48v-334q0 -30 -9 -48t-22 -27.5t-27 -13t-24 -3.5t-24 3.5t-27 13t-22 27.5t-9 48v334zM74 580q-23 -18 -42 -18q-21 0 -34 14t-13 33q0 9 4.5 20.5t20.5 24.5l81 66q17 14 30.5 20.5t30.5 6.5
t30.5 -6.5t30.5 -20.5l82 -66q16 -13 20 -24.5t4 -20.5q0 -19 -13.5 -33t-34.5 -14q-20 0 -42 18l-75 63z" />
    <glyph glyph-name="idieresis" unicode="&#xef;" horiz-adv-x="296" 
d="M66 416q0 30 9 48t22 27.5t27 13t24 3.5t24 -3.5t27 -13t22 -27.5t9 -48v-334q0 -30 -9 -48t-22 -27.5t-27 -13t-24 -3.5t-24 3.5t-27 13t-22 27.5t-9 48v334zM342 658q0 -35 -24.5 -58.5t-58.5 -23.5q-35 0 -59 24t-24 58q0 16 6.5 30.5t17.5 26t26 18t33 6.5
q34 0 58.5 -23.5t24.5 -57.5zM125 658q0 -35 -24.5 -58.5t-59.5 -23.5t-59 24t-24 58q0 16 6.5 30.5t17.5 26t26.5 18t32.5 6.5q35 0 59.5 -23.5t24.5 -57.5z" />
    <glyph glyph-name="eth" unicode="&#xf0;" horiz-adv-x="632" 
d="M213 667q-23 20 -30.5 34.5t-7.5 28.5q0 27 19.5 47t48.5 20q15 0 27.5 -7t29.5 -21l50 -43l91 39q17 7 29 7q20 0 33 -14t13 -32q0 -11 -6 -23.5t-29 -22.5l-56 -24q36 -38 67 -80.5t53.5 -89t35 -97.5t12.5 -107q0 -69 -20 -124t-56.5 -94t-87.5 -59.5t-114 -20.5
q-57 0 -107.5 18.5t-88 53t-59 84t-21.5 110.5q0 60 20.5 108t56.5 81.5t84 52t103 18.5q23 0 43.5 -5.5t38.5 -19.5l2 1q-20 31 -44 59t-53 54l-99 -42q-15 -6 -25 -6q-19 0 -32.5 13t-13.5 33q0 12 7 24.5t27 20.5zM435 250q0 24 -8 46.5t-23 40.5t-37.5 29t-51.5 11
t-51 -11t-37 -29t-22.5 -40.5t-7.5 -46.5t8 -47t23 -41t37 -29t51 -11t51 11t37 29t23 41t8 47z" />
    <glyph glyph-name="ntilde" unicode="&#xf1;" horiz-adv-x="616" 
d="M64 420q0 28 8.5 45.5t21 27t26 12.5t23.5 3t23 -3t25.5 -11.5t21.5 -24t10 -40.5h2q9 16 23.5 31.5t34 26.5t42.5 18t49 7q50 0 85 -18t56.5 -46.5t31 -65.5t9.5 -74v-226q0 -30 -9 -48t-22 -27.5t-27.5 -13t-24.5 -3.5t-24 3.5t-27 13t-22 27.5t-9 48v190q0 21 -3.5 40
t-11.5 33.5t-22.5 23t-36.5 8.5t-38.5 -8.5t-27.5 -23.5t-16.5 -34.5t-5.5 -40.5v-188q0 -30 -9 -48t-22 -27.5t-27.5 -13t-24.5 -3.5t-24 3.5t-27 13t-22 27.5t-9 48v338zM409 686q12 17 22.5 23t21.5 6q18 0 29.5 -10.5t11.5 -29.5q0 -5 -1 -10.5t-4 -13.5
q-14 -33 -40 -54.5t-70 -21.5q-21 0 -39 5t-37 16q-23 13 -33.5 16.5t-21.5 3.5q-19 0 -33 -18q-12 -17 -22.5 -23t-21.5 -6q-18 0 -29.5 10.5t-11.5 29.5q0 11 5 24q14 33 40 54.5t70 21.5q21 0 39 -5t37 -16q23 -13 33.5 -16.5t21.5 -3.5q19 0 33 18z" />
    <glyph glyph-name="ograve" unicode="&#xf2;" horiz-adv-x="632" 
d="M592 251q0 -61 -22 -110.5t-60 -84t-88 -53.5t-107 -19q-56 0 -106.5 19t-88 53.5t-59.5 84t-22 110.5t22 110t59.5 83t88 52t106.5 18q57 0 107 -18t88 -52t60 -83t22 -110zM434 251q0 24 -8 47t-23 40.5t-37 28.5t-51 11t-51 -11t-36.5 -28.5t-22 -40.5t-7.5 -47
t7.5 -47t22.5 -41.5t37 -29.5t51 -11t51 11t37 29.5t22.5 41.5t7.5 47zM203 629q-29 19 -36 35t-7 28q0 23 16 39t40 16q11 0 23 -4t35 -21l65 -47q29 -20 35 -34.5t6 -26.5q0 -21 -14.5 -36.5t-38.5 -15.5q-11 0 -23 4t-33 18z" />
    <glyph glyph-name="oacute" unicode="&#xf3;" horiz-adv-x="632" 
d="M592 251q0 -61 -22 -110.5t-60 -84t-88 -53.5t-107 -19q-56 0 -106.5 19t-88 53.5t-59.5 84t-22 110.5t22 110t59.5 83t88 52t106.5 18q57 0 107 -18t88 -52t60 -83t22 -110zM434 251q0 24 -8 47t-23 40.5t-37 28.5t-51 11t-51 -11t-36.5 -28.5t-22 -40.5t-7.5 -47
t7.5 -47t22.5 -41.5t37 -29.5t51 -11t51 11t37 29.5t22.5 41.5t7.5 47zM356 584q-21 -14 -33 -18t-23 -4q-24 0 -38.5 15.5t-14.5 36.5q0 12 6 26.5t35 34.5l65 47q23 17 35 21t23 4q24 0 40 -16t16 -39q0 -12 -7 -28t-36 -35z" />
    <glyph glyph-name="ocircumflex" unicode="&#xf4;" horiz-adv-x="632" 
d="M592 251q0 -61 -22 -110.5t-60 -84t-88 -53.5t-107 -19q-56 0 -106.5 19t-88 53.5t-59.5 84t-22 110.5t22 110t59.5 83t88 52t106.5 18q57 0 107 -18t88 -52t60 -83t22 -110zM434 251q0 24 -8 47t-23 40.5t-37 28.5t-51 11t-51 -11t-36.5 -28.5t-22 -40.5t-7.5 -47
t7.5 -47t22.5 -41.5t37 -29.5t51 -11t51 11t37 29.5t22.5 41.5t7.5 47zM238 580q-23 -18 -42 -18q-21 0 -34 14t-13 33q0 9 4.5 20.5t20.5 24.5l81 66q17 14 30.5 20.5t30.5 6.5t30.5 -6.5t30.5 -20.5l82 -66q16 -13 20 -24.5t4 -20.5q0 -19 -13.5 -33t-34.5 -14
q-20 0 -42 18l-75 63z" />
    <glyph glyph-name="otilde" unicode="&#xf5;" horiz-adv-x="632" 
d="M592 251q0 -61 -22 -110.5t-60 -84t-88 -53.5t-107 -19q-56 0 -106.5 19t-88 53.5t-59.5 84t-22 110.5t22 110t59.5 83t88 52t106.5 18q57 0 107 -18t88 -52t60 -83t22 -110zM434 251q0 24 -8 47t-23 40.5t-37 28.5t-51 11t-51 -11t-36.5 -28.5t-22 -40.5t-7.5 -47
t7.5 -47t22.5 -41.5t37 -29.5t51 -11t51 11t37 29.5t22.5 41.5t7.5 47zM413 686q12 17 22.5 23t21.5 6q18 0 29.5 -10.5t11.5 -29.5q0 -5 -1 -10.5t-4 -13.5q-14 -33 -40 -54.5t-70 -21.5q-21 0 -39 5t-37 16q-23 13 -33.5 16.5t-21.5 3.5q-19 0 -33 -18q-12 -17 -22.5 -23
t-21.5 -6q-18 0 -29.5 10.5t-11.5 29.5q0 11 5 24q14 33 40 54.5t70 21.5q21 0 39 -5t37 -16q23 -13 33.5 -16.5t21.5 -3.5q19 0 33 18z" />
    <glyph glyph-name="odieresis" unicode="&#xf6;" horiz-adv-x="632" 
d="M592 251q0 -61 -22 -110.5t-60 -84t-88 -53.5t-107 -19q-56 0 -106.5 19t-88 53.5t-59.5 84t-22 110.5t22 110t59.5 83t88 52t106.5 18q57 0 107 -18t88 -52t60 -83t22 -110zM434 251q0 24 -8 47t-23 40.5t-37 28.5t-51 11t-51 -11t-36.5 -28.5t-22 -40.5t-7.5 -47
t7.5 -47t22.5 -41.5t37 -29.5t51 -11t51 11t37 29.5t22.5 41.5t7.5 47zM507 658q0 -35 -24.5 -58.5t-58.5 -23.5q-35 0 -59 24t-24 58q0 16 6.5 30.5t17.5 26t26 18t33 6.5q34 0 58.5 -23.5t24.5 -57.5zM290 658q0 -35 -24.5 -58.5t-59.5 -23.5t-59 24t-24 58q0 16 6.5 30.5
t17.5 26t26.5 18t32.5 6.5q35 0 59.5 -23.5t24.5 -57.5z" />
    <glyph glyph-name="divide" unicode="&#xf7;" horiz-adv-x="666" 
d="M246 489q0 17 7 32.5t19 27t27.5 18t33.5 6.5t33.5 -6.5t27 -18t18.5 -27t7 -32.5q0 -18 -7 -33.5t-18.5 -27t-27 -18t-33.5 -6.5t-33.5 6.5t-27.5 18t-19 27t-7 33.5zM246 117q0 17 7 32.5t19 27t27.5 18t33.5 6.5t33.5 -6.5t27 -18t18.5 -27t7 -32.5t-7 -32.5
t-18.5 -27t-27 -18.5t-33.5 -7t-33.5 7t-27.5 18.5t-19 27t-7 32.5zM140 240q-23 0 -36.5 7t-21.5 17t-10.5 20.5t-2.5 18.5t2.5 19t10.5 21t21.5 17t36.5 7h385q22 0 36 -7t22 -17t10.5 -21t2.5 -19t-2.5 -18.5t-10.5 -20.5t-22 -17t-36 -7h-385z" />
    <glyph glyph-name="oslash" unicode="&#xf8;" horiz-adv-x="632" 
d="M372 365q-11 8 -26.5 13.5t-32.5 5.5q-29 0 -51.5 -11t-38 -29t-23.5 -41.5t-8 -48.5q0 -15 3.5 -31t10.5 -26zM436 248q0 16 -3 31.5t-10 26.5l-167 -168q11 -10 27.5 -15t33.5 -5q29 0 51.5 11t37.5 29t22.5 41.5t7.5 48.5zM96 86q-26 30 -41.5 72t-15.5 92
q0 60 21.5 109t59 83.5t88 53.5t107.5 19q94 0 160 -49l46 46q9 9 17.5 11.5t14.5 2.5q17 0 29 -11.5t12 -29.5q0 -6 -2.5 -14.5t-13.5 -19.5l-41 -40q55 -64 55 -161q0 -60 -22 -109t-59.5 -84t-88 -54t-107.5 -19q-45 0 -85 12t-72 35l-49 -48q-9 -9 -17.5 -11.5
t-14.5 -2.5q-17 0 -28.5 12t-11.5 29q0 6 2.5 14.5t13.5 19.5z" />
    <glyph glyph-name="ugrave" unicode="&#xf9;" horiz-adv-x="614" 
d="M550 78q0 -29 -8.5 -46t-21 -26.5t-26 -12.5t-22.5 -3q-10 0 -23 3t-25.5 11.5t-21.5 24t-10 40.5h-2q-9 -17 -23.5 -32t-34 -26t-42.5 -18t-49 -7q-50 0 -85 18t-56.5 46.5t-31 65t-9.5 74.5v226q0 30 9 48t22 27.5t27 13t25 3.5q10 0 24 -3.5t27 -13t22 -27.5t9 -48
v-188q0 -21 3 -40t11.5 -34t22.5 -23.5t37 -8.5q43 0 65.5 32t22.5 75v187q0 30 9 48t22 27.5t27 13t24 3.5t24 -3.5t27 -13t22 -27.5t9 -48v-338zM214 629q-29 19 -36 35t-7 28q0 23 16 39t40 16q11 0 23 -4t35 -21l65 -47q29 -20 35 -34.5t6 -26.5q0 -21 -14.5 -36.5
t-38.5 -15.5q-11 0 -23 4t-33 18z" />
    <glyph glyph-name="uacute" unicode="&#xfa;" horiz-adv-x="614" 
d="M550 78q0 -29 -8.5 -46t-21 -26.5t-26 -12.5t-22.5 -3q-10 0 -23 3t-25.5 11.5t-21.5 24t-10 40.5h-2q-9 -17 -23.5 -32t-34 -26t-42.5 -18t-49 -7q-50 0 -85 18t-56.5 46.5t-31 65t-9.5 74.5v226q0 30 9 48t22 27.5t27 13t25 3.5q10 0 24 -3.5t27 -13t22 -27.5t9 -48
v-188q0 -21 3 -40t11.5 -34t22.5 -23.5t37 -8.5q43 0 65.5 32t22.5 75v187q0 30 9 48t22 27.5t27 13t24 3.5t24 -3.5t27 -13t22 -27.5t9 -48v-338zM345 584q-21 -14 -33 -18t-23 -4q-24 0 -38.5 15.5t-14.5 36.5q0 12 6 26.5t35 34.5l65 47q23 17 35 21t23 4q24 0 40 -16
t16 -39q0 -12 -7 -28t-36 -35z" />
    <glyph glyph-name="ucircumflex" unicode="&#xfb;" horiz-adv-x="614" 
d="M550 78q0 -29 -8.5 -46t-21 -26.5t-26 -12.5t-22.5 -3q-10 0 -23 3t-25.5 11.5t-21.5 24t-10 40.5h-2q-9 -17 -23.5 -32t-34 -26t-42.5 -18t-49 -7q-50 0 -85 18t-56.5 46.5t-31 65t-9.5 74.5v226q0 30 9 48t22 27.5t27 13t25 3.5q10 0 24 -3.5t27 -13t22 -27.5t9 -48
v-188q0 -21 3 -40t11.5 -34t22.5 -23.5t37 -8.5q43 0 65.5 32t22.5 75v187q0 30 9 48t22 27.5t27 13t24 3.5t24 -3.5t27 -13t22 -27.5t9 -48v-338zM231 580q-23 -18 -42 -18q-21 0 -34 14t-13 33q0 9 4.5 20.5t20.5 24.5l81 66q17 14 30.5 20.5t30.5 6.5t30.5 -6.5
t30.5 -20.5l82 -66q16 -13 20 -24.5t4 -20.5q0 -19 -13.5 -33t-34.5 -14q-20 0 -42 18l-75 63z" />
    <glyph glyph-name="udieresis" unicode="&#xfc;" horiz-adv-x="614" 
d="M550 78q0 -29 -8.5 -46t-21 -26.5t-26 -12.5t-22.5 -3q-10 0 -23 3t-25.5 11.5t-21.5 24t-10 40.5h-2q-9 -17 -23.5 -32t-34 -26t-42.5 -18t-49 -7q-50 0 -85 18t-56.5 46.5t-31 65t-9.5 74.5v226q0 30 9 48t22 27.5t27 13t25 3.5q10 0 24 -3.5t27 -13t22 -27.5t9 -48
v-188q0 -21 3 -40t11.5 -34t22.5 -23.5t37 -8.5q43 0 65.5 32t22.5 75v187q0 30 9 48t22 27.5t27 13t24 3.5t24 -3.5t27 -13t22 -27.5t9 -48v-338zM499 658q0 -35 -24.5 -58.5t-58.5 -23.5q-35 0 -59 24t-24 58q0 16 6.5 30.5t17.5 26t26 18t33 6.5q34 0 58.5 -23.5
t24.5 -57.5zM282 658q0 -35 -24.5 -58.5t-59.5 -23.5t-59 24t-24 58q0 16 6.5 30.5t17.5 26t26.5 18t32.5 6.5q35 0 59.5 -23.5t24.5 -57.5z" />
    <glyph glyph-name="yacute" unicode="&#xfd;" horiz-adv-x="567" 
d="M291 180h3l91 257q15 43 37 57t43 14q35 0 58 -21.5t23 -54.5q0 -8 -2 -19t-7 -25l-194 -465q-16 -39 -34.5 -69t-43.5 -51t-59 -32t-82 -11h-9q-26 0 -42 7.5t-25 18t-12 23t-3 21.5t3 21t11 23t23.5 18.5t40.5 7.5q8 0 17.5 1t20 7t20.5 18.5t19 35.5l18 46l-172 374
q-6 14 -8.5 26t-2.5 20q0 34 23 57t59 23q23 0 45.5 -14t36.5 -52zM336 584q-21 -14 -33 -18t-23 -4q-24 0 -38.5 15.5t-14.5 36.5q0 12 6 26.5t35 34.5l65 47q23 17 35 21t23 4q24 0 40 -16t16 -39q0 -12 -7 -28t-36 -35z" />
    <glyph glyph-name="thorn" unicode="&#xfe;" horiz-adv-x="659" 
d="M66 674q0 30 9 48t22 27.5t27 13t24 3.5t23.5 -3.5t26.5 -13t22 -27.5t9 -48v-229h3q21 25 58.5 46t93.5 21q54 0 97.5 -21t74 -57t47 -83.5t16.5 -99.5t-16 -100t-46 -84.5t-74 -58.5t-101 -22q-46 0 -87.5 19t-63.5 51h-2v-214q0 -30 -9 -48t-22 -27.5t-26.5 -13
t-23.5 -3.5t-24 3.5t-27 13t-22 27.5t-9 48v832zM461 251q0 24 -7.5 47t-22.5 40.5t-37 28.5t-51 11q-28 0 -50 -11t-37.5 -29t-24 -41t-8.5 -47t8.5 -47t24 -41t37.5 -29t50 -11q29 0 51 11t37 29t22.5 41.5t7.5 47.5z" />
    <glyph glyph-name="ydieresis" unicode="&#xff;" horiz-adv-x="567" 
d="M291 180h3l91 257q15 43 37 57t43 14q35 0 58 -21.5t23 -54.5q0 -8 -2 -19t-7 -25l-194 -465q-16 -39 -34.5 -69t-43.5 -51t-59 -32t-82 -11h-9q-26 0 -42 7.5t-25 18t-12 23t-3 21.5t3 21t11 23t23.5 18.5t40.5 7.5q8 0 17.5 1t20 7t20.5 18.5t19 35.5l18 46l-172 374
q-6 14 -8.5 26t-2.5 20q0 34 23 57t59 23q23 0 45.5 -14t36.5 -52zM485 658q0 -35 -24.5 -58.5t-58.5 -23.5q-35 0 -59 24t-24 58q0 16 6.5 30.5t17.5 26t26 18t33 6.5q34 0 58.5 -23.5t24.5 -57.5zM268 658q0 -35 -24.5 -58.5t-59.5 -23.5t-59 24t-24 58q0 16 6.5 30.5
t17.5 26t26.5 18t32.5 6.5q35 0 59.5 -23.5t24.5 -57.5z" />
    <glyph glyph-name="Amacron" unicode="&#x100;" horiz-adv-x="729" 
d="M515 139h-305l-35 -85q-17 -40 -40.5 -52t-43.5 -12q-33 0 -58 21.5t-25 60.5q0 10 2 21t9 27l234 514q12 27 26.5 43.5t29.5 25.5t29.5 12t27.5 3t27.5 -2.5t29 -11.5t29 -25.5t26.5 -44.5l232 -512q6 -14 8 -26t2 -20q0 -42 -26 -64t-59 -22q-21 0 -45.5 12t-40.5 53z
M266 276h193l-96 235zM486 884q17 0 27.5 -5.5t16.5 -13t8 -15.5t2 -14t-2 -14.5t-8 -16t-16.5 -12.5t-27.5 -5h-244q-17 0 -27.5 5t-16.5 12.5t-8 16t-2 14.5t2 14t8 15.5t16.5 13t27.5 5.5h244z" />
    <glyph glyph-name="amacron" unicode="&#x101;" horiz-adv-x="566" 
d="M358 217h-21q-27 0 -54.5 -2.5t-49 -9.5t-35.5 -20.5t-14 -35.5q0 -14 6.5 -24t16.5 -16t23 -8.5t25 -2.5q50 0 76.5 27.5t26.5 74.5v17zM171 360q-20 -10 -38 -10q-24 0 -41 16.5t-17 42.5q0 14 8 30.5t31 30.5q39 24 82 34t83 10q63 0 106.5 -15.5t70.5 -48t39.5 -82
t12.5 -117.5v-175q0 -27 -8.5 -44t-20.5 -26.5t-25 -12.5t-22 -3q-8 0 -19.5 2.5t-22.5 9t-20 19t-12 32.5h-3q-19 -31 -57.5 -48t-83.5 -17q-30 0 -62 8t-58.5 26t-43.5 48t-17 74q0 54 29.5 87t76 51t103.5 24t111 6v8q0 33 -23.5 52.5t-61.5 19.5q-24 0 -48.5 -10
t-48.5 -22zM408 692q17 0 27.5 -5.5t16.5 -13t8 -15.5t2 -14t-2 -14.5t-8 -16t-16.5 -12.5t-27.5 -5h-244q-17 0 -27.5 5t-16.5 12.5t-8 16t-2 14.5t2 14t8 15.5t16.5 13t27.5 5.5h244z" />
    <glyph glyph-name="Abreve" unicode="&#x102;" horiz-adv-x="729" 
d="M515 139h-305l-35 -85q-17 -40 -40.5 -52t-43.5 -12q-33 0 -58 21.5t-25 60.5q0 10 2 21t9 27l234 514q12 27 26.5 43.5t29.5 25.5t29.5 12t27.5 3t27.5 -2.5t29 -11.5t29 -25.5t26.5 -44.5l232 -512q6 -14 8 -26t2 -20q0 -42 -26 -64t-59 -22q-21 0 -45.5 12t-40.5 53z
M266 276h193l-96 235zM363 852q26 0 45 8t30 25q12 19 22 26t25 7q20 0 32 -12.5t12 -30.5q0 -12 -4 -22q-19 -48 -63.5 -68.5t-98.5 -20.5t-98.5 20.5t-63.5 68.5q-4 10 -4 22q0 18 12 30.5t32 12.5q15 0 25 -7t22 -26q11 -17 30 -25t45 -8z" />
    <glyph glyph-name="abreve" unicode="&#x103;" horiz-adv-x="566" 
d="M358 217h-21q-27 0 -54.5 -2.5t-49 -9.5t-35.5 -20.5t-14 -35.5q0 -14 6.5 -24t16.5 -16t23 -8.5t25 -2.5q50 0 76.5 27.5t26.5 74.5v17zM171 360q-20 -10 -38 -10q-24 0 -41 16.5t-17 42.5q0 14 8 30.5t31 30.5q39 24 82 34t83 10q63 0 106.5 -15.5t70.5 -48t39.5 -82
t12.5 -117.5v-175q0 -27 -8.5 -44t-20.5 -26.5t-25 -12.5t-22 -3q-8 0 -19.5 2.5t-22.5 9t-20 19t-12 32.5h-3q-19 -31 -57.5 -48t-83.5 -17q-30 0 -62 8t-58.5 26t-43.5 48t-17 74q0 54 29.5 87t76 51t103.5 24t111 6v8q0 33 -23.5 52.5t-61.5 19.5q-24 0 -48.5 -10
t-48.5 -22zM286 660q26 0 45 8t30 25q12 19 22 26t25 7q20 0 32 -12.5t12 -30.5q0 -12 -4 -22q-19 -48 -63.5 -68.5t-98.5 -20.5t-98.5 20.5t-63.5 68.5q-4 10 -4 22q0 18 12 30.5t32 12.5q15 0 25 -7t22 -26q11 -17 30 -25t45 -8z" />
    <glyph glyph-name="Aogonek" unicode="&#x104;" horiz-adv-x="729" 
d="M515 139h-305l-35 -85q-17 -40 -40.5 -52t-43.5 -12q-33 0 -58 21.5t-25 60.5q0 10 2 21t9 27l234 514q12 27 26.5 43.5t29.5 25.5t29.5 12t27.5 3t27.5 -2.5t29 -11.5t29 -25.5t26.5 -44.5l232 -512q6 -14 8 -26t2 -20q0 -29 -13.5 -49t-33.5 -29q-33 -21 -54 -37.5
t-33.5 -30t-17 -25.5t-4.5 -23q0 -16 10.5 -26t26.5 -10q8 0 15.5 2t15.5 5q9 4 19 4q15 0 24.5 -10t9.5 -25q0 -10 -5 -18.5t-19 -16.5q-41 -23 -88 -23q-20 0 -40.5 5t-36.5 16t-26 28.5t-10 41.5q0 40 29.5 76.5t94.5 74.5q-10 8 -19 19.5t-16 29.5zM266 276h193l-96 235
z" />
    <glyph glyph-name="aogonek" unicode="&#x105;" horiz-adv-x="566" 
d="M171 360q-20 -10 -38 -10q-24 0 -41 16.5t-17 42.5q0 14 8 30.5t31 30.5q39 24 82 34t83 10q63 0 106.5 -15.5t70.5 -48t39.5 -82t12.5 -117.5v-175q0 -21 -5 -35.5t-12 -23.5t-14.5 -13.5t-11.5 -6.5q-64 -34 -86.5 -63.5t-22.5 -51.5q0 -16 10.5 -26t26.5 -10
q8 0 15.5 2t15.5 5q9 4 19 4q15 0 24.5 -10t9.5 -25q0 -10 -5 -18.5t-19 -16.5q-41 -23 -88 -23q-20 0 -40.5 5t-36.5 16t-26 28.5t-10 41.5q0 41 31 78t98 75q-8 7 -14.5 18t-8.5 27h-3q-19 -31 -57.5 -48t-83.5 -17q-30 0 -62 8t-58.5 26t-43.5 48t-17 74q0 54 29.5 87
t76 51t103.5 24t111 6v8q0 33 -23.5 52.5t-61.5 19.5q-24 0 -48.5 -10t-48.5 -22zM358 217h-21q-27 0 -54.5 -2.5t-49 -9.5t-35.5 -20.5t-14 -35.5q0 -14 6.5 -24t16.5 -16t23 -8.5t25 -2.5q50 0 76.5 27.5t26.5 74.5v17z" />
    <glyph glyph-name="Cacute" unicode="&#x106;" horiz-adv-x="696" 
d="M522 548q-17 11 -40 17.5t-52 6.5q-45 0 -82.5 -16.5t-64.5 -45.5t-42 -68.5t-15 -86.5q0 -48 15 -88t41.5 -68.5t63.5 -44.5t81 -16q29 0 52 6t50 25q22 15 35 19t25 4q31 0 53.5 -21t22.5 -56q0 -16 -8 -34.5t-31 -36.5q-15 -12 -36.5 -23.5t-48 -20t-57 -14
t-63.5 -5.5q-82 0 -151.5 27t-120.5 76.5t-80 118.5t-29 152q0 85 29.5 154t81.5 117.5t122 74.5t151 26q28 0 56.5 -4t54 -11t47 -16t35.5 -19q27 -20 34 -38.5t7 -34.5q0 -33 -22.5 -55t-55.5 -22q-12 0 -25 4t-33 17zM450 776q-21 -14 -33 -18t-23 -4q-24 0 -38.5 15.5
t-14.5 36.5q0 12 6 26.5t35 34.5l65 47q23 17 35 21t23 4q24 0 40 -16t16 -39q0 -12 -7 -28t-36 -35z" />
    <glyph glyph-name="cacute" unicode="&#x107;" horiz-adv-x="503" 
d="M318 -16q-59 0 -110 18t-88.5 52.5t-59 83.5t-21.5 111q0 61 21.5 110t59 83.5t88.5 53t109 18.5q30 0 59 -5.5t51 -16.5q29 -14 38.5 -32t9.5 -34q0 -29 -17 -50t-50 -21q-9 0 -19.5 2.5t-24.5 9.5q-20 10 -44 10q-26 0 -47 -10.5t-36 -28t-23.5 -40.5t-8.5 -49t8 -49
t23.5 -40.5t37 -27.5t48.5 -10q12 0 22.5 2t21.5 7q14 7 24.5 9.5t19.5 2.5q33 0 50 -21t17 -50q0 -16 -10.5 -34t-37.5 -32q-23 -11 -52 -16.5t-59 -5.5zM354 584q-21 -14 -33 -18t-23 -4q-24 0 -38.5 15.5t-14.5 36.5q0 12 6 26.5t35 34.5l65 47q23 17 35 21t23 4
q24 0 40 -16t16 -39q0 -12 -7 -28t-36 -35z" />
    <glyph glyph-name="Ccircumflex" unicode="&#x108;" horiz-adv-x="696" 
d="M522 548q-17 11 -40 17.5t-52 6.5q-45 0 -82.5 -16.5t-64.5 -45.5t-42 -68.5t-15 -86.5q0 -48 15 -88t41.5 -68.5t63.5 -44.5t81 -16q29 0 52 6t50 25q22 15 35 19t25 4q31 0 53.5 -21t22.5 -56q0 -16 -8 -34.5t-31 -36.5q-15 -12 -36.5 -23.5t-48 -20t-57 -14
t-63.5 -5.5q-82 0 -151.5 27t-120.5 76.5t-80 118.5t-29 152q0 85 29.5 154t81.5 117.5t122 74.5t151 26q28 0 56.5 -4t54 -11t47 -16t35.5 -19q27 -20 34 -38.5t7 -34.5q0 -33 -22.5 -55t-55.5 -22q-12 0 -25 4t-33 17zM346 772q-23 -18 -42 -18q-21 0 -34 14t-13 33
q0 9 4.5 20.5t20.5 24.5l81 66q17 14 30.5 20.5t30.5 6.5t30.5 -6.5t30.5 -20.5l82 -66q16 -13 20 -24.5t4 -20.5q0 -19 -13.5 -33t-34.5 -14q-20 0 -42 18l-75 63z" />
    <glyph glyph-name="ccircumflex" unicode="&#x109;" horiz-adv-x="503" 
d="M318 -16q-59 0 -110 18t-88.5 52.5t-59 83.5t-21.5 111q0 61 21.5 110t59 83.5t88.5 53t109 18.5q30 0 59 -5.5t51 -16.5q29 -14 38.5 -32t9.5 -34q0 -29 -17 -50t-50 -21q-9 0 -19.5 2.5t-24.5 9.5q-20 10 -44 10q-26 0 -47 -10.5t-36 -28t-23.5 -40.5t-8.5 -49t8 -49
t23.5 -40.5t37 -27.5t48.5 -10q12 0 22.5 2t21.5 7q14 7 24.5 9.5t19.5 2.5q33 0 50 -21t17 -50q0 -16 -10.5 -34t-37.5 -32q-23 -11 -52 -16.5t-59 -5.5zM233 580q-23 -18 -42 -18q-21 0 -34 14t-13 33q0 9 4.5 20.5t20.5 24.5l81 66q17 14 30.5 20.5t30.5 6.5t30.5 -6.5
t30.5 -20.5l82 -66q16 -13 20 -24.5t4 -20.5q0 -19 -13.5 -33t-34.5 -14q-20 0 -42 18l-75 63z" />
    <glyph glyph-name="Cdotaccent" unicode="&#x10a;" horiz-adv-x="696" 
d="M522 548q-17 11 -40 17.5t-52 6.5q-45 0 -82.5 -16.5t-64.5 -45.5t-42 -68.5t-15 -86.5q0 -48 15 -88t41.5 -68.5t63.5 -44.5t81 -16q29 0 52 6t50 25q22 15 35 19t25 4q31 0 53.5 -21t22.5 -56q0 -16 -8 -34.5t-31 -36.5q-15 -12 -36.5 -23.5t-48 -20t-57 -14
t-63.5 -5.5q-82 0 -151.5 27t-120.5 76.5t-80 118.5t-29 152q0 85 29.5 154t81.5 117.5t122 74.5t151 26q28 0 56.5 -4t54 -11t47 -16t35.5 -19q27 -20 34 -38.5t7 -34.5q0 -33 -22.5 -55t-55.5 -22q-12 0 -25 4t-33 17zM510 849q0 -36 -26 -60.5t-64 -24.5t-63.5 25
t-25.5 60t25.5 60.5t63.5 25.5t64 -25t26 -61z" />
    <glyph glyph-name="cdotaccent" unicode="&#x10b;" horiz-adv-x="503" 
d="M318 -16q-59 0 -110 18t-88.5 52.5t-59 83.5t-21.5 111q0 61 21.5 110t59 83.5t88.5 53t109 18.5q30 0 59 -5.5t51 -16.5q29 -14 38.5 -32t9.5 -34q0 -29 -17 -50t-50 -21q-9 0 -19.5 2.5t-24.5 9.5q-20 10 -44 10q-26 0 -47 -10.5t-36 -28t-23.5 -40.5t-8.5 -49t8 -49
t23.5 -40.5t37 -27.5t48.5 -10q12 0 22.5 2t21.5 7q14 7 24.5 9.5t19.5 2.5q33 0 50 -21t17 -50q0 -16 -10.5 -34t-37.5 -32q-23 -11 -52 -16.5t-59 -5.5zM401 657q0 -36 -26 -60.5t-64 -24.5t-63.5 25t-25.5 60t25.5 60.5t63.5 25.5t64 -25t26 -61z" />
    <glyph glyph-name="Ccaron" unicode="&#x10c;" horiz-adv-x="696" 
d="M522 548q-17 11 -40 17.5t-52 6.5q-45 0 -82.5 -16.5t-64.5 -45.5t-42 -68.5t-15 -86.5q0 -48 15 -88t41.5 -68.5t63.5 -44.5t81 -16q29 0 52 6t50 25q22 15 35 19t25 4q31 0 53.5 -21t22.5 -56q0 -16 -8 -34.5t-31 -36.5q-15 -12 -36.5 -23.5t-48 -20t-57 -14
t-63.5 -5.5q-82 0 -151.5 27t-120.5 76.5t-80 118.5t-29 152q0 85 29.5 154t81.5 117.5t122 74.5t151 26q28 0 56.5 -4t54 -11t47 -16t35.5 -19q27 -20 34 -38.5t7 -34.5q0 -33 -22.5 -55t-55.5 -22q-12 0 -25 4t-33 17zM501 921q22 18 42 18q21 0 34 -14t13 -33
q0 -9 -4.5 -20.5t-20.5 -24.5l-81 -66q-17 -14 -30.5 -20.5t-30.5 -6.5t-30.5 6.5t-30.5 20.5l-82 66q-16 13 -20 24.5t-4 20.5q0 19 13.5 33t34.5 14q19 0 42 -18l75 -63z" />
    <glyph glyph-name="ccaron" unicode="&#x10d;" horiz-adv-x="503" 
d="M318 -16q-59 0 -110 18t-88.5 52.5t-59 83.5t-21.5 111q0 61 21.5 110t59 83.5t88.5 53t109 18.5q30 0 59 -5.5t51 -16.5q29 -14 38.5 -32t9.5 -34q0 -29 -17 -50t-50 -21q-9 0 -19.5 2.5t-24.5 9.5q-20 10 -44 10q-26 0 -47 -10.5t-36 -28t-23.5 -40.5t-8.5 -49t8 -49
t23.5 -40.5t37 -27.5t48.5 -10q12 0 22.5 2t21.5 7q14 7 24.5 9.5t19.5 2.5q33 0 50 -21t17 -50q0 -16 -10.5 -34t-37.5 -32q-23 -11 -52 -16.5t-59 -5.5zM387 729q22 18 42 18q21 0 34 -14t13 -33q0 -9 -4.5 -20.5t-20.5 -24.5l-81 -66q-17 -14 -30.5 -20.5t-30.5 -6.5
t-30.5 6.5t-30.5 20.5l-82 66q-16 13 -20 24.5t-4 20.5q0 19 13.5 33t34.5 14q19 0 42 -18l75 -63z" />
    <glyph glyph-name="Dcaron" unicode="&#x10e;" horiz-adv-x="774" 
d="M556 356q0 60 -19.5 99.5t-52 63t-74 33.5t-85.5 10h-85v-414h81q46 0 88.5 10.5t75 34.5t52 64t19.5 99zM171 0q-98 0 -98 98v512q0 98 98 98h158q75 0 148 -17.5t130 -58t92 -108.5t35 -168q0 -93 -34.5 -160.5t-91 -111t-127.5 -64t-144 -20.5h-166zM436 921
q22 18 42 18q21 0 34 -14t13 -33q0 -9 -4.5 -20.5t-20.5 -24.5l-81 -66q-17 -14 -30.5 -20.5t-30.5 -6.5t-30.5 6.5t-30.5 20.5l-82 66q-16 13 -20 24.5t-4 20.5q0 19 13.5 33t34.5 14q19 0 42 -18l75 -63z" />
    <glyph glyph-name="dcaron" unicode="&#x10f;" horiz-adv-x="658" 
d="M592 76q0 -28 -8.5 -45t-20.5 -26t-25 -12t-22 -3t-21.5 3t-24 11t-20 23t-9.5 38h-2q-24 -38 -68.5 -58.5t-94.5 -20.5q-56 0 -100 22t-74.5 58.5t-46.5 84.5t-16 100t16.5 99.5t47 83.5t74 57t97.5 21q55 0 93 -21t59 -46h2v229q0 30 9 48t22 27.5t27 13t24 3.5
t24 -3.5t27 -13t22 -27.5t9 -48v-598zM435 250q0 24 -8.5 47t-24 41t-37.5 29t-50 11q-29 0 -51 -11t-37 -28.5t-22.5 -40.5t-7.5 -47t7.5 -47.5t22.5 -41.5t37 -29t51 -11q28 0 50 11t37.5 29t24 41t8.5 47zM752 546q-17 -38 -33 -48t-30 -10q-21 0 -38.5 13t-17.5 39
q0 14 13 50l24 64q15 40 31.5 52t35.5 12q25 0 42 -16t17 -39q0 -8 -2.5 -19t-11.5 -32z" />
    <glyph glyph-name="Dcroat" unicode="&#x110;" horiz-adv-x="774" 
d="M171 0q-98 0 -98 98v211h-10q-20 0 -31.5 6t-18 14.5t-8.5 17.5t-2 16q0 6 2 15.5t8.5 17.5t18 14t31.5 6h10v194q0 98 98 98h158q75 0 148 -17.5t130 -58t92 -108.5t35 -168q0 -93 -34.5 -160.5t-91 -111t-127.5 -64t-144 -20.5h-166zM556 356q0 60 -19.5 99.5t-52 63
t-74 33.5t-85.5 10h-85v-146h132q19 0 31 -6t18.5 -14t8.5 -17.5t2 -15.5q0 -7 -2 -16t-8.5 -17.5t-18.5 -14.5t-31 -6h-132v-161h81q46 0 88.5 10.5t75 34.5t52 64t19.5 99z" />
    <glyph glyph-name="dcroat" unicode="&#x111;" horiz-adv-x="658" 
d="M592 659h6q16 0 26 -5t15 -12t7 -14.5t2 -12.5q0 -6 -2 -13.5t-7 -14.5t-15 -12t-26 -5h-6v-494q0 -28 -8.5 -45t-20.5 -26t-25 -12t-22 -3t-21.5 3t-24 11t-20 23t-9.5 38h-2q-24 -38 -68.5 -58.5t-94.5 -20.5q-56 0 -100 22t-74.5 58.5t-46.5 84.5t-16 100t16.5 99.5
t47 83.5t74 57t97.5 21q55 0 93 -21t59 -46h2v125h-109q-16 0 -26 5t-15 12t-7 14.5t-2 13.5q0 5 2 12.5t7 14.5t15 12t26 5h109v15q0 30 9 48t22 27.5t27 13t24 3.5t24 -3.5t27 -13t22 -27.5t9 -48v-15zM435 250q0 24 -8.5 47t-24 41t-37.5 29t-50 11q-29 0 -51 -11
t-37 -28.5t-22.5 -40.5t-7.5 -47t7.5 -47.5t22.5 -41.5t37 -29t51 -11q28 0 50 11t37.5 29t24 41t8.5 47z" />
    <glyph glyph-name="Emacron" unicode="&#x112;" horiz-adv-x="607" 
d="M463 430q26 0 41.5 -7.5t24 -18.5t11 -22.5t2.5 -19.5t-2.5 -20t-11 -23t-24 -18.5t-41.5 -7.5h-225v-147h258q26 0 42 -8t24.5 -19.5t11.5 -24t3 -21.5t-3 -21.5t-11.5 -24t-24.5 -19.5t-42 -8h-325q-98 0 -98 98v512q0 98 98 98h307q26 0 42 -8t24.5 -19.5t11.5 -23.5
t3 -21t-3 -21.5t-11.5 -24t-24.5 -19.5t-42 -8h-240v-133h225zM438 884q17 0 27.5 -5.5t16.5 -13t8 -15.5t2 -14t-2 -14.5t-8 -16t-16.5 -12.5t-27.5 -5h-244q-17 0 -27.5 5t-16.5 12.5t-8 16t-2 14.5t2 14t8 15.5t16.5 13t27.5 5.5h244z" />
    <glyph glyph-name="emacron" unicode="&#x113;" horiz-adv-x="596" 
d="M407 306q0 39 -24.5 67t-73.5 28q-24 0 -44 -7.5t-35 -20.5t-24 -30.5t-10 -36.5h211zM410 139q19 13 29.5 17t22.5 4q27 0 45 -17t18 -45q0 -11 -5.5 -26.5t-23.5 -29.5q-32 -26 -77.5 -42t-105.5 -16q-56 0 -106 17.5t-87.5 51t-59 82.5t-21.5 112q0 61 21 110.5t57 84
t85 53.5t106 19q94 0 158 -51t84 -142q2 -11 3.5 -20t1.5 -18q0 -42 -23 -60.5t-62 -18.5h-274q2 -21 12.5 -38t27 -29.5t37 -19.5t42.5 -7q29 0 50 6t45 23zM434 692q17 0 27.5 -5.5t16.5 -13t8 -15.5t2 -14t-2 -14.5t-8 -16t-16.5 -12.5t-27.5 -5h-244q-17 0 -27.5 5
t-16.5 12.5t-8 16t-2 14.5t2 14t8 15.5t16.5 13t27.5 5.5h244z" />
    <glyph glyph-name="Ebreve" unicode="&#x114;" horiz-adv-x="607" 
d="M463 430q26 0 41.5 -7.5t24 -18.5t11 -22.5t2.5 -19.5t-2.5 -20t-11 -23t-24 -18.5t-41.5 -7.5h-225v-147h258q26 0 42 -8t24.5 -19.5t11.5 -24t3 -21.5t-3 -21.5t-11.5 -24t-24.5 -19.5t-42 -8h-325q-98 0 -98 98v512q0 98 98 98h307q26 0 42 -8t24.5 -19.5t11.5 -23.5
t3 -21t-3 -21.5t-11.5 -24t-24.5 -19.5t-42 -8h-240v-133h225zM316 852q26 0 45 8t30 25q12 19 22 26t25 7q20 0 32 -12.5t12 -30.5q0 -12 -4 -22q-19 -48 -63.5 -68.5t-98.5 -20.5t-98.5 20.5t-63.5 68.5q-4 10 -4 22q0 18 12 30.5t32 12.5q15 0 25 -7t22 -26
q11 -17 30 -25t45 -8z" />
    <glyph glyph-name="ebreve" unicode="&#x115;" horiz-adv-x="596" 
d="M407 306q0 39 -24.5 67t-73.5 28q-24 0 -44 -7.5t-35 -20.5t-24 -30.5t-10 -36.5h211zM410 139q19 13 29.5 17t22.5 4q27 0 45 -17t18 -45q0 -11 -5.5 -26.5t-23.5 -29.5q-32 -26 -77.5 -42t-105.5 -16q-56 0 -106 17.5t-87.5 51t-59 82.5t-21.5 112q0 61 21 110.5t57 84
t85 53.5t106 19q94 0 158 -51t84 -142q2 -11 3.5 -20t1.5 -18q0 -42 -23 -60.5t-62 -18.5h-274q2 -21 12.5 -38t27 -29.5t37 -19.5t42.5 -7q29 0 50 6t45 23zM312 660q26 0 45 8t30 25q12 19 22 26t25 7q20 0 32 -12.5t12 -30.5q0 -12 -4 -22q-19 -48 -63.5 -68.5
t-98.5 -20.5t-98.5 20.5t-63.5 68.5q-4 10 -4 22q0 18 12 30.5t32 12.5q15 0 25 -7t22 -26q11 -17 30 -25t45 -8z" />
    <glyph glyph-name="Edotaccent" unicode="&#x116;" horiz-adv-x="607" 
d="M463 430q26 0 41.5 -7.5t24 -18.5t11 -22.5t2.5 -19.5t-2.5 -20t-11 -23t-24 -18.5t-41.5 -7.5h-225v-147h258q26 0 42 -8t24.5 -19.5t11.5 -24t3 -21.5t-3 -21.5t-11.5 -24t-24.5 -19.5t-42 -8h-325q-98 0 -98 98v512q0 98 98 98h307q26 0 42 -8t24.5 -19.5t11.5 -23.5
t3 -21t-3 -21.5t-11.5 -24t-24.5 -19.5t-42 -8h-240v-133h225zM406 849q0 -36 -26 -60.5t-64 -24.5t-63.5 25t-25.5 60t25.5 60.5t63.5 25.5t64 -25t26 -61z" />
    <glyph glyph-name="edotaccent" unicode="&#x117;" horiz-adv-x="596" 
d="M407 306q0 39 -24.5 67t-73.5 28q-24 0 -44 -7.5t-35 -20.5t-24 -30.5t-10 -36.5h211zM410 139q19 13 29.5 17t22.5 4q27 0 45 -17t18 -45q0 -11 -5.5 -26.5t-23.5 -29.5q-32 -26 -77.5 -42t-105.5 -16q-56 0 -106 17.5t-87.5 51t-59 82.5t-21.5 112q0 61 21 110.5t57 84
t85 53.5t106 19q94 0 158 -51t84 -142q2 -11 3.5 -20t1.5 -18q0 -42 -23 -60.5t-62 -18.5h-274q2 -21 12.5 -38t27 -29.5t37 -19.5t42.5 -7q29 0 50 6t45 23zM401 657q0 -36 -26 -60.5t-64 -24.5t-63.5 25t-25.5 60t25.5 60.5t63.5 25.5t64 -25t26 -61z" />
    <glyph glyph-name="Eogonek" unicode="&#x118;" horiz-adv-x="607" 
d="M463 430q26 0 41.5 -7.5t24 -18.5t11 -22.5t2.5 -19.5t-2.5 -20t-11 -23t-24 -18.5t-41.5 -7.5h-225v-147h258q26 0 42 -8t24.5 -19.5t11.5 -24t3 -21.5q0 -12 -5.5 -29.5t-23.5 -30.5q-48 -42 -68 -73.5t-20 -57.5q0 -16 10.5 -26t26.5 -10q8 0 15.5 2t15.5 5q9 4 19 4
q15 0 24.5 -10t9.5 -25q0 -10 -5 -18.5t-19 -16.5q-41 -23 -88 -23q-20 0 -40.5 5t-36.5 16t-26 28.5t-10 41.5q0 38 20.5 72t66.5 73h-272q-98 0 -98 98v512q0 98 98 98h307q26 0 42 -8t24.5 -19.5t11.5 -23.5t3 -21t-3 -21.5t-11.5 -24t-24.5 -19.5t-42 -8h-240v-133h225z
" />
    <glyph glyph-name="eogonek" unicode="&#x119;" horiz-adv-x="596" 
d="M378 -147q9 4 19 4q15 0 24.5 -10t9.5 -25q0 -10 -5 -18.5t-19 -16.5q-41 -23 -88 -23q-20 0 -40.5 5t-36.5 16t-26 28.5t-10 41.5q0 33 22 65.5t60 64.5q-52 4 -97.5 23t-79 52t-53 80t-19.5 107q0 61 21 110.5t57 84t85 53.5t106 19q94 0 158 -51t84 -142
q2 -11 3.5 -20t1.5 -18q0 -42 -23 -60.5t-62 -18.5h-274q2 -21 12.5 -38t27 -29.5t37 -19.5t42.5 -7q29 0 50 6t45 23q19 13 29.5 17t22.5 4q27 0 45 -17t18 -45q0 -11 -5.5 -26.5t-23.5 -29.5q-21 -17 -47 -29.5t-58 -19.5q-42 -35 -61.5 -61.5t-19.5 -49.5q0 -16 10.5 -26
t26.5 -10q8 0 15.5 2t15.5 5zM407 306q0 39 -24.5 67t-73.5 28q-24 0 -44 -7.5t-35 -20.5t-24 -30.5t-10 -36.5h211z" />
    <glyph glyph-name="Ecaron" unicode="&#x11a;" horiz-adv-x="607" 
d="M463 430q26 0 41.5 -7.5t24 -18.5t11 -22.5t2.5 -19.5t-2.5 -20t-11 -23t-24 -18.5t-41.5 -7.5h-225v-147h258q26 0 42 -8t24.5 -19.5t11.5 -24t3 -21.5t-3 -21.5t-11.5 -24t-24.5 -19.5t-42 -8h-325q-98 0 -98 98v512q0 98 98 98h307q26 0 42 -8t24.5 -19.5t11.5 -23.5
t3 -21t-3 -21.5t-11.5 -24t-24.5 -19.5t-42 -8h-240v-133h225zM396 921q22 18 42 18q21 0 34 -14t13 -33q0 -9 -4.5 -20.5t-20.5 -24.5l-81 -66q-17 -14 -30.5 -20.5t-30.5 -6.5t-30.5 6.5t-30.5 20.5l-82 66q-16 13 -20 24.5t-4 20.5q0 19 13.5 33t34.5 14q19 0 42 -18
l75 -63z" />
    <glyph glyph-name="ecaron" unicode="&#x11b;" horiz-adv-x="596" 
d="M407 306q0 39 -24.5 67t-73.5 28q-24 0 -44 -7.5t-35 -20.5t-24 -30.5t-10 -36.5h211zM410 139q19 13 29.5 17t22.5 4q27 0 45 -17t18 -45q0 -11 -5.5 -26.5t-23.5 -29.5q-32 -26 -77.5 -42t-105.5 -16q-56 0 -106 17.5t-87.5 51t-59 82.5t-21.5 112q0 61 21 110.5t57 84
t85 53.5t106 19q94 0 158 -51t84 -142q2 -11 3.5 -20t1.5 -18q0 -42 -23 -60.5t-62 -18.5h-274q2 -21 12.5 -38t27 -29.5t37 -19.5t42.5 -7q29 0 50 6t45 23zM391 729q22 18 42 18q21 0 34 -14t13 -33q0 -9 -4.5 -20.5t-20.5 -24.5l-81 -66q-17 -14 -30.5 -20.5t-30.5 -6.5
t-30.5 6.5t-30.5 20.5l-82 66q-16 13 -20 24.5t-4 20.5q0 19 13.5 33t34.5 14q19 0 42 -18l75 -63z" />
    <glyph glyph-name="Gcircumflex" unicode="&#x11c;" horiz-adv-x="769" 
d="M702 115q0 -42 -18 -67t-59 -37q-40 -12 -86.5 -20.5t-109.5 -8.5q-85 0 -156.5 27t-123 76t-80.5 117.5t-29 152.5q0 85 29.5 154t81.5 117.5t122 74.5t151 26q69 0 121 -14.5t83 -34.5q28 -18 36.5 -36.5t8.5 -35.5q0 -34 -21.5 -56.5t-53.5 -22.5q-24 0 -54 17
q-15 8 -44.5 20t-72.5 12q-44 0 -81.5 -16.5t-65 -46t-43 -70t-15.5 -88.5q0 -49 14 -90t41.5 -70.5t68 -46t92.5 -16.5q30 0 57 4.5t50 14.5v129h-68q-25 0 -40 7.5t-23.5 18.5t-11 23t-2.5 20t2.5 20t11 23t23.5 18.5t40 7.5h131q94 0 94 -94v-209zM350 772
q-23 -18 -42 -18q-21 0 -34 14t-13 33q0 9 4.5 20.5t20.5 24.5l81 66q17 14 30.5 20.5t30.5 6.5t30.5 -6.5t30.5 -20.5l82 -66q16 -13 20 -24.5t4 -20.5q0 -19 -13.5 -33t-34.5 -14q-20 0 -42 18l-75 63z" />
    <glyph glyph-name="gcircumflex" unicode="&#x11d;" horiz-adv-x="658" 
d="M436 252q0 25 -8.5 48t-24.5 40.5t-38 27.5t-50 10t-49.5 -10t-36.5 -27t-23 -40t-8 -49q0 -25 8 -48t23 -40.5t36.5 -28t49.5 -10.5t50.5 10.5t38 27.5t24 40t8.5 49zM103 -191q-23 15 -32 32t-9 33q0 29 18 50t50 21q11 0 23 -3.5t32 -15.5q30 -18 59 -25.5t55 -7.5
q64 0 98 37.5t34 100.5v30h-3q-23 -30 -62 -48t-89 -18q-57 0 -101 20.5t-74.5 55.5t-46.5 81.5t-16 98.5t16 99t46.5 83t74.5 57.5t100 21.5q47 0 90 -19t69 -59h2q2 23 10.5 37.5t20.5 22.5t24.5 11t21.5 3q10 0 23.5 -3t25.5 -12.5t20.5 -27t8.5 -45.5v-373
q0 -73 -21 -127t-59 -89.5t-92.5 -53t-120.5 -17.5q-23 0 -49 2.5t-52 8.5t-50.5 15t-44.5 23zM243 580q-23 -18 -42 -18q-21 0 -34 14t-13 33q0 9 4.5 20.5t20.5 24.5l81 66q17 14 30.5 20.5t30.5 6.5t30.5 -6.5t30.5 -20.5l82 -66q16 -13 20 -24.5t4 -20.5
q0 -19 -13.5 -33t-34.5 -14q-20 0 -42 18l-75 63z" />
    <glyph glyph-name="Gbreve" unicode="&#x11e;" horiz-adv-x="769" 
d="M702 115q0 -42 -18 -67t-59 -37q-40 -12 -86.5 -20.5t-109.5 -8.5q-85 0 -156.5 27t-123 76t-80.5 117.5t-29 152.5q0 85 29.5 154t81.5 117.5t122 74.5t151 26q69 0 121 -14.5t83 -34.5q28 -18 36.5 -36.5t8.5 -35.5q0 -34 -21.5 -56.5t-53.5 -22.5q-24 0 -54 17
q-15 8 -44.5 20t-72.5 12q-44 0 -81.5 -16.5t-65 -46t-43 -70t-15.5 -88.5q0 -49 14 -90t41.5 -70.5t68 -46t92.5 -16.5q30 0 57 4.5t50 14.5v129h-68q-25 0 -40 7.5t-23.5 18.5t-11 23t-2.5 20t2.5 20t11 23t23.5 18.5t40 7.5h131q94 0 94 -94v-209zM431 852q26 0 45 8
t30 25q12 19 22 26t25 7q20 0 32 -12.5t12 -30.5q0 -12 -4 -22q-19 -48 -63.5 -68.5t-98.5 -20.5t-98.5 20.5t-63.5 68.5q-4 10 -4 22q0 18 12 30.5t32 12.5q15 0 25 -7t22 -26q11 -17 30 -25t45 -8z" />
    <glyph glyph-name="gbreve" unicode="&#x11f;" horiz-adv-x="658" 
d="M436 252q0 25 -8.5 48t-24.5 40.5t-38 27.5t-50 10t-49.5 -10t-36.5 -27t-23 -40t-8 -49q0 -25 8 -48t23 -40.5t36.5 -28t49.5 -10.5t50.5 10.5t38 27.5t24 40t8.5 49zM103 -191q-23 15 -32 32t-9 33q0 29 18 50t50 21q11 0 23 -3.5t32 -15.5q30 -18 59 -25.5t55 -7.5
q64 0 98 37.5t34 100.5v30h-3q-23 -30 -62 -48t-89 -18q-57 0 -101 20.5t-74.5 55.5t-46.5 81.5t-16 98.5t16 99t46.5 83t74.5 57.5t100 21.5q47 0 90 -19t69 -59h2q2 23 10.5 37.5t20.5 22.5t24.5 11t21.5 3q10 0 23.5 -3t25.5 -12.5t20.5 -27t8.5 -45.5v-373
q0 -73 -21 -127t-59 -89.5t-92.5 -53t-120.5 -17.5q-23 0 -49 2.5t-52 8.5t-50.5 15t-44.5 23zM325 660q26 0 45 8t30 25q12 19 22 26t25 7q20 0 32 -12.5t12 -30.5q0 -12 -4 -22q-19 -48 -63.5 -68.5t-98.5 -20.5t-98.5 20.5t-63.5 68.5q-4 10 -4 22q0 18 12 30.5t32 12.5
q15 0 25 -7t22 -26q11 -17 30 -25t45 -8z" />
    <glyph glyph-name="Gdotaccent" unicode="&#x120;" horiz-adv-x="769" 
d="M702 115q0 -42 -18 -67t-59 -37q-40 -12 -86.5 -20.5t-109.5 -8.5q-85 0 -156.5 27t-123 76t-80.5 117.5t-29 152.5q0 85 29.5 154t81.5 117.5t122 74.5t151 26q69 0 121 -14.5t83 -34.5q28 -18 36.5 -36.5t8.5 -35.5q0 -34 -21.5 -56.5t-53.5 -22.5q-24 0 -54 17
q-15 8 -44.5 20t-72.5 12q-44 0 -81.5 -16.5t-65 -46t-43 -70t-15.5 -88.5q0 -49 14 -90t41.5 -70.5t68 -46t92.5 -16.5q30 0 57 4.5t50 14.5v129h-68q-25 0 -40 7.5t-23.5 18.5t-11 23t-2.5 20t2.5 20t11 23t23.5 18.5t40 7.5h131q94 0 94 -94v-209zM516 849
q0 -36 -26 -60.5t-64 -24.5t-63.5 25t-25.5 60t25.5 60.5t63.5 25.5t64 -25t26 -61z" />
    <glyph glyph-name="gdotaccent" unicode="&#x121;" horiz-adv-x="658" 
d="M436 252q0 25 -8.5 48t-24.5 40.5t-38 27.5t-50 10t-49.5 -10t-36.5 -27t-23 -40t-8 -49q0 -25 8 -48t23 -40.5t36.5 -28t49.5 -10.5t50.5 10.5t38 27.5t24 40t8.5 49zM103 -191q-23 15 -32 32t-9 33q0 29 18 50t50 21q11 0 23 -3.5t32 -15.5q30 -18 59 -25.5t55 -7.5
q64 0 98 37.5t34 100.5v30h-3q-23 -30 -62 -48t-89 -18q-57 0 -101 20.5t-74.5 55.5t-46.5 81.5t-16 98.5t16 99t46.5 83t74.5 57.5t100 21.5q47 0 90 -19t69 -59h2q2 23 10.5 37.5t20.5 22.5t24.5 11t21.5 3q10 0 23.5 -3t25.5 -12.5t20.5 -27t8.5 -45.5v-373
q0 -73 -21 -127t-59 -89.5t-92.5 -53t-120.5 -17.5q-23 0 -49 2.5t-52 8.5t-50.5 15t-44.5 23zM411 657q0 -36 -26 -60.5t-64 -24.5t-63.5 25t-25.5 60t25.5 60.5t63.5 25.5t64 -25t26 -61z" />
    <glyph glyph-name="Gcommaaccent" unicode="&#x122;" horiz-adv-x="769" 
d="M702 115q0 -42 -18 -67t-59 -37q-40 -12 -86.5 -20.5t-109.5 -8.5q-85 0 -156.5 27t-123 76t-80.5 117.5t-29 152.5q0 85 29.5 154t81.5 117.5t122 74.5t151 26q69 0 121 -14.5t83 -34.5q28 -18 36.5 -36.5t8.5 -35.5q0 -34 -21.5 -56.5t-53.5 -22.5q-24 0 -54 17
q-15 8 -44.5 20t-72.5 12q-44 0 -81.5 -16.5t-65 -46t-43 -70t-15.5 -88.5q0 -49 14 -90t41.5 -70.5t68 -46t92.5 -16.5q30 0 57 4.5t50 14.5v129h-68q-25 0 -40 7.5t-23.5 18.5t-11 23t-2.5 20t2.5 20t11 23t23.5 18.5t40 7.5h131q94 0 94 -94v-209zM427 -198
q-22 -32 -37 -42t-31 -10q-23 0 -39 15t-16 38q0 9 4.5 21.5t18.5 35.5l36 56q18 29 33.5 39t32.5 10q25 0 40.5 -16t15.5 -39q0 -13 -6 -27.5t-16 -28.5z" />
    <glyph glyph-name="gcommaaccent" unicode="&#x123;" horiz-adv-x="658" 
d="M436 252q0 25 -8.5 48t-24.5 40.5t-38 27.5t-50 10t-49.5 -10t-36.5 -27t-23 -40t-8 -49q0 -25 8 -48t23 -40.5t36.5 -28t49.5 -10.5t50.5 10.5t38 27.5t24 40t8.5 49zM103 -191q-23 15 -32 32t-9 33q0 29 18 50t50 21q11 0 23 -3.5t32 -15.5q30 -18 59 -25.5t55 -7.5
q64 0 98 37.5t34 100.5v30h-3q-23 -30 -62 -48t-89 -18q-57 0 -101 20.5t-74.5 55.5t-46.5 81.5t-16 98.5t16 99t46.5 83t74.5 57.5t100 21.5q47 0 90 -19t69 -59h2q2 23 10.5 37.5t20.5 22.5t24.5 11t21.5 3q10 0 23.5 -3t25.5 -12.5t20.5 -27t8.5 -45.5v-373
q0 -73 -21 -127t-59 -89.5t-92.5 -53t-120.5 -17.5q-23 0 -49 2.5t-52 8.5t-50.5 15t-44.5 23zM322 725q22 32 37 42t31 10q23 0 39 -15t16 -38q0 -9 -4.5 -21.5t-18.5 -35.5l-36 -56q-18 -29 -33.5 -39t-32.5 -10q-25 0 -40.5 16t-15.5 39q0 13 6 27.5t16 28.5z" />
    <glyph glyph-name="Hcircumflex" unicode="&#x124;" horiz-adv-x="764" 
d="M73 622q0 31 9.5 49.5t23 29t28 14t25.5 3.5q10 0 24.5 -3.5t28 -14t23 -29t9.5 -49.5v-182h276v182q0 31 9.5 49.5t23 29t28 14t25.5 3.5q10 0 24.5 -3.5t28 -14t23 -29t9.5 -49.5v-536q0 -31 -9.5 -49.5t-23 -29t-28 -14t-24.5 -3.5q-11 0 -25.5 3.5t-28 14t-23 29
t-9.5 49.5v210h-276v-210q0 -31 -9.5 -49.5t-23 -29t-28 -14t-24.5 -3.5q-11 0 -25.5 3.5t-28 14t-23 29t-9.5 49.5v536zM308 772q-23 -18 -42 -18q-21 0 -34 14t-13 33q0 9 4.5 20.5t20.5 24.5l81 66q17 14 30.5 20.5t30.5 6.5t30.5 -6.5t30.5 -20.5l82 -66
q16 -13 20 -24.5t4 -20.5q0 -19 -13.5 -33t-34.5 -14q-20 0 -42 18l-75 63z" />
    <glyph glyph-name="hcircumflex" unicode="&#x125;" horiz-adv-x="617" 
d="M66 674q0 30 9 48t22 27.5t27 13t24 3.5t24 -3.5t27 -13t22 -27.5t9 -48v-239h2q17 30 54 53.5t89 23.5q51 0 85.5 -18t56 -46.5t31 -65.5t9.5 -74v-226q0 -30 -9 -48t-22 -27.5t-27.5 -13t-24.5 -3.5t-24 3.5t-27 13t-22 27.5t-9 48v188q0 21 -3 40t-11.5 33.5t-22.5 23
t-36 8.5q-43 0 -66 -30.5t-23 -75.5v-187q0 -30 -9 -48t-22 -27.5t-27 -13t-24 -3.5t-24 3.5t-27 13t-22 27.5t-9 48v592zM238 804q-23 -18 -42 -18q-21 0 -34 14t-13 33q0 9 4.5 20.5t20.5 24.5l81 66q17 14 30.5 20.5t30.5 6.5t30.5 -6.5t30.5 -20.5l82 -66
q16 -13 20 -24.5t4 -20.5q0 -19 -13.5 -33t-34.5 -14q-20 0 -42 18l-75 63z" />
    <glyph glyph-name="Hbar" unicode="&#x126;" horiz-adv-x="764" 
d="M73 622q0 31 9.5 49.5t23 29t28 14t25.5 3.5q10 0 24.5 -3.5t28 -14t23 -29t9.5 -49.5v-33h276v33q0 31 9.5 49.5t23 29t28 14t25.5 3.5q10 0 24.5 -3.5t28 -14t23 -29t9.5 -49.5v-536q0 -31 -9.5 -49.5t-23 -29t-28 -14t-24.5 -3.5q-11 0 -25.5 3.5t-28 14t-23 29
t-9.5 49.5v210h-276v-210q0 -31 -9.5 -49.5t-23 -29t-28 -14t-24.5 -3.5q-11 0 -25.5 3.5t-28 14t-23 29t-9.5 49.5v536zM520 440v60h-276v-60h276z" />
    <glyph glyph-name="hbar" unicode="&#x127;" horiz-adv-x="617" 
d="M66 570h-6q-16 0 -26 5t-15 12t-7 14.5t-2 13.5q0 5 2 12.5t7 14.5t15 12t26 5h6v15q0 30 9 48t22 27.5t27 13t24 3.5t24 -3.5t27 -13t22 -27.5t9 -48v-15h109q16 0 26 -5t15 -12t7 -14.5t2 -12.5q0 -6 -2 -13.5t-7 -14.5t-15 -12t-26 -5h-109v-135h2q17 30 54 53.5
t89 23.5q51 0 85.5 -18t56 -46.5t31 -65.5t9.5 -74v-226q0 -30 -9 -48t-22 -27.5t-27.5 -13t-24.5 -3.5t-24 3.5t-27 13t-22 27.5t-9 48v188q0 21 -3 40t-11.5 33.5t-22.5 23t-36 8.5q-43 0 -66 -30.5t-23 -75.5v-187q0 -30 -9 -48t-22 -27.5t-27 -13t-24 -3.5t-24 3.5
t-27 13t-22 27.5t-9 48v488z" />
    <glyph glyph-name="Itilde" unicode="&#x128;" horiz-adv-x="318" 
d="M73 622q0 31 9.5 49.5t23 29t28 14t25.5 3.5q10 0 25 -3.5t28.5 -14t23 -29t9.5 -49.5v-536q0 -31 -9.5 -49.5t-23 -29t-28.5 -14t-25 -3.5q-11 0 -25.5 3.5t-28 14t-23 29t-9.5 49.5v536zM257 878q12 17 22.5 23t21.5 6q18 0 29.5 -10.5t11.5 -29.5q0 -5 -1 -10.5
t-4 -13.5q-14 -33 -40 -54.5t-70 -21.5q-21 0 -39 5t-37 16q-23 13 -33.5 16.5t-21.5 3.5q-19 0 -33 -18q-12 -17 -22.5 -23t-21.5 -6q-18 0 -29.5 10.5t-11.5 29.5q0 11 5 24q14 33 40 54.5t70 21.5q21 0 39 -5t37 -16q23 -13 33.5 -16.5t21.5 -3.5q19 0 33 18z" />
    <glyph glyph-name="itilde" unicode="&#x129;" horiz-adv-x="296" 
d="M66 416q0 30 9 48t22 27.5t27 13t24 3.5t24 -3.5t27 -13t22 -27.5t9 -48v-334q0 -30 -9 -48t-22 -27.5t-27 -13t-24 -3.5t-24 3.5t-27 13t-22 27.5t-9 48v334zM247 686q12 17 22.5 23t21.5 6q18 0 29.5 -10.5t11.5 -29.5q0 -5 -1 -10.5t-4 -13.5q-14 -33 -40 -54.5
t-70 -21.5q-21 0 -39 5t-37 16q-23 13 -33.5 16.5t-21.5 3.5q-19 0 -33 -18q-12 -17 -22.5 -23t-21.5 -6q-18 0 -29.5 10.5t-11.5 29.5q0 11 5 24q14 33 40 54.5t70 21.5q21 0 39 -5t37 -16q23 -13 33.5 -16.5t21.5 -3.5q19 0 33 18z" />
    <glyph glyph-name="Imacron" unicode="&#x12a;" horiz-adv-x="318" 
d="M73 622q0 31 9.5 49.5t23 29t28 14t25.5 3.5q10 0 25 -3.5t28.5 -14t23 -29t9.5 -49.5v-536q0 -31 -9.5 -49.5t-23 -29t-28.5 -14t-25 -3.5q-11 0 -25.5 3.5t-28 14t-23 29t-9.5 49.5v536zM280 884q17 0 27.5 -5.5t16.5 -13t8 -15.5t2 -14t-2 -14.5t-8 -16t-16.5 -12.5
t-27.5 -5h-244q-17 0 -27.5 5t-16.5 12.5t-8 16t-2 14.5t2 14t8 15.5t16.5 13t27.5 5.5h244z" />
    <glyph glyph-name="imacron" unicode="&#x12b;" horiz-adv-x="296" 
d="M66 416q0 30 9 48t22 27.5t27 13t24 3.5t24 -3.5t27 -13t22 -27.5t9 -48v-334q0 -30 -9 -48t-22 -27.5t-27 -13t-24 -3.5t-24 3.5t-27 13t-22 27.5t-9 48v334zM271 692q17 0 27.5 -5.5t16.5 -13t8 -15.5t2 -14t-2 -14.5t-8 -16t-16.5 -12.5t-27.5 -5h-244q-17 0 -27.5 5
t-16.5 12.5t-8 16t-2 14.5t2 14t8 15.5t16.5 13t27.5 5.5h244z" />
    <glyph glyph-name="Ibreve" unicode="&#x12c;" horiz-adv-x="318" 
d="M73 622q0 31 9.5 49.5t23 29t28 14t25.5 3.5q10 0 25 -3.5t28.5 -14t23 -29t9.5 -49.5v-536q0 -31 -9.5 -49.5t-23 -29t-28.5 -14t-25 -3.5q-11 0 -25.5 3.5t-28 14t-23 29t-9.5 49.5v536zM159 852q26 0 45 8t30 25q12 19 22 26t25 7q20 0 32 -12.5t12 -30.5
q0 -12 -4 -22q-19 -48 -63.5 -68.5t-98.5 -20.5t-98.5 20.5t-63.5 68.5q-4 10 -4 22q0 18 12 30.5t32 12.5q15 0 25 -7t22 -26q11 -17 30 -25t45 -8z" />
    <glyph glyph-name="ibreve" unicode="&#x12d;" horiz-adv-x="296" 
d="M66 416q0 30 9 48t22 27.5t27 13t24 3.5t24 -3.5t27 -13t22 -27.5t9 -48v-334q0 -30 -9 -48t-22 -27.5t-27 -13t-24 -3.5t-24 3.5t-27 13t-22 27.5t-9 48v334zM149 660q26 0 45 8t30 25q12 19 22 26t25 7q20 0 32 -12.5t12 -30.5q0 -12 -4 -22q-19 -48 -63.5 -68.5
t-98.5 -20.5t-98.5 20.5t-63.5 68.5q-4 10 -4 22q0 18 12 30.5t32 12.5q15 0 25 -7t22 -26q11 -17 30 -25t45 -8z" />
    <glyph glyph-name="Iogonek" unicode="&#x12e;" horiz-adv-x="318" 
d="M73 622q0 31 9.5 49.5t23 29t28 14t25.5 3.5q10 0 25 -3.5t28.5 -14t23 -29t9.5 -49.5v-536q0 -29 -7.5 -44.5t-15.5 -25.5q-23 -26 -38 -45.5t-24 -34.5t-12.5 -28t-3.5 -26q0 -16 10 -26t26 -10q8 0 15.5 2t15.5 5q9 4 19 4q15 0 24.5 -10t9.5 -25q0 -10 -5 -18.5
t-19 -16.5q-41 -23 -88 -23q-20 0 -40 5t-36 15.5t-26 28t-10 41.5q0 33 19.5 65.5t65.5 77.5q-20 7 -36 27t-16 62v536z" />
    <glyph glyph-name="iogonek" unicode="&#x12f;" horiz-adv-x="296" 
d="M66 416q0 30 9 48t22 27.5t27 13t24 3.5t24 -3.5t27 -13t22 -27.5t9 -48v-334q0 -31 -8 -46t-16 -24q-23 -25 -38 -43.5t-25 -33.5t-14 -27.5t-4 -25.5q0 -16 10 -26t26 -10q8 0 15.5 2t15.5 5q9 4 19 4q15 0 24.5 -10t9.5 -25q0 -10 -5 -18.5t-19 -16.5q-41 -23 -88 -23
q-20 0 -40 5t-36 15.5t-26 28t-10 41.5q0 34 21 66t71 77q-18 8 -32.5 27t-14.5 58v334zM242 657q0 -19 -7.5 -35.5t-20 -28.5t-30 -19t-36.5 -7q-40 0 -67 26.5t-27 63.5q0 18 7 34.5t20 28.5t30 19.5t37 7.5q19 0 36.5 -7t30 -19t20 -28.5t7.5 -35.5z" />
    <glyph glyph-name="Idotaccent" unicode="&#x130;" horiz-adv-x="318" 
d="M73 622q0 31 9.5 49.5t23 29t28 14t25.5 3.5q10 0 25 -3.5t28.5 -14t23 -29t9.5 -49.5v-536q0 -31 -9.5 -49.5t-23 -29t-28.5 -14t-25 -3.5q-11 0 -25.5 3.5t-28 14t-23 29t-9.5 49.5v536zM249 849q0 -36 -26 -60.5t-64 -24.5t-63.5 25t-25.5 60t25.5 60.5t63.5 25.5
t64 -25t26 -61z" />
    <glyph glyph-name="dotlessi" unicode="&#x131;" horiz-adv-x="296" 
d="M66 416q0 30 9 48t22 27.5t27 13t24 3.5t24 -3.5t27 -13t22 -27.5t9 -48v-334q0 -30 -9 -48t-22 -27.5t-27 -13t-24 -3.5t-24 3.5t-27 13t-22 27.5t-9 48v334z" />
    <glyph glyph-name="Jcircumflex" unicode="&#x134;" horiz-adv-x="529" 
d="M288 622q0 31 9.5 49.5t23 29t28 14t25.5 3.5q10 0 25 -3.5t28.5 -14t23 -29t9.5 -49.5v-380q0 -42 -9.5 -88t-35 -84.5t-71 -63.5t-117.5 -25q-60 0 -101 18.5t-66 43.5q-15 15 -25.5 34t-10.5 42q0 32 22 53t56 21q19 0 33.5 -7.5t35.5 -29.5q11 -11 24.5 -15.5
t23.5 -4.5q42 0 55.5 29t13.5 76v381zM296 772q-23 -18 -42 -18q-21 0 -34 14t-13 33q0 9 4.5 20.5t20.5 24.5l81 66q17 14 30.5 20.5t30.5 6.5t30.5 -6.5t30.5 -20.5l82 -66q16 -13 20 -24.5t4 -20.5q0 -19 -13.5 -33t-34.5 -14q-20 0 -42 18l-75 63z" />
    <glyph glyph-name="jcircumflex" unicode="&#x135;" horiz-adv-x="299" 
d="M233 -13q0 -105 -44.5 -165.5t-136.5 -60.5q-48 0 -73.5 18t-25.5 52q0 30 19 49.5t54 19.5q43 0 43 65v451q0 30 9 48t22 27.5t27 13t24 3.5t24 -3.5t27 -13t22 -27.5t9 -48v-429zM73 580q-23 -18 -42 -18q-21 0 -34 14t-13 33q0 9 4.5 20.5t20.5 24.5l81 66
q17 14 30.5 20.5t30.5 6.5t30.5 -6.5t30.5 -20.5l82 -66q16 -13 20 -24.5t4 -20.5q0 -19 -13.5 -33t-34.5 -14q-20 0 -42 18l-75 63z" />
    <glyph glyph-name="Kcommaaccent" unicode="&#x136;" horiz-adv-x="711" 
d="M513 686q18 18 35 25t33 7q34 0 56.5 -21.5t22.5 -54.5q0 -14 -6.5 -32t-28.5 -38l-211 -190l241 -238q19 -19 26.5 -35.5t7.5 -33.5q0 -37 -24 -61t-62 -24q-16 0 -34 7.5t-37 27.5l-289 301h-2v-242q0 -30 -9.5 -48.5t-22.5 -28.5t-27.5 -13.5t-24.5 -3.5t-24.5 3.5
t-27.5 13.5t-22.5 28.5t-9.5 48.5v540q0 30 9.5 48.5t22.5 28.5t27.5 13.5t24.5 3.5t24.5 -3.5t27.5 -13.5t22.5 -28.5t9.5 -48.5v-204h3zM367 -198q-22 -32 -37 -42t-31 -10q-23 0 -39 15t-16 38q0 9 4.5 21.5t18.5 35.5l36 56q18 29 33.5 39t32.5 10q25 0 40.5 -16
t15.5 -39q0 -13 -6 -27.5t-16 -28.5z" />
    <glyph glyph-name="kcommaaccent" unicode="&#x137;" horiz-adv-x="595" 
d="M65 674q0 30 9 48t22 27.5t27 13t24 3.5t24.5 -3.5t27.5 -13t22 -27.5t9 -48v-378h3l168 177q18 19 35.5 27t35.5 8q34 0 54.5 -22t20.5 -53q0 -15 -7 -31.5t-27 -34.5l-102 -94l126 -141q17 -19 22 -35t5 -27q0 -34 -22.5 -57t-56.5 -23q-23 0 -41.5 10.5t-39.5 35.5
l-171 203h-3v-157q0 -30 -9 -48t-22 -27.5t-27.5 -13t-24.5 -3.5t-24 3.5t-27 13t-22 27.5t-9 48v592zM310 -198q-22 -32 -37 -42t-31 -10q-23 0 -39 15t-16 38q0 9 4.5 21.5t18.5 35.5l36 56q18 29 33.5 39t32.5 10q25 0 40.5 -16t15.5 -39q0 -13 -6 -27.5t-16 -28.5z" />
    <glyph glyph-name="kgreenlandic" unicode="&#x138;" horiz-adv-x="595" 
d="M65 416q0 30 9 48t22 27.5t27 13t24 3.5t24.5 -3.5t27.5 -13t22 -27.5t9 -48v-120h3l168 177q18 19 35.5 27t35.5 8q34 0 54.5 -22t20.5 -53q0 -15 -7 -31.5t-27 -34.5l-102 -94l126 -141q17 -19 22 -35t5 -27q0 -34 -22.5 -57t-56.5 -23q-23 0 -41.5 10.5t-39.5 35.5
l-171 203h-3v-157q0 -30 -9 -48t-22 -27.5t-27.5 -13t-24.5 -3.5t-24 3.5t-27 13t-22 27.5t-9 48v334z" />
    <glyph glyph-name="Lacute" unicode="&#x139;" horiz-adv-x="526" 
d="M171 0q-98 0 -98 98v524q0 31 9.5 49.5t23 29t28 14t25.5 3.5q10 0 25 -3.5t28.5 -14t23 -29t9.5 -49.5v-473h200q27 0 43.5 -8.5t25.5 -20t12 -24t3 -21.5t-3 -22t-12 -24.5t-25.5 -20t-43.5 -8.5h-274zM216 776q-21 -14 -33 -18t-23 -4q-24 0 -38.5 15.5t-14.5 36.5
q0 12 6 26.5t35 34.5l65 47q23 17 35 21t23 4q24 0 40 -16t16 -39q0 -12 -7 -28t-36 -35z" />
    <glyph glyph-name="lacute" unicode="&#x13a;" horiz-adv-x="298" 
d="M66 673q0 30 9 48.5t22 28t27.5 13t24.5 3.5t24.5 -3.5t27.5 -13t22 -28t9 -48.5v-590q0 -30 -9 -48.5t-22 -28t-27.5 -13t-24.5 -3.5t-24.5 3.5t-27.5 13t-22 28t-9 48.5v590zM202 804q-21 -14 -33 -18t-23 -4q-24 0 -38.5 15.5t-14.5 36.5q0 12 6 26.5t35 34.5l65 47
q23 17 35 21t23 4q24 0 40 -16t16 -39q0 -12 -7 -28t-36 -35z" />
    <glyph glyph-name="Lcommaaccent" unicode="&#x13b;" horiz-adv-x="526" 
d="M171 0q-98 0 -98 98v524q0 31 9.5 49.5t23 29t28 14t25.5 3.5q10 0 25 -3.5t28.5 -14t23 -29t9.5 -49.5v-473h200q27 0 43.5 -8.5t25.5 -20t12 -24t3 -21.5t-3 -22t-12 -24.5t-25.5 -20t-43.5 -8.5h-274zM290 -198q-22 -32 -37 -42t-31 -10q-23 0 -39 15t-16 38
q0 9 4.5 21.5t18.5 35.5l36 56q18 29 33.5 39t32.5 10q25 0 40.5 -16t15.5 -39q0 -13 -6 -27.5t-16 -28.5z" />
    <glyph glyph-name="lcommaaccent" unicode="&#x13c;" horiz-adv-x="298" 
d="M66 673q0 30 9 48.5t22 28t27.5 13t24.5 3.5t24.5 -3.5t27.5 -13t22 -28t9 -48.5v-590q0 -30 -9 -48.5t-22 -28t-27.5 -13t-24.5 -3.5t-24.5 3.5t-27.5 13t-22 28t-9 48.5v590zM148 -198q-22 -32 -37 -42t-31 -10q-23 0 -39 15t-16 38q0 9 4.5 21.5t18.5 35.5l36 56
q18 29 33.5 39t32.5 10q25 0 40.5 -16t15.5 -39q0 -13 -6 -27.5t-16 -28.5z" />
    <glyph glyph-name="Lcaron" unicode="&#x13d;" horiz-adv-x="526" 
d="M171 0q-98 0 -98 98v524q0 31 9.5 49.5t23 29t28 14t25.5 3.5q10 0 25 -3.5t28.5 -14t23 -29t9.5 -49.5v-473h200q27 0 43.5 -8.5t25.5 -20t12 -24t3 -21.5t-3 -22t-12 -24.5t-25.5 -20t-43.5 -8.5h-274zM410 546q-17 -38 -33 -48t-30 -10q-21 0 -38.5 13t-17.5 39
q0 14 13 50l24 64q15 40 31.5 52t35.5 12q25 0 42 -16t17 -39q0 -8 -2.5 -19t-11.5 -32z" />
    <glyph glyph-name="lcaron" unicode="&#x13e;" horiz-adv-x="298" 
d="M66 673q0 30 9 48.5t22 28t27.5 13t24.5 3.5t24.5 -3.5t27.5 -13t22 -28t9 -48.5v-590q0 -30 -9 -48.5t-22 -28t-27.5 -13t-24.5 -3.5t-24.5 3.5t-27.5 13t-22 28t-9 48.5v590zM397 546q-17 -38 -33 -48t-30 -10q-21 0 -38.5 13t-17.5 39q0 14 13 50l24 64q15 40 31.5 52
t35.5 12q25 0 42 -16t17 -39q0 -8 -2.5 -19t-11.5 -32z" />
    <glyph glyph-name="Ldot" unicode="&#x13f;" horiz-adv-x="526" 
d="M171 0q-98 0 -98 98v524q0 31 9.5 49.5t23 29t28 14t25.5 3.5q10 0 25 -3.5t28.5 -14t23 -29t9.5 -49.5v-473h200q27 0 43.5 -8.5t25.5 -20t12 -24t3 -21.5t-3 -22t-12 -24.5t-25.5 -20t-43.5 -8.5h-274zM478 438q0 -36 -26 -60.5t-64 -24.5t-63.5 25t-25.5 60t25.5 60.5
t63.5 25.5t64 -25t26 -61z" />
    <glyph glyph-name="ldot" unicode="&#x140;" horiz-adv-x="448" 
d="M66 673q0 30 9 48.5t22 28t27.5 13t24.5 3.5t24.5 -3.5t27.5 -13t22 -28t9 -48.5v-590q0 -30 -9 -48.5t-22 -28t-27.5 -13t-24.5 -3.5t-24.5 3.5t-27.5 13t-22 28t-9 48.5v590zM448 468q0 -36 -26 -60.5t-64 -24.5t-63.5 25t-25.5 60t25.5 60.5t63.5 25.5t64 -25t26 -61z
" />
    <glyph glyph-name="Lslash" unicode="&#x141;" horiz-adv-x="526" 
d="M171 0q-98 0 -98 98v79q-9 -6 -17.5 -8t-15.5 -2q-22 0 -37 14.5t-15 37.5q0 10 5 22t20 25l60 53v303q0 31 9.5 49.5t23 29t28 14t25.5 3.5q10 0 25 -3.5t28.5 -14t23 -29t9.5 -49.5v-176l107 94q12 11 22.5 14.5t19.5 3.5q22 0 37 -14.5t15 -37.5q0 -10 -5 -22t-20 -25
l-176 -154v-156h200q27 0 43.5 -8.5t25.5 -20t12 -24t3 -21.5t-3 -22t-12 -24.5t-25.5 -20t-43.5 -8.5h-274z" />
    <glyph glyph-name="lslash" unicode="&#x142;" horiz-adv-x="298" 
d="M66 269q-8 -5 -15 -6.5t-13 -1.5q-22 0 -36 14t-14 35q0 8 3.5 19t17.5 25l57 55v264q0 30 9 48.5t22 28t27.5 13t24.5 3.5t24.5 -3.5t27.5 -13t22 -28t9 -48.5v-136q8 6 15 7.5t13 1.5q22 0 36 -14t14 -35q0 -8 -3.5 -19t-17.5 -25l-57 -56v-314q0 -30 -9 -48.5t-22 -28
t-27.5 -13t-24.5 -3.5t-24.5 3.5t-27.5 13t-22 28t-9 48.5v186z" />
    <glyph glyph-name="Nacute" unicode="&#x143;" horiz-adv-x="790" 
d="M238 447h-3l3 -365q0 -30 -9 -48t-22 -27.5t-27.5 -13t-24.5 -3.5t-24 3.5t-27 13t-22 27.5t-9 48v519q0 37 11.5 60t28 36t33.5 17t29 4q28 0 54.5 -14t53.5 -53l269 -389h3l-3 364q0 30 9 48t21.5 27.5t27 13t24.5 3.5t24.5 -3.5t27.5 -13t22 -27.5t9 -48v-519
q0 -38 -11.5 -60.5t-28 -35.5t-33.5 -17t-29 -4q-28 0 -54.5 14t-53.5 53zM444 776q-21 -14 -33 -18t-23 -4q-24 0 -38.5 15.5t-14.5 36.5q0 12 6 26.5t35 34.5l65 47q23 17 35 21t23 4q24 0 40 -16t16 -39q0 -12 -7 -28t-36 -35z" />
    <glyph glyph-name="nacute" unicode="&#x144;" horiz-adv-x="616" 
d="M64 420q0 28 8.5 45.5t21 27t26 12.5t23.5 3t23 -3t25.5 -11.5t21.5 -24t10 -40.5h2q9 16 23.5 31.5t34 26.5t42.5 18t49 7q50 0 85 -18t56.5 -46.5t31 -65.5t9.5 -74v-226q0 -30 -9 -48t-22 -27.5t-27.5 -13t-24.5 -3.5t-24 3.5t-27 13t-22 27.5t-9 48v190q0 21 -3.5 40
t-11.5 33.5t-22.5 23t-36.5 8.5t-38.5 -8.5t-27.5 -23.5t-16.5 -34.5t-5.5 -40.5v-188q0 -30 -9 -48t-22 -27.5t-27.5 -13t-24.5 -3.5t-24 3.5t-27 13t-22 27.5t-9 48v338zM340 584q-21 -14 -33 -18t-23 -4q-24 0 -38.5 15.5t-14.5 36.5q0 12 6 26.5t35 34.5l65 47
q23 17 35 21t23 4q24 0 40 -16t16 -39q0 -12 -7 -28t-36 -35z" />
    <glyph glyph-name="Ncommaaccent" unicode="&#x145;" horiz-adv-x="790" 
d="M238 447h-3l3 -365q0 -30 -9 -48t-22 -27.5t-27.5 -13t-24.5 -3.5t-24 3.5t-27 13t-22 27.5t-9 48v519q0 37 11.5 60t28 36t33.5 17t29 4q28 0 54.5 -14t53.5 -53l269 -389h3l-3 364q0 30 9 48t21.5 27.5t27 13t24.5 3.5t24.5 -3.5t27.5 -13t22 -27.5t9 -48v-519
q0 -38 -11.5 -60.5t-28 -35.5t-33.5 -17t-29 -4q-28 0 -54.5 14t-53.5 53zM389 -198q-22 -32 -37 -42t-31 -10q-23 0 -39 15t-16 38q0 9 4.5 21.5t18.5 35.5l36 56q18 29 33.5 39t32.5 10q25 0 40.5 -16t15.5 -39q0 -13 -6 -27.5t-16 -28.5z" />
    <glyph glyph-name="ncommaaccent" unicode="&#x146;" horiz-adv-x="616" 
d="M64 420q0 28 8.5 45.5t21 27t26 12.5t23.5 3t23 -3t25.5 -11.5t21.5 -24t10 -40.5h2q9 16 23.5 31.5t34 26.5t42.5 18t49 7q50 0 85 -18t56.5 -46.5t31 -65.5t9.5 -74v-226q0 -30 -9 -48t-22 -27.5t-27.5 -13t-24.5 -3.5t-24 3.5t-27 13t-22 27.5t-9 48v190q0 21 -3.5 40
t-11.5 33.5t-22.5 23t-36.5 8.5t-38.5 -8.5t-27.5 -23.5t-16.5 -34.5t-5.5 -40.5v-188q0 -30 -9 -48t-22 -27.5t-27.5 -13t-24.5 -3.5t-24 3.5t-27 13t-22 27.5t-9 48v338zM306 -198q-22 -32 -37 -42t-31 -10q-23 0 -39 15t-16 38q0 9 4.5 21.5t18.5 35.5l36 56
q18 29 33.5 39t32.5 10q25 0 40.5 -16t15.5 -39q0 -13 -6 -27.5t-16 -28.5z" />
    <glyph glyph-name="Ncaron" unicode="&#x147;" horiz-adv-x="790" 
d="M238 447h-3l3 -365q0 -30 -9 -48t-22 -27.5t-27.5 -13t-24.5 -3.5t-24 3.5t-27 13t-22 27.5t-9 48v519q0 37 11.5 60t28 36t33.5 17t29 4q28 0 54.5 -14t53.5 -53l269 -389h3l-3 364q0 30 9 48t21.5 27.5t27 13t24.5 3.5t24.5 -3.5t27.5 -13t22 -27.5t9 -48v-519
q0 -38 -11.5 -60.5t-28 -35.5t-33.5 -17t-29 -4q-28 0 -54.5 14t-53.5 53zM476 921q22 18 42 18q21 0 34 -14t13 -33q0 -9 -4.5 -20.5t-20.5 -24.5l-81 -66q-17 -14 -30.5 -20.5t-30.5 -6.5t-30.5 6.5t-30.5 20.5l-82 66q-16 13 -20 24.5t-4 20.5q0 19 13.5 33t34.5 14
q19 0 42 -18l75 -63z" />
    <glyph glyph-name="ncaron" unicode="&#x148;" horiz-adv-x="616" 
d="M64 420q0 28 8.5 45.5t21 27t26 12.5t23.5 3t23 -3t25.5 -11.5t21.5 -24t10 -40.5h2q9 16 23.5 31.5t34 26.5t42.5 18t49 7q50 0 85 -18t56.5 -46.5t31 -65.5t9.5 -74v-226q0 -30 -9 -48t-22 -27.5t-27.5 -13t-24.5 -3.5t-24 3.5t-27 13t-22 27.5t-9 48v190q0 21 -3.5 40
t-11.5 33.5t-22.5 23t-36.5 8.5t-38.5 -8.5t-27.5 -23.5t-16.5 -34.5t-5.5 -40.5v-188q0 -30 -9 -48t-22 -27.5t-27.5 -13t-24.5 -3.5t-24 3.5t-27 13t-22 27.5t-9 48v338zM389 729q22 18 42 18q21 0 34 -14t13 -33q0 -9 -4.5 -20.5t-20.5 -24.5l-81 -66
q-17 -14 -30.5 -20.5t-30.5 -6.5t-30.5 6.5t-30.5 20.5l-82 66q-16 13 -20 24.5t-4 20.5q0 19 13.5 33t34.5 14q19 0 42 -18l75 -63z" />
    <glyph glyph-name="Eng" unicode="&#x14a;" horiz-adv-x="790" 
d="M238 447h-3l3 -365q0 -30 -9 -48t-22 -27.5t-27.5 -13t-24.5 -3.5t-24 3.5t-27 13t-22 27.5t-9 48v519q0 37 11.5 60t28 36t33.5 17t29 4q28 0 54.5 -14t53.5 -53l269 -390h3l-3 365q0 30 9 48t21.5 27.5t27 13t24.5 3.5t24.5 -3.5t27.5 -13t22 -27.5t9 -48v-639
q0 -105 -44.5 -165.5t-136.5 -60.5q-48 0 -73.5 18t-25.5 52q0 30 19 49.5t54 19.5q43 0 43 65v29z" />
    <glyph glyph-name="eng" unicode="&#x14b;" horiz-adv-x="616" 
d="M556 -13q0 -105 -44.5 -165.5t-136.5 -60.5q-48 0 -73.5 18t-25.5 52q0 30 19 49.5t54 19.5q42 0 42 65v307q0 21 -3.5 40t-11.5 33.5t-22.5 23t-36.5 8.5t-38.5 -8.5t-27.5 -23.5t-16.5 -34.5t-5.5 -40.5v-188q0 -30 -9 -48t-22 -27.5t-27.5 -13t-24.5 -3.5t-24 3.5
t-27 13t-22 27.5t-9 48v338q0 28 8.5 45.5t21 27t26 12.5t23.5 3t23 -3t25.5 -11.5t21.5 -24t10 -40.5h2q9 16 23.5 31.5t34 26.5t42.5 18t49 7q50 0 85 -18t56.5 -46.5t31 -65.5t9.5 -74v-321z" />
    <glyph glyph-name="Omacron" unicode="&#x14c;" horiz-adv-x="851" 
d="M811 357q0 -84 -29 -153.5t-80.5 -119t-122.5 -76.5t-154 -27t-153.5 27t-122 76.5t-80.5 119t-29 153.5q0 85 29 153.5t80.5 116.5t122 74t153.5 26t154 -26t122.5 -74t80.5 -116.5t29 -153.5zM628 357q0 46 -15 86t-41.5 68.5t-64 45t-82.5 16.5t-82 -16.5t-64 -45
t-41.5 -68.5t-14.5 -86q0 -48 15 -88.5t41.5 -69.5t63.5 -45.5t82 -16.5t82 16.5t64 45.5t42 69.5t15 88.5zM545 884q17 0 27.5 -5.5t16.5 -13t8 -15.5t2 -14t-2 -14.5t-8 -16t-16.5 -12.5t-27.5 -5h-244q-17 0 -27.5 5t-16.5 12.5t-8 16t-2 14.5t2 14t8 15.5t16.5 13
t27.5 5.5h244z" />
    <glyph glyph-name="omacron" unicode="&#x14d;" horiz-adv-x="632" 
d="M592 251q0 -61 -22 -110.5t-60 -84t-88 -53.5t-107 -19q-56 0 -106.5 19t-88 53.5t-59.5 84t-22 110.5t22 110t59.5 83t88 52t106.5 18q57 0 107 -18t88 -52t60 -83t22 -110zM434 251q0 24 -8 47t-23 40.5t-37 28.5t-51 11t-51 -11t-36.5 -28.5t-22 -40.5t-7.5 -47
t7.5 -47t22.5 -41.5t37 -29.5t51 -11t51 11t37 29.5t22.5 41.5t7.5 47zM437 692q17 0 27.5 -5.5t16.5 -13t8 -15.5t2 -14t-2 -14.5t-8 -16t-16.5 -12.5t-27.5 -5h-244q-17 0 -27.5 5t-16.5 12.5t-8 16t-2 14.5t2 14t8 15.5t16.5 13t27.5 5.5h244z" />
    <glyph glyph-name="Obreve" unicode="&#x14e;" horiz-adv-x="851" 
d="M811 357q0 -84 -29 -153.5t-80.5 -119t-122.5 -76.5t-154 -27t-153.5 27t-122 76.5t-80.5 119t-29 153.5q0 85 29 153.5t80.5 116.5t122 74t153.5 26t154 -26t122.5 -74t80.5 -116.5t29 -153.5zM628 357q0 46 -15 86t-41.5 68.5t-64 45t-82.5 16.5t-82 -16.5t-64 -45
t-41.5 -68.5t-14.5 -86q0 -48 15 -88.5t41.5 -69.5t63.5 -45.5t82 -16.5t82 16.5t64 45.5t42 69.5t15 88.5zM424 852q26 0 45 8t30 25q12 19 22 26t25 7q20 0 32 -12.5t12 -30.5q0 -12 -4 -22q-19 -48 -63.5 -68.5t-98.5 -20.5t-98.5 20.5t-63.5 68.5q-4 10 -4 22
q0 18 12 30.5t32 12.5q15 0 25 -7t22 -26q11 -17 30 -25t45 -8z" />
    <glyph glyph-name="obreve" unicode="&#x14f;" horiz-adv-x="632" 
d="M592 251q0 -61 -22 -110.5t-60 -84t-88 -53.5t-107 -19q-56 0 -106.5 19t-88 53.5t-59.5 84t-22 110.5t22 110t59.5 83t88 52t106.5 18q57 0 107 -18t88 -52t60 -83t22 -110zM434 251q0 24 -8 47t-23 40.5t-37 28.5t-51 11t-51 -11t-36.5 -28.5t-22 -40.5t-7.5 -47
t7.5 -47t22.5 -41.5t37 -29.5t51 -11t51 11t37 29.5t22.5 41.5t7.5 47zM314 660q26 0 45 8t30 25q12 19 22 26t25 7q20 0 32 -12.5t12 -30.5q0 -12 -4 -22q-19 -48 -63.5 -68.5t-98.5 -20.5t-98.5 20.5t-63.5 68.5q-4 10 -4 22q0 18 12 30.5t32 12.5q15 0 25 -7t22 -26
q11 -17 30 -25t45 -8z" />
    <glyph glyph-name="Ohungarumlaut" unicode="&#x150;" horiz-adv-x="851" 
d="M811 357q0 -84 -29 -153.5t-80.5 -119t-122.5 -76.5t-154 -27t-153.5 27t-122 76.5t-80.5 119t-29 153.5q0 85 29 153.5t80.5 116.5t122 74t153.5 26t154 -26t122.5 -74t80.5 -116.5t29 -153.5zM628 357q0 46 -15 86t-41.5 68.5t-64 45t-82.5 16.5t-82 -16.5t-64 -45
t-41.5 -68.5t-14.5 -86q0 -48 15 -88.5t41.5 -69.5t63.5 -45.5t82 -16.5t82 16.5t64 45.5t42 69.5t15 88.5zM379 779q-20 -15 -33 -20t-24 -5q-24 0 -38.5 15t-14.5 36q0 12 6.5 26t32.5 36l54 44q21 18 33.5 23t23.5 5q24 0 40 -16t16 -39q0 -12 -6 -27t-34 -35zM600 779
q-20 -15 -33 -20t-24 -5q-24 0 -38.5 15t-14.5 36q0 12 6.5 26t32.5 36l54 44q21 18 33.5 23t23.5 5q24 0 40 -16t16 -39q0 -12 -6 -27t-34 -35z" />
    <glyph glyph-name="ohungarumlaut" unicode="&#x151;" horiz-adv-x="632" 
d="M592 251q0 -61 -22 -110.5t-60 -84t-88 -53.5t-107 -19q-56 0 -106.5 19t-88 53.5t-59.5 84t-22 110.5t22 110t59.5 83t88 52t106.5 18q57 0 107 -18t88 -52t60 -83t22 -110zM434 251q0 24 -8 47t-23 40.5t-37 28.5t-51 11t-51 -11t-36.5 -28.5t-22 -40.5t-7.5 -47
t7.5 -47t22.5 -41.5t37 -29.5t51 -11t51 11t37 29.5t22.5 41.5t7.5 47zM278 587q-20 -15 -33 -20t-24 -5q-24 0 -38.5 15t-14.5 36q0 12 6.5 26t32.5 36l54 44q21 18 33.5 23t23.5 5q24 0 40 -16t16 -39q0 -12 -6 -27t-34 -35zM499 587q-20 -15 -33 -20t-24 -5
q-24 0 -38.5 15t-14.5 36q0 12 6.5 26t32.5 36l54 44q21 18 33.5 23t23.5 5q24 0 40 -16t16 -39q0 -12 -6 -27t-34 -35z" />
    <glyph glyph-name="OE" unicode="&#x152;" horiz-adv-x="1019" 
d="M875 430q26 0 41.5 -7.5t24 -18.5t11 -22.5t2.5 -19.5t-2.5 -20t-11 -23t-24 -18.5t-41.5 -7.5h-211v-147h244q26 0 42 -8t24.5 -19.5t11.5 -24t3 -21.5t-3 -21.5t-11.5 -24t-24.5 -19.5t-42 -8h-466q-75 0 -147 19.5t-129 62t-91.5 110t-34.5 163.5q0 97 34.5 164.5
t91.5 109.5t129 60.5t147 18.5h448q26 0 42 -8t24.5 -19.5t11.5 -23.5t3 -21t-3 -21.5t-11.5 -24t-24.5 -19.5t-42 -8h-226v-133h211zM501 563h-46q-45 0 -87 -10t-74.5 -34t-52 -64.5t-19.5 -102.5q0 -57 19.5 -96t52 -63.5t73.5 -35.5t84 -11h50v417z" />
    <glyph glyph-name="oe" unicode="&#x153;" horiz-adv-x="973" 
d="M198 251q0 -24 7.5 -47.5t22 -41.5t36.5 -29t51 -11t51 11t37 29t22.5 41.5t7.5 47.5t-7.5 46.5t-22.5 40.5t-37 29t-51 11t-51 -11t-36.5 -29t-22 -40.5t-7.5 -46.5zM784 306q0 39 -24.5 67t-73.5 28q-24 0 -44 -7.5t-35 -20.5t-24 -30.5t-10 -36.5h211zM690 -16
q-63 0 -113 23t-78 60q-29 -38 -76.5 -60.5t-109.5 -22.5q-57 0 -106.5 18.5t-87 53.5t-59 84t-21.5 111q0 61 21.5 109.5t59 82.5t87 52.5t106.5 18.5q61 0 110 -24.5t77 -62.5q31 37 78.5 62t108.5 25q94 0 157 -51t83 -142q2 -11 3.5 -20t1.5 -18q0 -42 -23 -60.5
t-62 -18.5h-274q3 -21 13.5 -38.5t26.5 -29.5t36.5 -19t42.5 -7q29 0 50 6t45 23q19 13 29.5 17t22.5 4q27 0 45 -17t18 -45q0 -11 -5.5 -26.5t-23.5 -29.5q-32 -26 -77.5 -42t-105.5 -16z" />
    <glyph glyph-name="Racute" unicode="&#x154;" horiz-adv-x="663" 
d="M445 491q0 25 -10.5 40.5t-27 24t-37 11.5t-39.5 3h-91v-165h81q21 0 43 3.5t40 12.5t29.5 26t11.5 44zM302 281h-61v-197q0 -30 -9.5 -48.5t-22.5 -28.5t-27.5 -13.5t-24.5 -3.5t-24.5 3.5t-27.5 13.5t-22.5 28.5t-9.5 48.5v526q0 98 98 98h172q74 0 125.5 -17t84 -46
t47 -68t14.5 -83q0 -72 -38.5 -120.5t-105.5 -69.5l131 -175q12 -17 17 -31.5t5 -27.5q0 -35 -24 -57.5t-59 -22.5q-17 0 -36.5 9t-36.5 35zM352 776q-21 -14 -33 -18t-23 -4q-24 0 -38.5 15.5t-14.5 36.5q0 12 6 26.5t35 34.5l65 47q23 17 35 21t23 4q24 0 40 -16t16 -39
q0 -12 -7 -28t-36 -35z" />
    <glyph glyph-name="racute" unicode="&#x155;" horiz-adv-x="396" 
d="M64 420q0 28 8.5 45.5t21 27t26 12.5t23.5 3q9 0 22.5 -3t26 -12t21.5 -25t9 -42h2q7 16 17 31t22.5 27t28.5 19.5t36 7.5q35 0 54 -20.5t19 -51.5q0 -28 -18.5 -51.5t-65.5 -26.5q-43 -3 -66 -32.5t-23 -72.5v-174q0 -30 -9 -48t-22 -27.5t-27 -13t-24 -3.5t-24 3.5
t-27 13t-22 27.5t-9 48v338zM246 584q-21 -14 -33 -18t-23 -4q-24 0 -38.5 15.5t-14.5 36.5q0 12 6 26.5t35 34.5l65 47q23 17 35 21t23 4q24 0 40 -16t16 -39q0 -12 -7 -28t-36 -35z" />
    <glyph glyph-name="Rcommaaccent" unicode="&#x156;" horiz-adv-x="663" 
d="M445 491q0 25 -10.5 40.5t-27 24t-37 11.5t-39.5 3h-91v-165h81q21 0 43 3.5t40 12.5t29.5 26t11.5 44zM302 281h-61v-197q0 -30 -9.5 -48.5t-22.5 -28.5t-27.5 -13.5t-24.5 -3.5t-24.5 3.5t-27.5 13.5t-22.5 28.5t-9.5 48.5v526q0 98 98 98h172q74 0 125.5 -17t84 -46
t47 -68t14.5 -83q0 -72 -38.5 -120.5t-105.5 -69.5l131 -175q12 -17 17 -31.5t5 -27.5q0 -35 -24 -57.5t-59 -22.5q-17 0 -36.5 9t-36.5 35zM340 -198q-22 -32 -37 -42t-31 -10q-23 0 -39 15t-16 38q0 9 4.5 21.5t18.5 35.5l36 56q18 29 33.5 39t32.5 10q25 0 40.5 -16
t15.5 -39q0 -13 -6 -27.5t-16 -28.5z" />
    <glyph glyph-name="rcommaaccent" unicode="&#x157;" horiz-adv-x="396" 
d="M64 420q0 28 8.5 45.5t21 27t26 12.5t23.5 3q9 0 22.5 -3t26 -12t21.5 -25t9 -42h2q7 16 17 31t22.5 27t28.5 19.5t36 7.5q35 0 54 -20.5t19 -51.5q0 -28 -18.5 -51.5t-65.5 -26.5q-43 -3 -66 -32.5t-23 -72.5v-174q0 -30 -9 -48t-22 -27.5t-27 -13t-24 -3.5t-24 3.5
t-27 13t-22 27.5t-9 48v338zM147 -198q-22 -32 -37 -42t-31 -10q-23 0 -39 15t-16 38q0 9 4.5 21.5t18.5 35.5l36 56q18 29 33.5 39t32.5 10q25 0 40.5 -16t15.5 -39q0 -13 -6 -27.5t-16 -28.5z" />
    <glyph glyph-name="Rcaron" unicode="&#x158;" horiz-adv-x="663" 
d="M445 491q0 25 -10.5 40.5t-27 24t-37 11.5t-39.5 3h-91v-165h81q21 0 43 3.5t40 12.5t29.5 26t11.5 44zM302 281h-61v-197q0 -30 -9.5 -48.5t-22.5 -28.5t-27.5 -13.5t-24.5 -3.5t-24.5 3.5t-27.5 13.5t-22.5 28.5t-9.5 48.5v526q0 98 98 98h172q74 0 125.5 -17t84 -46
t47 -68t14.5 -83q0 -72 -38.5 -120.5t-105.5 -69.5l131 -175q12 -17 17 -31.5t5 -27.5q0 -35 -24 -57.5t-59 -22.5q-17 0 -36.5 9t-36.5 35zM399 921q22 18 42 18q21 0 34 -14t13 -33q0 -9 -4.5 -20.5t-20.5 -24.5l-81 -66q-17 -14 -30.5 -20.5t-30.5 -6.5t-30.5 6.5
t-30.5 20.5l-82 66q-16 13 -20 24.5t-4 20.5q0 19 13.5 33t34.5 14q19 0 42 -18l75 -63z" />
    <glyph glyph-name="rcaron" unicode="&#x159;" horiz-adv-x="396" 
d="M64 420q0 28 8.5 45.5t21 27t26 12.5t23.5 3q9 0 22.5 -3t26 -12t21.5 -25t9 -42h2q7 16 17 31t22.5 27t28.5 19.5t36 7.5q35 0 54 -20.5t19 -51.5q0 -28 -18.5 -51.5t-65.5 -26.5q-43 -3 -66 -32.5t-23 -72.5v-174q0 -30 -9 -48t-22 -27.5t-27 -13t-24 -3.5t-24 3.5
t-27 13t-22 27.5t-9 48v338zM307 729q22 18 42 18q21 0 34 -14t13 -33q0 -9 -4.5 -20.5t-20.5 -24.5l-81 -66q-17 -14 -30.5 -20.5t-30.5 -6.5t-30.5 6.5t-30.5 20.5l-82 66q-16 13 -20 24.5t-4 20.5q0 19 13.5 33t34.5 14q19 0 42 -18l75 -63z" />
    <glyph glyph-name="Sacute" unicode="&#x15a;" horiz-adv-x="591" 
d="M76 39q-23 18 -31 35t-8 32q0 32 22 56t57 24q26 0 58 -23q20 -14 53 -27t65 -13q16 0 31.5 4.5t27.5 13.5t19.5 23.5t7.5 35.5q0 20 -10 34t-28.5 25.5t-46 21t-62.5 20.5q-34 11 -66.5 26t-58 38.5t-41 57t-15.5 81.5q0 59 24 101t63 69t88 39.5t99 12.5q41 0 85 -10.5
t76 -30.5q27 -17 36.5 -34.5t9.5 -36.5q0 -30 -20 -52.5t-52 -22.5q-11 0 -21 3t-29 13q-30 16 -52 23t-41 7q-38 0 -66 -16.5t-28 -54.5q0 -18 7.5 -30t22 -21t34.5 -16.5t45 -15.5q36 -12 75 -26.5t71 -38.5t53 -59.5t21 -88.5q0 -61 -22.5 -105.5t-60.5 -73.5t-87 -43
t-101 -14q-27 0 -56 4t-56.5 11.5t-51.5 18t-40 23.5zM346 776q-21 -14 -33 -18t-23 -4q-24 0 -38.5 15.5t-14.5 36.5q0 12 6 26.5t35 34.5l65 47q23 17 35 21t23 4q24 0 40 -16t16 -39q0 -12 -7 -28t-36 -35z" />
    <glyph glyph-name="sacute" unicode="&#x15b;" horiz-adv-x="472" 
d="M68 23q-22 14 -30 30t-8 31q0 27 18 45.5t45 18.5q12 0 24 -4t26 -14q22 -15 42 -21.5t40 -6.5t39.5 9.5t19.5 33.5q0 23 -24 33.5t-75 22.5q-26 6 -52 16.5t-46.5 27.5t-33.5 42t-13 60q0 45 19 76.5t49 51.5t66.5 29.5t72.5 9.5q16 0 34.5 -2t36.5 -5.5t35 -9t29 -12.5
q25 -14 33.5 -29.5t8.5 -30.5q0 -26 -16.5 -44t-45.5 -18q-17 0 -42 14q-17 10 -32.5 14.5t-34.5 4.5q-23 0 -42.5 -9t-19.5 -31q0 -21 21.5 -29.5t69.5 -19.5q28 -6 56.5 -17.5t51.5 -29.5t37 -44t14 -62q0 -47 -19 -79.5t-49.5 -52.5t-68.5 -29t-76 -9q-43 0 -87 10
t-73 29zM280 584q-21 -14 -33 -18t-23 -4q-24 0 -38.5 15.5t-14.5 36.5q0 12 6 26.5t35 34.5l65 47q23 17 35 21t23 4q24 0 40 -16t16 -39q0 -12 -7 -28t-36 -35z" />
    <glyph glyph-name="Scircumflex" unicode="&#x15c;" horiz-adv-x="591" 
d="M76 39q-23 18 -31 35t-8 32q0 32 22 56t57 24q26 0 58 -23q20 -14 53 -27t65 -13q16 0 31.5 4.5t27.5 13.5t19.5 23.5t7.5 35.5q0 20 -10 34t-28.5 25.5t-46 21t-62.5 20.5q-34 11 -66.5 26t-58 38.5t-41 57t-15.5 81.5q0 59 24 101t63 69t88 39.5t99 12.5q41 0 85 -10.5
t76 -30.5q27 -17 36.5 -34.5t9.5 -36.5q0 -30 -20 -52.5t-52 -22.5q-11 0 -21 3t-29 13q-30 16 -52 23t-41 7q-38 0 -66 -16.5t-28 -54.5q0 -18 7.5 -30t22 -21t34.5 -16.5t45 -15.5q36 -12 75 -26.5t71 -38.5t53 -59.5t21 -88.5q0 -61 -22.5 -105.5t-60.5 -73.5t-87 -43
t-101 -14q-27 0 -56 4t-56.5 11.5t-51.5 18t-40 23.5zM239 772q-23 -18 -42 -18q-21 0 -34 14t-13 33q0 9 4.5 20.5t20.5 24.5l81 66q17 14 30.5 20.5t30.5 6.5t30.5 -6.5t30.5 -20.5l82 -66q16 -13 20 -24.5t4 -20.5q0 -19 -13.5 -33t-34.5 -14q-20 0 -42 18l-75 63z" />
    <glyph glyph-name="scircumflex" unicode="&#x15d;" horiz-adv-x="472" 
d="M68 23q-22 14 -30 30t-8 31q0 27 18 45.5t45 18.5q12 0 24 -4t26 -14q22 -15 42 -21.5t40 -6.5t39.5 9.5t19.5 33.5q0 23 -24 33.5t-75 22.5q-26 6 -52 16.5t-46.5 27.5t-33.5 42t-13 60q0 45 19 76.5t49 51.5t66.5 29.5t72.5 9.5q16 0 34.5 -2t36.5 -5.5t35 -9t29 -12.5
q25 -14 33.5 -29.5t8.5 -30.5q0 -26 -16.5 -44t-45.5 -18q-17 0 -42 14q-17 10 -32.5 14.5t-34.5 4.5q-23 0 -42.5 -9t-19.5 -31q0 -21 21.5 -29.5t69.5 -19.5q28 -6 56.5 -17.5t51.5 -29.5t37 -44t14 -62q0 -47 -19 -79.5t-49.5 -52.5t-68.5 -29t-76 -9q-43 0 -87 10
t-73 29zM166 580q-23 -18 -42 -18q-21 0 -34 14t-13 33q0 9 4.5 20.5t20.5 24.5l81 66q17 14 30.5 20.5t30.5 6.5t30.5 -6.5t30.5 -20.5l82 -66q16 -13 20 -24.5t4 -20.5q0 -19 -13.5 -33t-34.5 -14q-20 0 -42 18l-75 63z" />
    <glyph glyph-name="Scedilla" unicode="&#x15e;" horiz-adv-x="591" 
d="M270 -240q-25 0 -47.5 4t-39.5 9q-30 9 -30 33q0 14 8.5 23.5t22.5 9.5q5 0 11.5 -1.5t11.5 -3.5q27 -8 55 -8q8 0 16.5 1.5t16 5t12.5 9.5t5 16q0 28 -40 28q-6 0 -11.5 -0.5t-10.5 -1.5t-9.5 -1.5t-9.5 -0.5q-16 0 -23.5 7.5t-7.5 18.5t12 27l36 49q-48 4 -96 18.5
t-76 36.5q-23 18 -31 35t-8 32q0 32 22 56t57 24q26 0 58 -23q20 -14 53 -27t65 -13q16 0 31.5 4.5t27.5 13.5t19.5 23.5t7.5 35.5q0 20 -10 34t-28.5 25.5t-46 21t-62.5 20.5q-34 11 -66.5 26t-58 38.5t-41 57t-15.5 81.5q0 59 24 101t63 69t88 39.5t99 12.5q41 0 85 -10.5
t76 -30.5q27 -17 36.5 -34.5t9.5 -36.5q0 -30 -20 -52.5t-52 -22.5q-11 0 -21 3t-29 13q-30 16 -52 23t-41 7q-38 0 -66 -16.5t-28 -54.5q0 -18 7.5 -30t22 -21t34.5 -16.5t45 -15.5q36 -12 75 -26.5t71 -38.5t53 -59.5t21 -88.5q0 -54 -17.5 -94.5t-47.5 -69.5t-70 -45.5
t-85 -22.5l-35 -46q5 1 9 1h9q18 0 36.5 -3.5t33 -12.5t24 -25.5t9.5 -41.5q0 -29 -14 -48t-36 -30t-47.5 -15.5t-49.5 -4.5z" />
    <glyph glyph-name="scedilla" unicode="&#x15f;" horiz-adv-x="472" 
d="M216 -240q-25 0 -47.5 4t-39.5 9q-30 9 -30 33q0 14 8.5 23.5t22.5 9.5q5 0 11.5 -1.5t11.5 -3.5q27 -8 55 -8q8 0 16.5 1.5t16 5t12.5 9.5t5 16q0 28 -40 28q-6 0 -11.5 -0.5t-10.5 -1.5t-9.5 -1.5t-9.5 -0.5q-16 0 -23.5 7.5t-7.5 18.5t12 27l38 51q-36 3 -70.5 12
t-57.5 25q-22 14 -30 30t-8 31q0 27 18 45.5t45 18.5q12 0 24 -4t26 -14q22 -15 42 -21.5t40 -6.5t39.5 9.5t19.5 33.5q0 23 -24 33.5t-75 22.5q-26 6 -52 16.5t-46.5 27.5t-33.5 42t-13 60q0 45 19 76.5t49 51.5t66.5 29.5t72.5 9.5q16 0 34.5 -2t36.5 -5.5t35 -9t29 -12.5
q25 -14 33.5 -29.5t8.5 -30.5q0 -26 -16.5 -44t-45.5 -18q-17 0 -42 14q-17 10 -32.5 14.5t-34.5 4.5q-23 0 -42.5 -9t-19.5 -31q0 -21 21.5 -29.5t69.5 -19.5q28 -6 56.5 -17.5t51.5 -29.5t37 -44t14 -62q0 -39 -13.5 -68.5t-36 -49.5t-52 -32t-60.5 -16l-37 -48q5 1 9 1h9
q18 0 36.5 -3.5t33 -12.5t24 -25.5t9.5 -41.5q0 -29 -14 -48t-36 -30t-47.5 -15.5t-49.5 -4.5z" />
    <glyph glyph-name="Scaron" unicode="&#x160;" horiz-adv-x="591" 
d="M76 39q-23 18 -31 35t-8 32q0 32 22 56t57 24q26 0 58 -23q20 -14 53 -27t65 -13q16 0 31.5 4.5t27.5 13.5t19.5 23.5t7.5 35.5q0 20 -10 34t-28.5 25.5t-46 21t-62.5 20.5q-34 11 -66.5 26t-58 38.5t-41 57t-15.5 81.5q0 59 24 101t63 69t88 39.5t99 12.5q41 0 85 -10.5
t76 -30.5q27 -17 36.5 -34.5t9.5 -36.5q0 -30 -20 -52.5t-52 -22.5q-11 0 -21 3t-29 13q-30 16 -52 23t-41 7q-38 0 -66 -16.5t-28 -54.5q0 -18 7.5 -30t22 -21t34.5 -16.5t45 -15.5q36 -12 75 -26.5t71 -38.5t53 -59.5t21 -88.5q0 -61 -22.5 -105.5t-60.5 -73.5t-87 -43
t-101 -14q-27 0 -56 4t-56.5 11.5t-51.5 18t-40 23.5zM397 921q22 18 42 18q21 0 34 -14t13 -33q0 -9 -4.5 -20.5t-20.5 -24.5l-81 -66q-17 -14 -30.5 -20.5t-30.5 -6.5t-30.5 6.5t-30.5 20.5l-82 66q-16 13 -20 24.5t-4 20.5q0 19 13.5 33t34.5 14q19 0 42 -18l75 -63z" />
    <glyph glyph-name="scaron" unicode="&#x161;" horiz-adv-x="472" 
d="M68 23q-22 14 -30 30t-8 31q0 27 18 45.5t45 18.5q12 0 24 -4t26 -14q22 -15 42 -21.5t40 -6.5t39.5 9.5t19.5 33.5q0 23 -24 33.5t-75 22.5q-26 6 -52 16.5t-46.5 27.5t-33.5 42t-13 60q0 45 19 76.5t49 51.5t66.5 29.5t72.5 9.5q16 0 34.5 -2t36.5 -5.5t35 -9t29 -12.5
q25 -14 33.5 -29.5t8.5 -30.5q0 -26 -16.5 -44t-45.5 -18q-17 0 -42 14q-17 10 -32.5 14.5t-34.5 4.5q-23 0 -42.5 -9t-19.5 -31q0 -21 21.5 -29.5t69.5 -19.5q28 -6 56.5 -17.5t51.5 -29.5t37 -44t14 -62q0 -47 -19 -79.5t-49.5 -52.5t-68.5 -29t-76 -9q-43 0 -87 10
t-73 29zM322 729q22 18 42 18q21 0 34 -14t13 -33q0 -9 -4.5 -20.5t-20.5 -24.5l-81 -66q-17 -14 -30.5 -20.5t-30.5 -6.5t-30.5 6.5t-30.5 20.5l-82 66q-16 13 -20 24.5t-4 20.5q0 19 13.5 33t34.5 14q19 0 42 -18l75 -63z" />
    <glyph glyph-name="uni0162" unicode="&#x162;" horiz-adv-x="581" 
d="M76 562q-26 0 -42 8t-24.5 19.5t-11.5 24t-3 21.5t3 21.5t11.5 24t24.5 19.5t42 8h429q26 0 42 -8t24.5 -19.5t11.5 -24t3 -21.5t-3 -21.5t-11.5 -24t-24.5 -19.5t-42 -8h-129v-476q0 -31 -9.5 -49.5t-23 -29t-28 -14t-24.5 -3.5q-11 0 -25.5 3.5t-28 14t-23 29
t-9.5 49.5v476h-129zM289 -198q-22 -32 -37 -42t-31 -10q-23 0 -39 15t-16 38q0 9 4.5 21.5t18.5 35.5l36 56q18 29 33.5 39t32.5 10q25 0 40.5 -16t15.5 -39q0 -13 -6 -27.5t-16 -28.5z" />
    <glyph glyph-name="uni0163" unicode="&#x163;" horiz-adv-x="372" 
d="M81 549q0 29 9 46.5t21.5 27.5t26.5 13t24 3q9 0 23 -3t26.5 -13t21.5 -27.5t9 -46.5v-51h58q22 0 35.5 -7t21 -16.5t10 -20t2.5 -17.5q0 -8 -2.5 -18.5t-10 -20t-21 -16.5t-35.5 -7h-58v-190q0 -35 11 -51.5t38 -16.5h13q31 0 46 -19t15 -40q0 -39 -30.5 -54.5
t-75.5 -15.5q-50 0 -84 12.5t-54.5 36t-29.5 56t-9 72.5v210h-21q-22 0 -35.5 7t-21 16.5t-10 20t-2.5 18.5q0 7 2.5 17.5t10 20t21 16.5t35.5 7h20v51zM209 -198q-22 -32 -37 -42t-31 -10q-23 0 -39 15t-16 38q0 9 4.5 21.5t18.5 35.5l36 56q18 29 33.5 39t32.5 10
q25 0 40.5 -16t15.5 -39q0 -13 -6 -27.5t-16 -28.5z" />
    <glyph glyph-name="Tcaron" unicode="&#x164;" horiz-adv-x="581" 
d="M76 562q-26 0 -42 8t-24.5 19.5t-11.5 24t-3 21.5t3 21.5t11.5 24t24.5 19.5t42 8h429q26 0 42 -8t24.5 -19.5t11.5 -24t3 -21.5t-3 -21.5t-11.5 -24t-24.5 -19.5t-42 -8h-129v-476q0 -31 -9.5 -49.5t-23 -29t-28 -14t-24.5 -3.5q-11 0 -25.5 3.5t-28 14t-23 29
t-9.5 49.5v476h-129zM370 921q22 18 42 18q21 0 34 -14t13 -33q0 -9 -4.5 -20.5t-20.5 -24.5l-81 -66q-17 -14 -30.5 -20.5t-30.5 -6.5t-30.5 6.5t-30.5 20.5l-82 66q-16 13 -20 24.5t-4 20.5q0 19 13.5 33t34.5 14q19 0 42 -18l75 -63z" />
    <glyph glyph-name="tcaron" unicode="&#x165;" horiz-adv-x="372" 
d="M81 549q0 29 9 46.5t21.5 27.5t26.5 13t24 3q9 0 23 -3t26.5 -13t21.5 -27.5t9 -46.5v-51h58q22 0 35.5 -7t21 -16.5t10 -20t2.5 -17.5q0 -8 -2.5 -18.5t-10 -20t-21 -16.5t-35.5 -7h-58v-190q0 -35 11 -51.5t38 -16.5h13q31 0 46 -19t15 -40q0 -39 -30.5 -54.5
t-75.5 -15.5q-50 0 -84 12.5t-54.5 36t-29.5 56t-9 72.5v210h-21q-22 0 -35.5 7t-21 16.5t-10 20t-2.5 18.5q0 7 2.5 17.5t10 20t21 16.5t35.5 7h20v51zM404 569q-17 -38 -33 -48t-30 -10q-21 0 -38.5 13t-17.5 39q0 14 13 50l24 64q15 40 31.5 52t35.5 12q25 0 42 -16
t17 -39q0 -8 -2.5 -19t-11.5 -32z" />
    <glyph glyph-name="Tbar" unicode="&#x166;" horiz-adv-x="581" 
d="M76 562q-26 0 -42 8t-24.5 19.5t-11.5 24t-3 21.5t3 21.5t11.5 24t24.5 19.5t42 8h429q26 0 42 -8t24.5 -19.5t11.5 -24t3 -21.5t-3 -21.5t-11.5 -24t-24.5 -19.5t-42 -8h-129v-85h96q16 0 26 -5t15 -12t7 -14.5t2 -12.5q0 -6 -2 -13.5t-7 -14.5t-15 -12t-26 -5h-96v-302
q0 -31 -9.5 -49.5t-23 -29t-28 -14t-24.5 -3.5q-11 0 -25.5 3.5t-28 14t-23 29t-9.5 49.5v302h-91q-16 0 -26 5t-15 12t-7 14.5t-2 13.5q0 5 2 12.5t7 14.5t15 12t26 5h91v85h-129z" />
    <glyph glyph-name="tbar" unicode="&#x167;" horiz-adv-x="372" 
d="M81 549q0 29 9 46.5t21.5 27.5t26.5 13t24 3q9 0 23 -3t26.5 -13t21.5 -27.5t9 -46.5v-51h58q22 0 35.5 -7t21 -16.5t10 -20t2.5 -17.5q0 -8 -2.5 -18.5t-10 -20t-21 -16.5t-35.5 -7h-58v-71h57q16 0 26 -5t15 -12t7 -14.5t2 -12.5q0 -6 -2 -13.5t-7 -14.5t-15 -12
t-26 -5h-57v-30q0 -35 11 -51.5t38 -16.5h13q31 0 46 -19t15 -40q0 -39 -30.5 -54.5t-75.5 -15.5q-50 0 -84 12.5t-54.5 36t-29.5 56t-9 72.5v50h-31q-16 0 -26 5t-15 12t-7 14.5t-2 13.5q0 5 2 12.5t7 14.5t15 12t26 5h31v71h-21q-22 0 -35.5 7t-21 16.5t-10 20t-2.5 18.5
q0 7 2.5 17.5t10 20t21 16.5t35.5 7h20v51z" />
    <glyph glyph-name="Utilde" unicode="&#x168;" horiz-adv-x="738" 
d="M502 623q0 31 9.5 49.5t23 28.5t28 13.5t25.5 3.5q10 0 25 -3.5t28 -13.5t22.5 -28.5t9.5 -49.5v-356q0 -64 -21.5 -116.5t-61.5 -90t-96.5 -58.5t-125.5 -21q-70 0 -126 21t-95 58.5t-60 90t-21 116.5v356q0 31 9.5 49.5t22.5 28.5t27.5 13.5t25.5 3.5q10 0 25 -3.5
t28 -13.5t22.5 -28.5t9.5 -49.5v-342q0 -29 7.5 -55t23 -46.5t41 -32.5t61.5 -12t61.5 12t41.5 32.5t23 46.5t7 55v342zM471 878q12 17 22.5 23t21.5 6q18 0 29.5 -10.5t11.5 -29.5q0 -5 -1 -10.5t-4 -13.5q-14 -33 -40 -54.5t-70 -21.5q-21 0 -39 5t-37 16
q-23 13 -33.5 16.5t-21.5 3.5q-19 0 -33 -18q-12 -17 -22.5 -23t-21.5 -6q-18 0 -29.5 10.5t-11.5 29.5q0 11 5 24q14 33 40 54.5t70 21.5q21 0 39 -5t37 -16q23 -13 33.5 -16.5t21.5 -3.5q19 0 33 18z" />
    <glyph glyph-name="utilde" unicode="&#x169;" horiz-adv-x="614" 
d="M550 78q0 -29 -8.5 -46t-21 -26.5t-26 -12.5t-22.5 -3q-10 0 -23 3t-25.5 11.5t-21.5 24t-10 40.5h-2q-9 -17 -23.5 -32t-34 -26t-42.5 -18t-49 -7q-50 0 -85 18t-56.5 46.5t-31 65t-9.5 74.5v226q0 30 9 48t22 27.5t27 13t25 3.5q10 0 24 -3.5t27 -13t22 -27.5t9 -48
v-188q0 -21 3 -40t11.5 -34t22.5 -23.5t37 -8.5q43 0 65.5 32t22.5 75v187q0 30 9 48t22 27.5t27 13t24 3.5t24 -3.5t27 -13t22 -27.5t9 -48v-338zM403 686q12 17 22.5 23t21.5 6q18 0 29.5 -10.5t11.5 -29.5q0 -5 -1 -10.5t-4 -13.5q-14 -33 -40 -54.5t-70 -21.5
q-21 0 -39 5t-37 16q-23 13 -33.5 16.5t-21.5 3.5q-19 0 -33 -18q-12 -17 -22.5 -23t-21.5 -6q-18 0 -29.5 10.5t-11.5 29.5q0 11 5 24q14 33 40 54.5t70 21.5q21 0 39 -5t37 -16q23 -13 33.5 -16.5t21.5 -3.5q19 0 33 18z" />
    <glyph glyph-name="Umacron" unicode="&#x16a;" horiz-adv-x="738" 
d="M502 623q0 31 9.5 49.5t23 28.5t28 13.5t25.5 3.5q10 0 25 -3.5t28 -13.5t22.5 -28.5t9.5 -49.5v-356q0 -64 -21.5 -116.5t-61.5 -90t-96.5 -58.5t-125.5 -21q-70 0 -126 21t-95 58.5t-60 90t-21 116.5v356q0 31 9.5 49.5t22.5 28.5t27.5 13.5t25.5 3.5q10 0 25 -3.5
t28 -13.5t22.5 -28.5t9.5 -49.5v-342q0 -29 7.5 -55t23 -46.5t41 -32.5t61.5 -12t61.5 12t41.5 32.5t23 46.5t7 55v342zM496 884q17 0 27.5 -5.5t16.5 -13t8 -15.5t2 -14t-2 -14.5t-8 -16t-16.5 -12.5t-27.5 -5h-244q-17 0 -27.5 5t-16.5 12.5t-8 16t-2 14.5t2 14t8 15.5
t16.5 13t27.5 5.5h244z" />
    <glyph glyph-name="umacron" unicode="&#x16b;" horiz-adv-x="614" 
d="M550 78q0 -29 -8.5 -46t-21 -26.5t-26 -12.5t-22.5 -3q-10 0 -23 3t-25.5 11.5t-21.5 24t-10 40.5h-2q-9 -17 -23.5 -32t-34 -26t-42.5 -18t-49 -7q-50 0 -85 18t-56.5 46.5t-31 65t-9.5 74.5v226q0 30 9 48t22 27.5t27 13t25 3.5q10 0 24 -3.5t27 -13t22 -27.5t9 -48
v-188q0 -21 3 -40t11.5 -34t22.5 -23.5t37 -8.5q43 0 65.5 32t22.5 75v187q0 30 9 48t22 27.5t27 13t24 3.5t24 -3.5t27 -13t22 -27.5t9 -48v-338zM426 692q17 0 27.5 -5.5t16.5 -13t8 -15.5t2 -14t-2 -14.5t-8 -16t-16.5 -12.5t-27.5 -5h-244q-17 0 -27.5 5t-16.5 12.5
t-8 16t-2 14.5t2 14t8 15.5t16.5 13t27.5 5.5h244z" />
    <glyph glyph-name="Ubreve" unicode="&#x16c;" horiz-adv-x="738" 
d="M502 623q0 31 9.5 49.5t23 28.5t28 13.5t25.5 3.5q10 0 25 -3.5t28 -13.5t22.5 -28.5t9.5 -49.5v-356q0 -64 -21.5 -116.5t-61.5 -90t-96.5 -58.5t-125.5 -21q-70 0 -126 21t-95 58.5t-60 90t-21 116.5v356q0 31 9.5 49.5t22.5 28.5t27.5 13.5t25.5 3.5q10 0 25 -3.5
t28 -13.5t22.5 -28.5t9.5 -49.5v-342q0 -29 7.5 -55t23 -46.5t41 -32.5t61.5 -12t61.5 12t41.5 32.5t23 46.5t7 55v342zM370 852q26 0 45 8t30 25q12 19 22 26t25 7q20 0 32 -12.5t12 -30.5q0 -12 -4 -22q-19 -48 -63.5 -68.5t-98.5 -20.5t-98.5 20.5t-63.5 68.5
q-4 10 -4 22q0 18 12 30.5t32 12.5q15 0 25 -7t22 -26q11 -17 30 -25t45 -8z" />
    <glyph glyph-name="ubreve" unicode="&#x16d;" horiz-adv-x="614" 
d="M550 78q0 -29 -8.5 -46t-21 -26.5t-26 -12.5t-22.5 -3q-10 0 -23 3t-25.5 11.5t-21.5 24t-10 40.5h-2q-9 -17 -23.5 -32t-34 -26t-42.5 -18t-49 -7q-50 0 -85 18t-56.5 46.5t-31 65t-9.5 74.5v226q0 30 9 48t22 27.5t27 13t25 3.5q10 0 24 -3.5t27 -13t22 -27.5t9 -48
v-188q0 -21 3 -40t11.5 -34t22.5 -23.5t37 -8.5q43 0 65.5 32t22.5 75v187q0 30 9 48t22 27.5t27 13t24 3.5t24 -3.5t27 -13t22 -27.5t9 -48v-338zM305 660q26 0 45 8t30 25q12 19 22 26t25 7q20 0 32 -12.5t12 -30.5q0 -12 -4 -22q-19 -48 -63.5 -68.5t-98.5 -20.5
t-98.5 20.5t-63.5 68.5q-4 10 -4 22q0 18 12 30.5t32 12.5q15 0 25 -7t22 -26q11 -17 30 -25t45 -8z" />
    <glyph glyph-name="Uring" unicode="&#x16e;" horiz-adv-x="738" 
d="M502 623q0 31 9.5 49.5t23 28.5t28 13.5t25.5 3.5q10 0 25 -3.5t28 -13.5t22.5 -28.5t9.5 -49.5v-356q0 -64 -21.5 -116.5t-61.5 -90t-96.5 -58.5t-125.5 -21q-70 0 -126 21t-95 58.5t-60 90t-21 116.5v356q0 31 9.5 49.5t22.5 28.5t27.5 13.5t25.5 3.5q10 0 25 -3.5
t28 -13.5t22.5 -28.5t9.5 -49.5v-342q0 -29 7.5 -55t23 -46.5t41 -32.5t61.5 -12t61.5 12t41.5 32.5t23 46.5t7 55v342zM483 856q0 -23 -8.5 -43t-23.5 -34t-35 -22t-42 -8q-23 0 -42.5 8t-34.5 22t-23.5 33.5t-8.5 42.5q0 47 31.5 77.5t77.5 30.5q22 0 42 -8t35 -22.5
t23.5 -34t8.5 -42.5zM433 856q0 25 -17 41.5t-42 16.5q-26 0 -42.5 -17t-16.5 -42q0 -24 17 -40.5t42 -16.5t42 16.5t17 41.5z" />
    <glyph glyph-name="uring" unicode="&#x16f;" horiz-adv-x="614" 
d="M550 78q0 -29 -8.5 -46t-21 -26.5t-26 -12.5t-22.5 -3q-10 0 -23 3t-25.5 11.5t-21.5 24t-10 40.5h-2q-9 -17 -23.5 -32t-34 -26t-42.5 -18t-49 -7q-50 0 -85 18t-56.5 46.5t-31 65t-9.5 74.5v226q0 30 9 48t22 27.5t27 13t25 3.5q10 0 24 -3.5t27 -13t22 -27.5t9 -48
v-188q0 -21 3 -40t11.5 -34t22.5 -23.5t37 -8.5q43 0 65.5 32t22.5 75v187q0 30 9 48t22 27.5t27 13t24 3.5t24 -3.5t27 -13t22 -27.5t9 -48v-338zM414 664q0 -23 -8.5 -43t-23.5 -34t-35 -22t-42 -8q-23 0 -42.5 8t-34.5 22t-23.5 33.5t-8.5 42.5q0 47 31.5 77.5t77.5 30.5
q22 0 42 -8t35 -22.5t23.5 -34t8.5 -42.5zM364 664q0 25 -17 41.5t-42 16.5q-26 0 -42.5 -17t-16.5 -42q0 -24 17 -40.5t42 -16.5t42 16.5t17 41.5z" />
    <glyph glyph-name="Uhungarumlaut" unicode="&#x170;" horiz-adv-x="738" 
d="M502 623q0 31 9.5 49.5t23 28.5t28 13.5t25.5 3.5q10 0 25 -3.5t28 -13.5t22.5 -28.5t9.5 -49.5v-356q0 -64 -21.5 -116.5t-61.5 -90t-96.5 -58.5t-125.5 -21q-70 0 -126 21t-95 58.5t-60 90t-21 116.5v356q0 31 9.5 49.5t22.5 28.5t27.5 13.5t25.5 3.5q10 0 25 -3.5
t28 -13.5t22.5 -28.5t9.5 -49.5v-342q0 -29 7.5 -55t23 -46.5t41 -32.5t61.5 -12t61.5 12t41.5 32.5t23 46.5t7 55v342zM322 779q-20 -15 -33 -20t-24 -5q-24 0 -38.5 15t-14.5 36q0 12 6.5 26t32.5 36l54 44q21 18 33.5 23t23.5 5q24 0 40 -16t16 -39q0 -12 -6 -27t-34 -35
zM543 779q-20 -15 -33 -20t-24 -5q-24 0 -38.5 15t-14.5 36q0 12 6.5 26t32.5 36l54 44q21 18 33.5 23t23.5 5q24 0 40 -16t16 -39q0 -12 -6 -27t-34 -35z" />
    <glyph glyph-name="uhungarumlaut" unicode="&#x171;" horiz-adv-x="614" 
d="M550 78q0 -29 -8.5 -46t-21 -26.5t-26 -12.5t-22.5 -3q-10 0 -23 3t-25.5 11.5t-21.5 24t-10 40.5h-2q-9 -17 -23.5 -32t-34 -26t-42.5 -18t-49 -7q-50 0 -85 18t-56.5 46.5t-31 65t-9.5 74.5v226q0 30 9 48t22 27.5t27 13t25 3.5q10 0 24 -3.5t27 -13t22 -27.5t9 -48
v-188q0 -21 3 -40t11.5 -34t22.5 -23.5t37 -8.5q43 0 65.5 32t22.5 75v187q0 30 9 48t22 27.5t27 13t24 3.5t24 -3.5t27 -13t22 -27.5t9 -48v-338zM267 587q-20 -15 -33 -20t-24 -5q-24 0 -38.5 15t-14.5 36q0 12 6.5 26t32.5 36l54 44q21 18 33.5 23t23.5 5q24 0 40 -16
t16 -39q0 -12 -6 -27t-34 -35zM488 587q-20 -15 -33 -20t-24 -5q-24 0 -38.5 15t-14.5 36q0 12 6.5 26t32.5 36l54 44q21 18 33.5 23t23.5 5q24 0 40 -16t16 -39q0 -12 -6 -27t-34 -35z" />
    <glyph glyph-name="Uogonek" unicode="&#x172;" horiz-adv-x="738" 
d="M427 -147q9 4 19 4q15 0 24.5 -10t9.5 -25q0 -10 -5 -18.5t-19 -16.5q-41 -23 -88 -23q-20 0 -40.5 5t-36.5 16t-26 28.5t-10 41.5q0 33 21.5 64.5t57.5 63.5q-62 5 -112 27.5t-84.5 59.5t-53 87t-18.5 110v356q0 31 9.5 49.5t22.5 28.5t27.5 13.5t25.5 3.5q10 0 25 -3.5
t28 -13.5t22.5 -28.5t9.5 -49.5v-342q0 -29 7.5 -55t23 -46.5t41 -32.5t61.5 -12t61.5 12t41.5 32.5t23 46.5t7 55v342q0 31 9.5 49.5t23 28.5t28 13.5t25.5 3.5q10 0 25 -3.5t28 -13.5t22.5 -28.5t9.5 -49.5v-356q0 -56 -17 -103.5t-48 -83.5t-75.5 -60t-99.5 -33
q-38 -33 -56 -58t-18 -47q0 -16 10.5 -26t26.5 -10q8 0 15.5 2t15.5 5z" />
    <glyph glyph-name="uogonek" unicode="&#x173;" horiz-adv-x="614" 
d="M550 78q0 -21 -4 -34.5t-11 -22.5t-15 -15t-17 -11q-62 -35 -85.5 -63t-23.5 -50q0 -16 10.5 -26t26.5 -10q8 0 15.5 2t15.5 5q9 4 19 4q15 0 24.5 -10t9.5 -25q0 -10 -5 -18.5t-19 -16.5q-41 -23 -88 -23q-20 0 -40.5 5t-36.5 16t-26 28.5t-10 41.5q0 41 31 77.5
t98 74.5q-11 9 -18.5 24t-8.5 38h-2q-9 -17 -23.5 -32t-34 -26t-42.5 -18t-49 -7q-50 0 -85 18t-56.5 46.5t-31 65t-9.5 74.5v226q0 30 9 48t22 27.5t27 13t25 3.5q10 0 24 -3.5t27 -13t22 -27.5t9 -48v-188q0 -21 3 -40t11.5 -34t22.5 -23.5t37 -8.5q43 0 65.5 32t22.5 75
v187q0 30 9 48t22 27.5t27 13t24 3.5t24 -3.5t27 -13t22 -27.5t9 -48v-338z" />
    <glyph glyph-name="Wcircumflex" unicode="&#x174;" horiz-adv-x="1025" 
d="M852 84q-10 -32 -23.5 -50.5t-28.5 -28t-30 -12.5t-27 -3q-13 0 -28 3t-30 12.5t-28.5 28t-22.5 50.5l-120 395h-3l-120 -395q-9 -32 -22.5 -50.5t-28.5 -28t-30 -12.5t-28 -3t-28 3t-30 12.5t-28.5 28t-23.5 50.5l-156 508q-4 13 -5 22.5t-1 17.5q0 37 25 61.5t61 24.5
q12 0 24.5 -3t24.5 -12t22.5 -25t17.5 -42l106 -399h3l106 371q10 37 24.5 59t29.5 33.5t30.5 14.5t29.5 3q13 0 28.5 -3t31 -14.5t29.5 -33.5t25 -59l107 -371h3l109 403q7 25 17 40t22 23.5t24 11.5t23 3q32 0 57.5 -21t25.5 -61q0 -17 -6 -39zM438 772q-23 -18 -42 -18
q-21 0 -34 14t-13 33q0 9 4.5 20.5t20.5 24.5l81 66q17 14 30.5 20.5t30.5 6.5t30.5 -6.5t30.5 -20.5l82 -66q16 -13 20 -24.5t4 -20.5q0 -19 -13.5 -33t-34.5 -14q-20 0 -42 18l-75 63z" />
    <glyph glyph-name="wcircumflex" unicode="&#x175;" horiz-adv-x="871" 
d="M259 183h3l72 235q9 30 21.5 48t27 27t29 12t26.5 3t26.5 -3t28 -12t26.5 -26.5t22 -47.5l75 -236h2l75 256q12 42 34.5 55.5t45.5 13.5q33 0 55.5 -22t22.5 -54q0 -6 -1.5 -16t-6.5 -24l-116 -319q-9 -26 -22 -42.5t-27.5 -25.5t-29 -12t-27.5 -3t-28 3t-30 12
t-27.5 25.5t-21.5 42.5l-79 237h-2l-77 -237q-8 -26 -21 -42.5t-27.5 -25.5t-30 -12t-28.5 -3t-28 3t-29 12t-27 25.5t-22 42.5l-115 319q-4 11 -5 21t-1 16q0 34 23 56.5t58 22.5q23 0 46.5 -14.5t35.5 -57.5zM361 580q-23 -18 -42 -18q-21 0 -34 14t-13 33q0 9 4.5 20.5
t20.5 24.5l81 66q17 14 30.5 20.5t30.5 6.5t30.5 -6.5t30.5 -20.5l82 -66q16 -13 20 -24.5t4 -20.5q0 -19 -13.5 -33t-34.5 -14q-20 0 -42 18l-75 63z" />
    <glyph glyph-name="Ycircumflex" unicode="&#x176;" horiz-adv-x="669" 
d="M503 669q23 31 42.5 40t36.5 9q32 0 56.5 -21.5t24.5 -56.5q0 -13 -5 -30t-22 -38l-219 -272v-215q0 -31 -9.5 -49.5t-22.5 -28.5t-28 -13.5t-25 -3.5q-11 0 -25.5 3.5t-28 13.5t-23 28.5t-9.5 49.5v215l-213 269q-19 24 -23 39.5t-4 26.5q0 35 24.5 59t60.5 24
q19 0 39 -10t45 -43l163 -219zM261 772q-23 -18 -42 -18q-21 0 -34 14t-13 33q0 9 4.5 20.5t20.5 24.5l81 66q17 14 30.5 20.5t30.5 6.5t30.5 -6.5t30.5 -20.5l82 -66q16 -13 20 -24.5t4 -20.5q0 -19 -13.5 -33t-34.5 -14q-20 0 -42 18l-75 63z" />
    <glyph glyph-name="ycircumflex" unicode="&#x177;" horiz-adv-x="567" 
d="M291 180h3l91 257q15 43 37 57t43 14q35 0 58 -21.5t23 -54.5q0 -8 -2 -19t-7 -25l-194 -465q-16 -39 -34.5 -69t-43.5 -51t-59 -32t-82 -11h-9q-26 0 -42 7.5t-25 18t-12 23t-3 21.5t3 21t11 23t23.5 18.5t40.5 7.5q8 0 17.5 1t20 7t20.5 18.5t19 35.5l18 46l-172 374
q-6 14 -8.5 26t-2.5 20q0 34 23 57t59 23q23 0 45.5 -14t36.5 -52zM215 580q-23 -18 -42 -18q-21 0 -34 14t-13 33q0 9 4.5 20.5t20.5 24.5l81 66q17 14 30.5 20.5t30.5 6.5t30.5 -6.5t30.5 -20.5l82 -66q16 -13 20 -24.5t4 -20.5q0 -19 -13.5 -33t-34.5 -14q-20 0 -42 18
l-75 63z" />
    <glyph glyph-name="Ydieresis" unicode="&#x178;" horiz-adv-x="669" 
d="M503 669q23 31 42.5 40t36.5 9q32 0 56.5 -21.5t24.5 -56.5q0 -13 -5 -30t-22 -38l-219 -272v-215q0 -31 -9.5 -49.5t-22.5 -28.5t-28 -13.5t-25 -3.5q-11 0 -25.5 3.5t-28 13.5t-23 28.5t-9.5 49.5v215l-213 269q-19 24 -23 39.5t-4 26.5q0 35 24.5 59t60.5 24
q19 0 39 -10t45 -43l163 -219zM530 850q0 -35 -24.5 -58.5t-58.5 -23.5q-35 0 -59 24t-24 58q0 16 6.5 30.5t17.5 26t26 18t33 6.5q34 0 58.5 -23.5t24.5 -57.5zM313 850q0 -35 -24.5 -58.5t-59.5 -23.5t-59 24t-24 58q0 16 6.5 30.5t17.5 26t26.5 18t32.5 6.5
q35 0 59.5 -23.5t24.5 -57.5z" />
    <glyph glyph-name="Zacute" unicode="&#x179;" horiz-adv-x="635" 
d="M134 0q-34 0 -54.5 10t-32 24.5t-15 30.5t-3.5 27q0 23 10 45.5t35 53.5l303 372h-262q-26 0 -42 8t-24.5 19.5t-11.5 24t-3 21.5t3 21t11.5 23.5t24.5 19.5t42 8h389q31 0 49.5 -9.5t29 -23t14 -28.5t3.5 -25q0 -21 -9 -41.5t-32 -49.5l-314 -383h278q27 0 43.5 -8
t25.5 -19.5t12 -24t3 -21.5t-3 -22t-12 -24.5t-25.5 -20t-43.5 -8.5h-389zM367 776q-21 -14 -33 -18t-23 -4q-24 0 -38.5 15.5t-14.5 36.5q0 12 6 26.5t35 34.5l65 47q23 17 35 21t23 4q24 0 40 -16t16 -39q0 -12 -7 -28t-36 -35z" />
    <glyph glyph-name="zacute" unicode="&#x17a;" horiz-adv-x="512" 
d="M268 372h-165q-23 0 -36.5 7t-21 17t-10 20.5t-2.5 18.5q0 7 2.5 18t10 21t21 17t36.5 7h292q27 0 43 -8.5t25 -20t12 -24.5t3 -22q0 -17 -8 -36t-27 -38l-216 -222h191q22 0 36 -7t21.5 -17t10 -21t2.5 -19t-2.5 -18.5t-10 -20.5t-21.5 -17t-36 -7h-307q-28 0 -45 8.5
t-26.5 21t-12.5 26t-3 22.5q0 17 7.5 36t26.5 39zM297 584q-21 -14 -33 -18t-23 -4q-24 0 -38.5 15.5t-14.5 36.5q0 12 6 26.5t35 34.5l65 47q23 17 35 21t23 4q24 0 40 -16t16 -39q0 -12 -7 -28t-36 -35z" />
    <glyph glyph-name="Zdotaccent" unicode="&#x17b;" horiz-adv-x="635" 
d="M134 0q-34 0 -54.5 10t-32 24.5t-15 30.5t-3.5 27q0 23 10 45.5t35 53.5l303 372h-262q-26 0 -42 8t-24.5 19.5t-11.5 24t-3 21.5t3 21t11.5 23.5t24.5 19.5t42 8h389q31 0 49.5 -9.5t29 -23t14 -28.5t3.5 -25q0 -21 -9 -41.5t-32 -49.5l-314 -383h278q27 0 43.5 -8
t25.5 -19.5t12 -24t3 -21.5t-3 -22t-12 -24.5t-25.5 -20t-43.5 -8.5h-389zM418 849q0 -36 -26 -60.5t-64 -24.5t-63.5 25t-25.5 60t25.5 60.5t63.5 25.5t64 -25t26 -61z" />
    <glyph glyph-name="zdotaccent" unicode="&#x17c;" horiz-adv-x="512" 
d="M268 372h-165q-23 0 -36.5 7t-21 17t-10 20.5t-2.5 18.5q0 7 2.5 18t10 21t21 17t36.5 7h292q27 0 43 -8.5t25 -20t12 -24.5t3 -22q0 -17 -8 -36t-27 -38l-216 -222h191q22 0 36 -7t21.5 -17t10 -21t2.5 -19t-2.5 -18.5t-10 -20.5t-21.5 -17t-36 -7h-307q-28 0 -45 8.5
t-26.5 21t-12.5 26t-3 22.5q0 17 7.5 36t26.5 39zM349 657q0 -36 -26 -60.5t-64 -24.5t-63.5 25t-25.5 60t25.5 60.5t63.5 25.5t64 -25t26 -61z" />
    <glyph glyph-name="Zcaron" unicode="&#x17d;" horiz-adv-x="635" 
d="M134 0q-34 0 -54.5 10t-32 24.5t-15 30.5t-3.5 27q0 23 10 45.5t35 53.5l303 372h-262q-26 0 -42 8t-24.5 19.5t-11.5 24t-3 21.5t3 21t11.5 23.5t24.5 19.5t42 8h389q31 0 49.5 -9.5t29 -23t14 -28.5t3.5 -25q0 -21 -9 -41.5t-32 -49.5l-314 -383h278q27 0 43.5 -8
t25.5 -19.5t12 -24t3 -21.5t-3 -22t-12 -24.5t-25.5 -20t-43.5 -8.5h-389zM398 921q22 18 42 18q21 0 34 -14t13 -33q0 -9 -4.5 -20.5t-20.5 -24.5l-81 -66q-17 -14 -30.5 -20.5t-30.5 -6.5t-30.5 6.5t-30.5 20.5l-82 66q-16 13 -20 24.5t-4 20.5q0 19 13.5 33t34.5 14
q19 0 42 -18l75 -63z" />
    <glyph glyph-name="zcaron" unicode="&#x17e;" horiz-adv-x="512" 
d="M268 372h-165q-23 0 -36.5 7t-21 17t-10 20.5t-2.5 18.5q0 7 2.5 18t10 21t21 17t36.5 7h292q27 0 43 -8.5t25 -20t12 -24.5t3 -22q0 -17 -8 -36t-27 -38l-216 -222h191q22 0 36 -7t21.5 -17t10 -21t2.5 -19t-2.5 -18.5t-10 -20.5t-21.5 -17t-36 -7h-307q-28 0 -45 8.5
t-26.5 21t-12.5 26t-3 22.5q0 17 7.5 36t26.5 39zM341 729q22 18 42 18q21 0 34 -14t13 -33q0 -9 -4.5 -20.5t-20.5 -24.5l-81 -66q-17 -14 -30.5 -20.5t-30.5 -6.5t-30.5 6.5t-30.5 20.5l-82 66q-16 13 -20 24.5t-4 20.5q0 19 13.5 33t34.5 14q19 0 42 -18l75 -63z" />
    <glyph glyph-name="florin" unicode="&#x192;" horiz-adv-x="646" 
d="M113 -7q23 0 38 20t25 69l49 241h-61q-20 0 -32.5 6.5t-19.5 15.5t-9 18.5t-2 16.5q0 6 2 15.5t9 18.5t19.5 15.5t32.5 6.5h81l16 78q8 39 21 77t36.5 67t59.5 47t91 18q18 0 34 -2.5t27 -5.5q19 -6 31 -14t18 -17.5t8 -19t2 -16.5q0 -26 -17 -46.5t-48 -20.5
q-8 0 -19 2.5t-21 2.5q-29 0 -44.5 -24.5t-23.5 -60.5l-14 -65h73q20 0 32.5 -6.5t19 -15.5t9 -18.5t2.5 -15.5q0 -7 -2.5 -16.5t-9 -18.5t-19 -15.5t-32.5 -6.5h-95l-55 -274q-18 -91 -66 -139.5t-129 -48.5q-17 0 -32 1.5t-25 4.5q-19 5 -30 13.5t-17 17.5t-8 18.5
t-2 16.5q0 25 16.5 44.5t46.5 19.5q8 0 16.5 -2t17.5 -2z" />
    <glyph glyph-name="Scommaaccent" unicode="&#x218;" horiz-adv-x="591" 
d="M76 39q-23 18 -31 35t-8 32q0 32 22 56t57 24q26 0 58 -23q20 -14 53 -27t65 -13q16 0 31.5 4.5t27.5 13.5t19.5 23.5t7.5 35.5q0 20 -10 34t-28.5 25.5t-46 21t-62.5 20.5q-34 11 -66.5 26t-58 38.5t-41 57t-15.5 81.5q0 59 24 101t63 69t88 39.5t99 12.5q41 0 85 -10.5
t76 -30.5q27 -17 36.5 -34.5t9.5 -36.5q0 -30 -20 -52.5t-52 -22.5q-11 0 -21 3t-29 13q-30 16 -52 23t-41 7q-38 0 -66 -16.5t-28 -54.5q0 -18 7.5 -30t22 -21t34.5 -16.5t45 -15.5q36 -12 75 -26.5t71 -38.5t53 -59.5t21 -88.5q0 -61 -22.5 -105.5t-60.5 -73.5t-87 -43
t-101 -14q-27 0 -56 4t-56.5 11.5t-51.5 18t-40 23.5zM288 -198q-22 -32 -37 -42t-31 -10q-23 0 -39 15t-16 38q0 9 4.5 21.5t18.5 35.5l36 56q18 29 33.5 39t32.5 10q25 0 40.5 -16t15.5 -39q0 -13 -6 -27.5t-16 -28.5z" />
    <glyph glyph-name="scommaaccent" unicode="&#x219;" horiz-adv-x="472" 
d="M68 23q-22 14 -30 30t-8 31q0 27 18 45.5t45 18.5q12 0 24 -4t26 -14q22 -15 42 -21.5t40 -6.5t39.5 9.5t19.5 33.5q0 23 -24 33.5t-75 22.5q-26 6 -52 16.5t-46.5 27.5t-33.5 42t-13 60q0 45 19 76.5t49 51.5t66.5 29.5t72.5 9.5q16 0 34.5 -2t36.5 -5.5t35 -9t29 -12.5
q25 -14 33.5 -29.5t8.5 -30.5q0 -26 -16.5 -44t-45.5 -18q-17 0 -42 14q-17 10 -32.5 14.5t-34.5 4.5q-23 0 -42.5 -9t-19.5 -31q0 -21 21.5 -29.5t69.5 -19.5q28 -6 56.5 -17.5t51.5 -29.5t37 -44t14 -62q0 -47 -19 -79.5t-49.5 -52.5t-68.5 -29t-76 -9q-43 0 -87 10
t-73 29zM228 -198q-22 -32 -37 -42t-31 -10q-23 0 -39 15t-16 38q0 9 4.5 21.5t18.5 35.5l36 56q18 29 33.5 39t32.5 10q25 0 40.5 -16t15.5 -39q0 -13 -6 -27.5t-16 -28.5z" />
    <glyph glyph-name="uni021A" unicode="&#x21a;" horiz-adv-x="581" 
d="M76 562q-26 0 -42 8t-24.5 19.5t-11.5 24t-3 21.5t3 21.5t11.5 24t24.5 19.5t42 8h429q26 0 42 -8t24.5 -19.5t11.5 -24t3 -21.5t-3 -21.5t-11.5 -24t-24.5 -19.5t-42 -8h-129v-476q0 -31 -9.5 -49.5t-23 -29t-28 -14t-24.5 -3.5q-11 0 -25.5 3.5t-28 14t-23 29
t-9.5 49.5v476h-129zM289 -198q-22 -32 -37 -42t-31 -10q-23 0 -39 15t-16 38q0 9 4.5 21.5t18.5 35.5l36 56q18 29 33.5 39t32.5 10q25 0 40.5 -16t15.5 -39q0 -13 -6 -27.5t-16 -28.5z" />
    <glyph glyph-name="uni021B" unicode="&#x21b;" horiz-adv-x="372" 
d="M81 549q0 29 9 46.5t21.5 27.5t26.5 13t24 3q9 0 23 -3t26.5 -13t21.5 -27.5t9 -46.5v-51h58q22 0 35.5 -7t21 -16.5t10 -20t2.5 -17.5q0 -8 -2.5 -18.5t-10 -20t-21 -16.5t-35.5 -7h-58v-190q0 -35 11 -51.5t38 -16.5h13q31 0 46 -19t15 -40q0 -39 -30.5 -54.5
t-75.5 -15.5q-50 0 -84 12.5t-54.5 36t-29.5 56t-9 72.5v210h-21q-22 0 -35.5 7t-21 16.5t-10 20t-2.5 18.5q0 7 2.5 17.5t10 20t21 16.5t35.5 7h20v51zM209 -198q-22 -32 -37 -42t-31 -10q-23 0 -39 15t-16 38q0 9 4.5 21.5t18.5 35.5l36 56q18 29 33.5 39t32.5 10
q25 0 40.5 -16t15.5 -39q0 -13 -6 -27.5t-16 -28.5z" />
    <glyph glyph-name="dotlessj" unicode="&#x237;" horiz-adv-x="299" 
d="M233 -13q0 -105 -44.5 -165.5t-136.5 -60.5q-48 0 -73.5 18t-25.5 52q0 30 19 49.5t54 19.5q43 0 43 65v451q0 30 9 48t22 27.5t27 13t24 3.5t24 -3.5t27 -13t22 -27.5t9 -48v-429z" />
    <glyph glyph-name="circumflex" unicode="&#x2c6;" 
d="M73 580q-23 -18 -42 -18q-21 0 -34 14t-13 33q0 9 4.5 20.5t20.5 24.5l81 66q17 14 30.5 20.5t30.5 6.5t30.5 -6.5t30.5 -20.5l82 -66q16 -13 20 -24.5t4 -20.5q0 -19 -13.5 -33t-34.5 -14q-20 0 -42 18l-75 63z" />
    <glyph glyph-name="caron" unicode="&#x2c7;" 
d="M229 729q22 18 42 18q21 0 34 -14t13 -33q0 -9 -4.5 -20.5t-20.5 -24.5l-81 -66q-17 -14 -30.5 -20.5t-30.5 -6.5t-30.5 6.5t-30.5 20.5l-82 66q-16 13 -20 24.5t-4 20.5q0 19 13.5 33t34.5 14q19 0 42 -18l75 -63z" />
    <glyph glyph-name="uni02C9" unicode="&#x2c9;" 
d="M272 884q17 0 27.5 -5.5t16.5 -13t8 -15.5t2 -14t-2 -14.5t-8 -16t-16.5 -12.5t-27.5 -5h-244q-17 0 -27.5 5t-16.5 12.5t-8 16t-2 14.5t2 14t8 15.5t16.5 13t27.5 5.5h244z" />
    <glyph glyph-name="breve" unicode="&#x2d8;" 
d="M150 660q26 0 45 8t30 25q12 19 22 26t25 7q20 0 32 -12.5t12 -30.5q0 -12 -4 -22q-19 -48 -63.5 -68.5t-98.5 -20.5t-98.5 20.5t-63.5 68.5q-4 10 -4 22q0 18 12 30.5t32 12.5q15 0 25 -7t22 -26q11 -17 30 -25t45 -8z" />
    <glyph glyph-name="dotaccent" unicode="&#x2d9;" 
d="M240 657q0 -36 -26 -60.5t-64 -24.5t-63.5 25t-25.5 60t25.5 60.5t63.5 25.5t64 -25t26 -61z" />
    <glyph glyph-name="ring" unicode="&#x2da;" 
d="M259 664q0 -23 -8.5 -43t-23.5 -34t-35 -22t-42 -8q-23 0 -42.5 8t-34.5 22t-23.5 33.5t-8.5 42.5q0 47 31.5 77.5t77.5 30.5q22 0 42 -8t35 -22.5t23.5 -34t8.5 -42.5zM209 664q0 25 -17 41.5t-42 16.5q-26 0 -42.5 -17t-16.5 -42q0 -24 17 -40.5t42 -16.5t42 16.5
t17 41.5z" />
    <glyph glyph-name="ogonek" unicode="&#x2db;" 
d="M184 -147q9 4 19 4q15 0 24.5 -10t9.5 -25q0 -10 -5 -18.5t-19 -16.5q-41 -23 -88 -23q-20 0 -40.5 5t-36.5 16t-26 28.5t-10 41.5q0 44 37.5 86t96.5 83h91q-62 -48 -91.5 -81.5t-29.5 -60.5q0 -16 10.5 -26t26.5 -10q8 0 15.5 2t15.5 5z" />
    <glyph glyph-name="tilde" unicode="&#x2dc;" 
d="M247 686q12 17 22.5 23t21.5 6q18 0 29.5 -10.5t11.5 -29.5q0 -5 -1 -10.5t-4 -13.5q-14 -33 -40 -54.5t-70 -21.5q-21 0 -39 5t-37 16q-23 13 -33.5 16.5t-21.5 3.5q-19 0 -33 -18q-12 -17 -22.5 -23t-21.5 -6q-18 0 -29.5 10.5t-11.5 29.5q0 11 5 24q14 33 40 54.5
t70 21.5q21 0 39 -5t37 -16q23 -13 33.5 -16.5t21.5 -3.5q19 0 33 18z" />
    <glyph glyph-name="hungarumlaut" unicode="&#x2dd;" 
d="M101 587q-20 -15 -33 -20t-24 -5q-24 0 -38.5 15t-14.5 36q0 12 6.5 26t32.5 36l54 44q21 18 33.5 23t23.5 5q24 0 40 -16t16 -39q0 -12 -6 -27t-34 -35zM322 587q-20 -15 -33 -20t-24 -5q-24 0 -38.5 15t-14.5 36q0 12 6.5 26t32.5 36l54 44q21 18 33.5 23t23.5 5
q24 0 40 -16t16 -39q0 -12 -6 -27t-34 -35z" />
    <glyph glyph-name="uni0394" unicode="&#x394;" horiz-adv-x="710" 
d="M345 503l-142 -358h292zM659 137q12 -28 14 -40t2 -22q0 -9 -3 -22t-12 -24.5t-26.5 -20t-45.5 -8.5h-467q-29 0 -46 8.5t-26 20t-12 24.5t-3 22q0 10 2.5 22t13.5 40l204 508q9 24 21.5 38t25 22t25 10.5t23.5 2.5q10 0 22.5 -2.5t25.5 -10.5t25 -22.5t22 -38.5z" />
    <glyph glyph-name="uni03A9" unicode="&#x3a9;" horiz-adv-x="771" 
d="M51 405q0 71 26.5 129t72 99.5t106 64.5t129.5 23t130 -22.5t106.5 -63.5t72 -99t26.5 -129q0 -45 -11 -85.5t-32 -73.5t-52 -57t-72 -36v-11h96q26 0 42 -8t24.5 -19t11.5 -23.5t3 -21.5t-3 -21.5t-11.5 -23.5t-24.5 -19t-42 -8h-137q-83 0 -83 82v67q0 17 2.5 29.5
t8 22.5t15 19t23.5 19q38 26 60 67.5t22 98.5q0 40 -14.5 72.5t-38.5 55t-55 35t-65 12.5q-35 0 -66.5 -12t-55.5 -35t-38.5 -55.5t-14.5 -73.5q0 -57 21.5 -96.5t59.5 -65.5q29 -20 39 -40t10 -54v-67q0 -82 -83 -82h-137q-26 0 -42 8t-24.5 19t-11.5 23.5t-3 21.5t3 21.5
t11.5 23.5t24.5 19t42 8h96v11q-84 31 -125 95.5t-42 155.5z" />
    <glyph glyph-name="uni03BC" unicode="&#x3bc;" horiz-adv-x="666" 
d="M425 57q-15 -26 -40.5 -45t-70.5 -19q-18 0 -35 5t-28 15v-159q0 -29 -9 -46.5t-22 -27.5t-26.5 -13t-23.5 -3t-24 3t-26.5 13t-21.5 27.5t-9 46.5v564q0 29 9 46.5t21.5 27.5t26.5 13t24 3t23.5 -3t26.5 -13t22 -27.5t9 -46.5v-168q0 -17 2.5 -38.5t11 -40.5t23.5 -32
t40 -13t42.5 9t28 24t15.5 35t5 43v181q0 29 9 46.5t21.5 27.5t26.5 13t24 3t23.5 -3t26.5 -13t22 -27.5t9 -46.5v-351q0 -28 -8.5 -45t-21 -26.5t-25.5 -12.5t-22 -3t-21.5 2.5t-24.5 11t-21 23.5t-11 40h-1z" />
    <glyph glyph-name="pi" unicode="&#x3c0;" horiz-adv-x="666" 
d="M568 126q4 0 8 0.5t8 0.5q23 0 39.5 -14.5t16.5 -42.5q0 -11 -5 -24.5t-21 -24.5q-28 -19 -56 -23.5t-50 -4.5q-34 0 -57.5 10.5t-38.5 29.5t-21.5 44t-6.5 54v230h-115v-278q0 -30 -9 -48.5t-22 -28t-27.5 -13t-24.5 -3.5t-24.5 3.5t-27.5 13t-22 28t-9 48.5v278h-2
q-25 0 -40 7.5t-23.5 18.5t-11 22.5t-2.5 19.5t2.5 20t11 23t23.5 18.5t40 7.5h457q25 0 40 -7.5t23 -18.5t11 -23t3 -20t-3 -19.5t-11 -22.5t-23 -18.5t-40 -7.5h-11v-201q0 -14 4 -24t17 -10z" />
    <glyph glyph-name="Wgrave" unicode="&#x1e80;" horiz-adv-x="1025" 
d="M852 84q-10 -32 -23.5 -50.5t-28.5 -28t-30 -12.5t-27 -3q-13 0 -28 3t-30 12.5t-28.5 28t-22.5 50.5l-120 395h-3l-120 -395q-9 -32 -22.5 -50.5t-28.5 -28t-30 -12.5t-28 -3t-28 3t-30 12.5t-28.5 28t-23.5 50.5l-156 508q-4 13 -5 22.5t-1 17.5q0 37 25 61.5t61 24.5
q12 0 24.5 -3t24.5 -12t22.5 -25t17.5 -42l106 -399h3l106 371q10 37 24.5 59t29.5 33.5t30.5 14.5t29.5 3q13 0 28.5 -3t31 -14.5t29.5 -33.5t25 -59l107 -371h3l109 403q7 25 17 40t22 23.5t24 11.5t23 3q32 0 57.5 -21t25.5 -61q0 -17 -6 -39zM387 821q-29 19 -36 35
t-7 28q0 23 16 39t40 16q11 0 23 -4t35 -21l65 -47q29 -20 35 -34.5t6 -26.5q0 -21 -14.5 -36.5t-38.5 -15.5q-11 0 -23 4t-33 18z" />
    <glyph glyph-name="wgrave" unicode="&#x1e81;" horiz-adv-x="871" 
d="M259 183h3l72 235q9 30 21.5 48t27 27t29 12t26.5 3t26.5 -3t28 -12t26.5 -26.5t22 -47.5l75 -236h2l75 256q12 42 34.5 55.5t45.5 13.5q33 0 55.5 -22t22.5 -54q0 -6 -1.5 -16t-6.5 -24l-116 -319q-9 -26 -22 -42.5t-27.5 -25.5t-29 -12t-27.5 -3t-28 3t-30 12
t-27.5 25.5t-21.5 42.5l-79 237h-2l-77 -237q-8 -26 -21 -42.5t-27.5 -25.5t-30 -12t-28.5 -3t-28 3t-29 12t-27 25.5t-22 42.5l-115 319q-4 11 -5 21t-1 16q0 34 23 56.5t58 22.5q23 0 46.5 -14.5t35.5 -57.5zM312 629q-29 19 -36 35t-7 28q0 23 16 39t40 16q11 0 23 -4
t35 -21l65 -47q29 -20 35 -34.5t6 -26.5q0 -21 -14.5 -36.5t-38.5 -15.5q-11 0 -23 4t-33 18z" />
    <glyph glyph-name="Wacute" unicode="&#x1e82;" horiz-adv-x="1025" 
d="M852 84q-10 -32 -23.5 -50.5t-28.5 -28t-30 -12.5t-27 -3q-13 0 -28 3t-30 12.5t-28.5 28t-22.5 50.5l-120 395h-3l-120 -395q-9 -32 -22.5 -50.5t-28.5 -28t-30 -12.5t-28 -3t-28 3t-30 12.5t-28.5 28t-23.5 50.5l-156 508q-4 13 -5 22.5t-1 17.5q0 37 25 61.5t61 24.5
q12 0 24.5 -3t24.5 -12t22.5 -25t17.5 -42l106 -399h3l106 371q10 37 24.5 59t29.5 33.5t30.5 14.5t29.5 3q13 0 28.5 -3t31 -14.5t29.5 -33.5t25 -59l107 -371h3l109 403q7 25 17 40t22 23.5t24 11.5t23 3q32 0 57.5 -21t25.5 -61q0 -17 -6 -39zM574 776q-21 -14 -33 -18
t-23 -4q-24 0 -38.5 15.5t-14.5 36.5q0 12 6 26.5t35 34.5l65 47q23 17 35 21t23 4q24 0 40 -16t16 -39q0 -12 -7 -28t-36 -35z" />
    <glyph glyph-name="wacute" unicode="&#x1e83;" horiz-adv-x="871" 
d="M259 183h3l72 235q9 30 21.5 48t27 27t29 12t26.5 3t26.5 -3t28 -12t26.5 -26.5t22 -47.5l75 -236h2l75 256q12 42 34.5 55.5t45.5 13.5q33 0 55.5 -22t22.5 -54q0 -6 -1.5 -16t-6.5 -24l-116 -319q-9 -26 -22 -42.5t-27.5 -25.5t-29 -12t-27.5 -3t-28 3t-30 12
t-27.5 25.5t-21.5 42.5l-79 237h-2l-77 -237q-8 -26 -21 -42.5t-27.5 -25.5t-30 -12t-28.5 -3t-28 3t-29 12t-27 25.5t-22 42.5l-115 319q-4 11 -5 21t-1 16q0 34 23 56.5t58 22.5q23 0 46.5 -14.5t35.5 -57.5zM495 584q-21 -14 -33 -18t-23 -4q-24 0 -38.5 15.5t-14.5 36.5
q0 12 6 26.5t35 34.5l65 47q23 17 35 21t23 4q24 0 40 -16t16 -39q0 -12 -7 -28t-36 -35z" />
    <glyph glyph-name="Wdieresis" unicode="&#x1e84;" horiz-adv-x="1025" 
d="M852 84q-10 -32 -23.5 -50.5t-28.5 -28t-30 -12.5t-27 -3q-13 0 -28 3t-30 12.5t-28.5 28t-22.5 50.5l-120 395h-3l-120 -395q-9 -32 -22.5 -50.5t-28.5 -28t-30 -12.5t-28 -3t-28 3t-30 12.5t-28.5 28t-23.5 50.5l-156 508q-4 13 -5 22.5t-1 17.5q0 37 25 61.5t61 24.5
q12 0 24.5 -3t24.5 -12t22.5 -25t17.5 -42l106 -399h3l106 371q10 37 24.5 59t29.5 33.5t30.5 14.5t29.5 3q13 0 28.5 -3t31 -14.5t29.5 -33.5t25 -59l107 -371h3l109 403q7 25 17 40t22 23.5t24 11.5t23 3q32 0 57.5 -21t25.5 -61q0 -17 -6 -39zM704 850q0 -35 -24.5 -58.5
t-58.5 -23.5q-35 0 -59 24t-24 58q0 16 6.5 30.5t17.5 26t26 18t33 6.5q34 0 58.5 -23.5t24.5 -57.5zM487 850q0 -35 -24.5 -58.5t-59.5 -23.5t-59 24t-24 58q0 16 6.5 30.5t17.5 26t26.5 18t32.5 6.5q35 0 59.5 -23.5t24.5 -57.5z" />
    <glyph glyph-name="wdieresis" unicode="&#x1e85;" horiz-adv-x="871" 
d="M259 183h3l72 235q9 30 21.5 48t27 27t29 12t26.5 3t26.5 -3t28 -12t26.5 -26.5t22 -47.5l75 -236h2l75 256q12 42 34.5 55.5t45.5 13.5q33 0 55.5 -22t22.5 -54q0 -6 -1.5 -16t-6.5 -24l-116 -319q-9 -26 -22 -42.5t-27.5 -25.5t-29 -12t-27.5 -3t-28 3t-30 12
t-27.5 25.5t-21.5 42.5l-79 237h-2l-77 -237q-8 -26 -21 -42.5t-27.5 -25.5t-30 -12t-28.5 -3t-28 3t-29 12t-27 25.5t-22 42.5l-115 319q-4 11 -5 21t-1 16q0 34 23 56.5t58 22.5q23 0 46.5 -14.5t35.5 -57.5zM626 658q0 -35 -24.5 -58.5t-58.5 -23.5q-35 0 -59 24t-24 58
q0 16 6.5 30.5t17.5 26t26 18t33 6.5q34 0 58.5 -23.5t24.5 -57.5zM409 658q0 -35 -24.5 -58.5t-59.5 -23.5t-59 24t-24 58q0 16 6.5 30.5t17.5 26t26.5 18t32.5 6.5q35 0 59.5 -23.5t24.5 -57.5z" />
    <glyph glyph-name="Ygrave" unicode="&#x1ef2;" horiz-adv-x="669" 
d="M503 669q23 31 42.5 40t36.5 9q32 0 56.5 -21.5t24.5 -56.5q0 -13 -5 -30t-22 -38l-219 -272v-215q0 -31 -9.5 -49.5t-22.5 -28.5t-28 -13.5t-25 -3.5q-11 0 -25.5 3.5t-28 13.5t-23 28.5t-9.5 49.5v215l-213 269q-19 24 -23 39.5t-4 26.5q0 35 24.5 59t60.5 24
q19 0 39 -10t45 -43l163 -219zM218 821q-29 19 -36 35t-7 28q0 23 16 39t40 16q11 0 23 -4t35 -21l65 -47q29 -20 35 -34.5t6 -26.5q0 -21 -14.5 -36.5t-38.5 -15.5q-11 0 -23 4t-33 18z" />
    <glyph glyph-name="ygrave" unicode="&#x1ef3;" horiz-adv-x="567" 
d="M291 180h3l91 257q15 43 37 57t43 14q35 0 58 -21.5t23 -54.5q0 -8 -2 -19t-7 -25l-194 -465q-16 -39 -34.5 -69t-43.5 -51t-59 -32t-82 -11h-9q-26 0 -42 7.5t-25 18t-12 23t-3 21.5t3 21t11 23t23.5 18.5t40.5 7.5q8 0 17.5 1t20 7t20.5 18.5t19 35.5l18 46l-172 374
q-6 14 -8.5 26t-2.5 20q0 34 23 57t59 23q23 0 45.5 -14t36.5 -52zM170 629q-29 19 -36 35t-7 28q0 23 16 39t40 16q11 0 23 -4t35 -21l65 -47q29 -20 35 -34.5t6 -26.5q0 -21 -14.5 -36.5t-38.5 -15.5q-11 0 -23 4t-33 18z" />
    <glyph glyph-name="endash" unicode="&#x2013;" horiz-adv-x="400" 
d="M78 210q-19 0 -30.5 5.5t-17.5 14t-8 17.5t-2 15t2 14.5t8 17t17.5 14t30.5 5.5h244q19 0 30.5 -5.5t17.5 -14t8 -17t2 -14.5t-2 -15t-8 -17.5t-17.5 -14t-30.5 -5.5h-244z" />
    <glyph glyph-name="emdash" unicode="&#x2014;" horiz-adv-x="600" 
d="M78 209q-19 0 -30.5 5.5t-17.5 14t-8 17.5t-2 15t2 15t8 17.5t17.5 14t30.5 5.5h444q19 0 30.5 -5.5t17.5 -14t8 -17.5t2 -15t-2 -15t-8 -17.5t-17.5 -14t-30.5 -5.5h-444z" />
    <glyph glyph-name="quoteleft" unicode="&#x2018;" 
d="M201 490q-6 -20 -14 -32.5t-17 -19.5t-19 -9t-19 -2q-27 0 -47 17.5t-20 47.5q0 7 1 15t6 23l41 128q12 37 30 48.5t35 11.5q26 0 46 -15.5t20 -44.5q0 -6 -1 -14.5t-5 -22.5z" />
    <glyph glyph-name="quoteright" unicode="&#x2019;" 
d="M99 655q11 40 31 51.5t38 11.5q27 0 47 -17.5t20 -47.5q0 -7 -1 -15t-6 -23l-41 -128q-12 -38 -30.5 -49t-34.5 -11q-26 0 -46 15.5t-20 44.5q0 6 1 14.5t5 22.5z" />
    <glyph glyph-name="quotesinglbase" unicode="&#x201a;" 
d="M99 92q11 40 31 51.5t38 11.5q27 0 47 -17.5t20 -47.5q0 -7 -1 -15t-6 -23l-41 -128q-12 -38 -30.5 -49t-34.5 -11q-26 0 -46 15.5t-20 44.5q0 6 1 14.5t5 22.5z" />
    <glyph glyph-name="quotedblleft" unicode="&#x201c;" horiz-adv-x="507" 
d="M201 490q-6 -20 -14 -32.5t-17 -19.5t-19 -9t-19 -2q-27 0 -47 17.5t-20 47.5q0 7 1 15t6 23l41 128q12 37 30 48.5t35 11.5q26 0 46 -15.5t20 -44.5q0 -6 -1 -14.5t-5 -22.5zM408 490q-6 -20 -14 -32.5t-17 -19.5t-19 -9t-19 -2q-27 0 -47 17.5t-20 47.5q0 7 1 15t6 23
l41 128q12 37 30 48.5t35 11.5q26 0 46 -15.5t20 -44.5q0 -6 -1 -14.5t-5 -22.5z" />
    <glyph glyph-name="quotedblright" unicode="&#x201d;" horiz-adv-x="507" 
d="M306 655q11 40 31 51.5t38 11.5q27 0 47 -17.5t20 -47.5q0 -7 -1 -15t-6 -23l-41 -128q-12 -38 -30.5 -49t-34.5 -11q-26 0 -46 15.5t-20 44.5q0 6 1 14.5t5 22.5zM99 655q11 40 31 51.5t38 11.5q27 0 47 -17.5t20 -47.5q0 -7 -1 -15t-6 -23l-41 -128q-12 -38 -30.5 -49
t-34.5 -11q-26 0 -46 15.5t-20 44.5q0 6 1 14.5t5 22.5z" />
    <glyph glyph-name="quotedblbase" unicode="&#x201e;" horiz-adv-x="507" 
d="M306 92q11 40 31 51.5t38 11.5q27 0 47 -17.5t20 -47.5q0 -7 -1 -15t-6 -23l-41 -128q-12 -38 -30.5 -49t-34.5 -11q-26 0 -46 15.5t-20 44.5q0 6 1 14.5t5 22.5zM99 92q11 40 31 51.5t38 11.5q27 0 47 -17.5t20 -47.5q0 -7 -1 -15t-6 -23l-41 -128q-12 -38 -30.5 -49
t-34.5 -11q-26 0 -46 15.5t-20 44.5q0 6 1 14.5t5 22.5z" />
    <glyph glyph-name="dagger" unicode="&#x2020;" horiz-adv-x="603" 
d="M229 382h-131q-22 0 -36 7t-21.5 17t-10 20.5t-2.5 18.5q0 7 2.5 17.5t10 20.5t21.5 17t36 7h131v133q0 25 8 40.5t19 23.5t23 11t21 3t21 -3t23 -11t19 -23.5t8 -40.5v-133h134q22 0 36 -7t21.5 -17t10 -20.5t2.5 -17.5q0 -8 -2.5 -18.5t-10 -20.5t-21.5 -17t-36 -7
h-134v-443q0 -25 -8 -40.5t-19 -23.5t-23 -11t-21 -3t-21 3t-23 11t-19 23.5t-8 40.5v443z" />
    <glyph glyph-name="daggerdbl" unicode="&#x2021;" horiz-adv-x="603" 
d="M230 50h-129q-22 0 -35.5 7t-21 16.5t-10 20t-2.5 18.5q0 7 2.5 18t10 20.5t21 16.5t35.5 7h129v231h-129q-22 0 -35.5 7t-21 16.5t-10 20t-2.5 18.5q0 7 2.5 18t10 20.5t21 16.5t35.5 7h129v111q0 25 8 40.5t19 23.5t23 11t21 3t21 -3t23 -11t19 -23.5t8 -40.5v-111h131
q22 0 35.5 -7t21 -16.5t10 -20.5t2.5 -18q0 -8 -2.5 -18.5t-10 -20t-21 -16.5t-35.5 -7h-131v-231h131q22 0 35.5 -7t21 -16.5t10 -20.5t2.5 -18q0 -8 -2.5 -18.5t-10 -20t-21 -16.5t-35.5 -7h-131v-111q0 -25 -8 -40.5t-19 -23.5t-23 -11t-21 -3t-21 3t-23 11t-19 23.5
t-8 40.5v111z" />
    <glyph glyph-name="bullet" unicode="&#x2022;" horiz-adv-x="500" 
d="M427 354q0 -37 -14 -69t-38 -56t-56 -38t-69 -14t-69 14t-56 38t-38 56t-14 69t14 69t38 56t56 38t69 14t69 -14t56 -38t38 -56t14 -69z" />
    <glyph glyph-name="ellipsis" unicode="&#x2026;" horiz-adv-x="1000" 
d="M933 88q0 -42 -29.5 -70t-70.5 -28q-20 0 -38.5 7.5t-32.5 20.5t-22.5 30.5t-8.5 38.5q0 20 8 38t22 31.5t32.5 21.5t39.5 8q41 0 70.5 -28t29.5 -70zM600 88q0 -42 -29.5 -70t-70.5 -28q-20 0 -38.5 7.5t-32.5 20.5t-22.5 30.5t-8.5 38.5q0 20 8 38t22 31.5t32.5 21.5
t39.5 8q41 0 70.5 -28t29.5 -70zM267 88q0 -42 -29 -70t-71 -28q-20 0 -38.5 7.5t-32.5 20.5t-22 30.5t-8 38.5q0 20 8 38t22 31.5t32 21.5t39 8q41 0 70.5 -28t29.5 -70z" />
    <glyph glyph-name="perthousand" unicode="&#x2030;" horiz-adv-x="1245" 
d="M1210 167q0 -37 -14 -69.5t-38.5 -57t-57.5 -38.5t-70 -14t-69.5 14t-57 38.5t-38.5 57t-14 69.5t14 69.5t38.5 56.5t57 38t69.5 14t70 -14t57.5 -38t38.5 -56.5t14 -69.5zM1104 167q0 32 -21 53t-53 21t-53 -21t-21 -53t21 -53t53 -21t53 21t21 53zM812 167
q0 -37 -14.5 -69.5t-39 -57t-57 -38.5t-69.5 -14t-70 14t-57.5 38.5t-38.5 57t-14 69.5t14 69.5t38.5 56.5t57.5 38t70 14t69.5 -14t57 -38t39 -56.5t14.5 -69.5zM706 167q0 32 -21.5 53t-52.5 21q-32 0 -53 -21t-21 -53t21 -53t53 -21q31 0 52.5 21t21.5 53zM394 542
q0 -37 -14.5 -69.5t-39 -57t-57 -38.5t-69.5 -14t-70 14t-57.5 38.5t-38.5 57t-14 69.5t14 69.5t38.5 56.5t57.5 38t70 14t69.5 -14t57 -38t39 -56.5t14.5 -69.5zM288 542q0 32 -21.5 53t-52.5 21q-32 0 -53 -21t-21 -53t21 -53t53 -21q31 0 52.5 21t21.5 53zM293 11
q-11 -20 -23 -27t-23 -7q-19 0 -33.5 13t-14.5 33q0 5 1.5 11.5t6.5 17.5l344 649q11 20 23 26t23 6q19 0 33.5 -13t14.5 -33q0 -5 -1.5 -11.5t-6.5 -17.5z" />
    <glyph glyph-name="guilsinglleft" unicode="&#x2039;" horiz-adv-x="318" 
d="M59 205q-14 19 -17 30t-3 19t3 19t17 30l97 140q13 19 26.5 25t25.5 6q23 0 40.5 -15t17.5 -42q0 -7 -2.5 -17t-11.5 -23l-84 -123l84 -123q9 -13 11.5 -23t2.5 -17q0 -27 -17.5 -42t-40.5 -15q-12 0 -25.5 6t-26.5 25z" />
    <glyph glyph-name="guilsinglright" unicode="&#x203a;" horiz-adv-x="318" 
d="M162 65q-13 -19 -26.5 -25t-25.5 -6q-23 0 -40.5 15t-17.5 42q0 7 2.5 17t11.5 23l84 123l-84 123q-9 13 -11.5 23t-2.5 17q0 27 17.5 42t40.5 15q12 0 25.5 -6t26.5 -25l97 -140q14 -19 17 -30t3 -19t-3 -19t-17 -30z" />
    <glyph glyph-name="fraction" unicode="&#x2044;" horiz-adv-x="100" 
d="M-85 11q-11 -20 -23 -27t-23 -7q-19 0 -33.5 13t-14.5 33q0 5 1.5 11.5t6.5 17.5l344 649q11 20 23 26t23 6q19 0 33.5 -13t14.5 -33q0 -5 -1.5 -11.5t-6.5 -17.5z" />
    <glyph glyph-name="zero.superior" unicode="&#x2070;" horiz-adv-x="420" 
d="M385 664q0 -46 -9 -87t-30 -72.5t-54 -50t-81 -18.5t-81.5 18.5t-54.5 50t-30.5 72.5t-9.5 87q0 45 9.5 86t30.5 72t54.5 49.5t81.5 18.5t81 -18.5t54 -49.5t30 -72t9 -86zM267 664q0 22 -2.5 44.5t-8.5 41t-17 30t-28 11.5t-28.5 -11.5t-18 -30t-9 -41t-2.5 -44.5
q0 -23 2.5 -45.5t9 -41.5t18 -30.5t28.5 -11.5t28 11.5t17 30.5t8.5 41.5t2.5 45.5z" />
    <glyph glyph-name="four.superior" unicode="&#x2074;" horiz-adv-x="420" 
d="M229 756h-1l-88 -134h89v134zM335 528v-33q0 -19 -6 -31t-14 -18.5t-17.5 -8.5t-15.5 -2t-15.5 2t-17.5 8.5t-14 18.5t-6 31v33h-144q-21 0 -34 6.5t-20 16t-9.5 19.5t-2.5 17q0 9 3 20t14 26l150 213q22 31 42 38t33 7q9 0 21.5 -2.5t24 -11.5t20 -26t8.5 -45v-184h15
q17 0 27.5 -5t16 -12.5t7.5 -15.5t2 -14t-2 -14t-7.5 -15.5t-16 -12.5t-27.5 -5h-15z" />
    <glyph glyph-name="five.superior" unicode="&#x2075;" horiz-adv-x="420" 
d="M206 533q24 0 40.5 14.5t16.5 40.5q0 29 -21 43.5t-56 14.5q-11 0 -21.5 -1t-18.5 -3q-15 -3 -28 -3q-5 0 -12 1.5t-14 6.5t-11.5 15t-3.5 27l5 130q2 32 16 47t46 15h166q18 0 29.5 -5.5t17.5 -13.5t8 -16.5t2 -14.5t-2 -14.5t-8 -16.5t-17.5 -13.5t-29.5 -5.5h-123
l-3 -51q19 3 36 3q33 0 62 -9t50 -27t33.5 -44t12.5 -60q0 -40 -14.5 -69.5t-38 -49t-54 -29t-62.5 -9.5q-43 0 -77 13.5t-57 37.5q-19 21 -19 43t15 36.5t38 14.5q10 0 20 -4.5t26 -21.5q11 -11 22 -16.5t29 -5.5z" />
    </font>
</defs>
</svg>
